<?xml version="1.0" encoding="utf-8"?>
<!-- Generator: Adobe Illustrator 21.0.0, SVG Export Plug-In . SVG Version: 6.00 Build 0)  -->
<svg version="1.1" id="Calque_1" xmlns="http://www.w3.org/2000/svg" xmlns:xlink="http://www.w3.org/1999/xlink" x="0px" y="0px"
	 viewBox="0 0 1024 1024" style="enable-background:new 0 0 1024 1024;" xml:space="preserve">
<style type="text/css">
	.st0{fill:#333333;}
	.st1{fill:#FF7BAC;}
</style>
<g>
	<path class="st0" d="M512,1008c-67,0-131.9-13.1-193.1-39c-59.1-25-112.1-60.7-157.7-106.3C115.7,817.2,80,764.1,55,705.1
		C29.1,643.9,16,579,16,512s13.1-131.9,39-193.1c25-59.1,60.7-112.1,106.3-157.7S259.9,80,318.9,55C380.1,29.1,445,16,512,16
		s131.9,13.1,193.1,39c59.1,25,112.1,60.7,157.7,106.3c45.6,45.6,81.3,98.6,106.3,157.7c25.9,61.1,39,126.1,39,193.1
		s-13.1,131.9-39,193.1c-25,59.1-60.7,112.1-106.3,157.7C817.2,908.3,764.1,944,705.1,969C643.9,994.9,579,1008,512,1008z"/>
	<path class="st1" d="M512,32c64.8,0,127.7,12.7,186.8,37.7c57.2,24.2,108.5,58.8,152.6,102.9s78.7,95.4,102.9,152.6
		c25,59.2,37.7,122,37.7,186.8s-12.7,127.7-37.7,186.8c-24.2,57.2-58.8,108.5-102.9,152.6S756,930.1,698.8,954.3
		c-59.2,25-122,37.7-186.8,37.7s-127.7-12.7-186.8-37.7c-57.2-24.2-108.5-58.8-152.6-102.9S93.9,756,69.7,698.8
		C44.7,639.7,32,576.8,32,512s12.7-127.7,37.7-186.8c24.2-57.2,58.8-108.5,102.9-152.6S268,93.9,325.2,69.7
		C384.3,44.7,447.2,32,512,32 M512,0C229.2,0,0,229.2,0,512s229.2,512,512,512s512-229.2,512-512S794.8,0,512,0L512,0z"/>
</g>
<g>
	<path class="st1" d="M514.7,430.3c52.4-52.4,78.8-72.6,165.1-72.6c116.7,0,209.3,59.8,209.3,162.7c0,103.6-92.6,160.1-206.2,160.1
		c-74.3,0-127.8-43-155.1-62.1c-8.4-5.8-53.1,237-82.1,227.3c-25-8.3,15.5-201.1,14.3-230.9c-22.7,9.1-50.5,47-131.5,47
		c-129.4,0-193.5-72.4-193.5-142.8c0-75.7,63.1-142.8,187.2-142.8c50.6,0,96.5,18.5,130.6,44.5c6.6,5.1,48.9-240.3,83.3-242.8
		C568.2,175.6,508.4,423.3,514.7,430.3z M438.5,500.6c-36.8-37.9-54.3-52.5-110-52.5c-65.2,0-107.3,25.2-107.3,71.1
		c0,45.2,38.9,71.1,108.3,71.1C401,590.1,417.1,556.5,438.5,500.6z M537.3,544.6c27.3,33.2,63.6,59.5,141.4,59.5
		c73.6,0,121-28.6,121-84.3c0-57.1-52.6-85.7-118.9-85.7C592.5,434.1,567.1,470.8,537.3,544.6z"/>
</g>
</svg>
