<?xml version="1.0" standalone="no"?>
<!DOCTYPE svg PUBLIC "-//W3C//DTD SVG 20010904//EN"
 "http://www.w3.org/TR/2001/REC-SVG-20010904/DTD/svg10.dtd">
<svg version="1.0" xmlns="http://www.w3.org/2000/svg"
 width="700.000000pt" height="700.000000pt" viewBox="0 0 700.000000 700.000000"
 preserveAspectRatio="xMidYMid meet">
<metadata>
Created by potrace 1.11, written by Peter Selinger 2001-2013
</metadata>
<g transform="translate(0.000000,700.000000) scale(0.100000,-0.100000)"
fill="#000000" stroke="none">
<path d="M3278 6995 c-2 -1 -41 -5 -88 -9 -87 -7 -105 -9 -225 -27 -116 -18
-123 -19 -192 -35 -234 -53 -348 -87 -534 -159 -222 -87 -451 -203 -634 -322
-679 -444 -1173 -1081 -1429 -1845 -31 -94 -79 -267 -91 -329 -3 -13 -11 -58
-20 -99 -29 -147 -36 -200 -52 -370 -15 -165 -8 -592 12 -711 2 -13 6 -46 9
-74 9 -78 23 -156 51 -285 23 -107 88 -333 114 -395 5 -11 30 -75 55 -142 54
-140 181 -394 249 -501 26 -40 47 -76 47 -81 0 -5 3 -11 8 -13 4 -2 33 -41 64
-88 170 -255 431 -534 708 -755 92 -74 370 -265 386 -265 4 0 15 -6 23 -14 29
-25 304 -161 431 -213 269 -110 577 -194 835 -228 22 -2 56 -7 75 -10 186 -26
698 -27 838 0 16 3 104 15 147 20 176 23 497 112 735 206 131 51 424 195 467
229 14 11 30 20 35 20 5 0 14 5 21 10 7 6 59 41 118 79 237 155 505 389 681
595 34 39 64 73 68 76 4 3 44 55 90 115 151 199 277 405 383 628 26 53 47 99
47 102 0 2 11 28 24 57 57 127 151 421 182 573 17 81 54 301 59 350 4 33 9 71
11 85 9 47 11 525 4 605 -13 130 -21 202 -25 227 -3 13 -8 43 -11 68 -9 67
-70 335 -94 412 -11 37 -21 70 -21 73 0 2 -16 48 -35 101 -136 377 -309 694
-541 991 -145 187 -354 404 -513 533 -30 25 -63 53 -75 63 -21 19 -267 195
-296 212 -262 153 -398 222 -554 285 -44 17 -100 40 -125 50 -44 17 -189 63
-302 94 -31 9 -101 25 -155 37 -54 11 -107 22 -118 25 -11 2 -38 6 -60 9 -22
3 -51 7 -65 10 -13 2 -52 7 -86 11 -33 3 -74 8 -90 10 -32 5 -540 14 -546 9z"/>
</g>
</svg>
