<?xml version="1.0" encoding="utf-8"?>
<!-- Generator: Adobe Illustrator 21.0.0, SVG Export Plug-In . SVG Version: 6.00 Build 0)  -->
<svg version="1.1" id="Calque_1" xmlns="http://www.w3.org/2000/svg" xmlns:xlink="http://www.w3.org/1999/xlink" x="0px" y="0px"
	 viewBox="0 0 700 150" style="enable-background:new 0 0 700 150;" xml:space="preserve">
<style type="text/css">
	.st0{fill:none;stroke:#000000;stroke-miterlimit:10;}
	.st1{fill:none;stroke:#3FA9F5;stroke-width:2;stroke-miterlimit:10;}
	.st2{fill:none;stroke:#7AC943;stroke-width:2;stroke-miterlimit:10;}
	.st3{fill:#3FA9F5;}
	.st4{fill:#FF931E;}
	.st5{fill:#7AC943;}
	.st6{fill:#FFFFFF;}
</style>
<line class="st0" x1="117.4" y1="14.5" x2="117.4" y2="137.4"/>
<line class="st0" x1="692" y1="136.8" x2="116.8" y2="136.8"/>
<g>
	<path d="M66.1,31.6c-0.1,0-0.3,0-0.4-0.1s-0.2-0.2-0.2-0.3l-2.9-9.9c-0.1-0.2-0.1-0.4,0-0.6c0.1-0.2,0.2-0.2,0.4-0.2
		c0.1,0,0.2,0,0.3,0.1c0.1,0.1,0.2,0.2,0.2,0.3l2.6,9.2H66l2.5-9c0-0.1,0.1-0.2,0.2-0.3c0.1-0.1,0.2-0.1,0.3-0.1
		c0.1,0,0.2,0,0.3,0.1c0.1,0.1,0.2,0.2,0.2,0.3l2.5,9h-0.3l2.7-9.3c0.1-0.2,0.2-0.4,0.5-0.4c0.2,0,0.3,0.1,0.4,0.2
		c0.1,0.2,0.1,0.3,0,0.6l-2.9,9.9c0,0.2-0.1,0.3-0.2,0.4s-0.2,0.1-0.4,0.1c-0.1,0-0.3,0-0.4-0.1s-0.2-0.2-0.2-0.3L68.8,22h0.3
		l-2.5,9.1c0,0.1-0.1,0.3-0.2,0.3C66.4,31.5,66.3,31.6,66.1,31.6z"/>
	<path d="M80.6,31.7c-0.6,0-1.2-0.1-1.7-0.3c-0.5-0.2-1-0.4-1.4-0.8c-0.4-0.3-0.7-0.7-0.9-1.1c-0.1-0.2-0.1-0.3,0-0.4
		s0.2-0.2,0.4-0.3c0.1,0,0.3,0,0.4,0c0.1,0.1,0.2,0.2,0.3,0.3c0.1,0.3,0.4,0.5,0.6,0.7c0.3,0.2,0.6,0.4,1,0.5
		c0.4,0.1,0.8,0.2,1.3,0.2c0.5,0,1-0.1,1.3-0.3c0.4-0.2,0.7-0.4,0.9-0.7s0.3-0.7,0.3-1.2c0-0.6-0.2-1.1-0.6-1.5
		c-0.4-0.4-1.1-0.7-2-0.8c-1.1-0.1-2-0.5-2.6-1c-0.6-0.6-0.9-1.2-0.9-2.1c0-0.6,0.2-1.1,0.5-1.5c0.3-0.4,0.7-0.8,1.3-1
		c0.5-0.2,1.2-0.4,1.9-0.4c0.5,0,1,0.1,1.4,0.3c0.4,0.2,0.8,0.4,1.1,0.7c0.3,0.3,0.6,0.6,0.8,0.9c0.1,0.2,0.1,0.3,0.1,0.4
		c0,0.1-0.1,0.3-0.3,0.3c-0.1,0.1-0.3,0.1-0.4,0s-0.3-0.1-0.3-0.3c-0.1-0.2-0.3-0.4-0.5-0.6c-0.2-0.2-0.5-0.4-0.8-0.5
		c-0.3-0.1-0.7-0.2-1.1-0.2c-0.8,0-1.4,0.2-1.8,0.5c-0.5,0.3-0.7,0.8-0.7,1.4c0,0.3,0.1,0.6,0.3,0.9c0.2,0.3,0.5,0.5,0.9,0.7
		c0.4,0.2,0.9,0.3,1.6,0.4c1.2,0.2,2.1,0.5,2.7,1.1s0.9,1.3,0.9,2.2c0,0.5-0.1,1-0.3,1.4c-0.2,0.4-0.4,0.7-0.8,1
		c-0.3,0.3-0.7,0.5-1.2,0.6C81.6,31.6,81.1,31.7,80.6,31.7z"/>
	<path d="M87.2,31.6c-0.2,0-0.3-0.1-0.4-0.2c-0.1-0.1-0.2-0.2-0.2-0.4V20.9c0-0.2,0.1-0.3,0.2-0.4s0.2-0.2,0.4-0.2
		c0.2,0,0.3,0.1,0.4,0.2s0.2,0.2,0.2,0.4v9.6h5.6c0.2,0,0.3,0,0.4,0.2c0.1,0.1,0.2,0.2,0.2,0.4s-0.1,0.3-0.2,0.4s-0.2,0.2-0.4,0.2
		H87.2z"/>
	<path d="M100,31.6c-0.2,0-0.3-0.1-0.4-0.2c-0.1-0.1-0.2-0.2-0.2-0.4c0-0.1,0.1-0.3,0.2-0.4l4.3-5.1c0.2-0.3,0.4-0.5,0.6-0.9
		c0.1-0.3,0.2-0.6,0.2-0.9c0-0.4-0.1-0.8-0.3-1.2c-0.2-0.3-0.4-0.6-0.7-0.8c-0.3-0.2-0.7-0.3-1.1-0.3c-0.4,0-0.8,0.1-1.1,0.3
		c-0.3,0.2-0.6,0.5-0.8,0.8s-0.3,0.7-0.3,1.2c0,0.2-0.1,0.3-0.2,0.4c-0.1,0.1-0.2,0.2-0.4,0.2c-0.2,0-0.3-0.1-0.4-0.2
		c-0.1-0.1-0.2-0.2-0.2-0.4c0-0.6,0.1-1.2,0.4-1.7c0.3-0.5,0.7-0.9,1.2-1.2c0.5-0.3,1-0.4,1.7-0.4s1.2,0.1,1.7,0.4
		c0.5,0.3,0.9,0.7,1.1,1.2c0.3,0.5,0.4,1.1,0.4,1.7c0,0.3,0,0.6-0.2,0.9c-0.1,0.3-0.2,0.6-0.4,0.8c-0.2,0.3-0.4,0.5-0.6,0.7
		l-3.7,4.3h4.5c0.2,0,0.3,0.1,0.4,0.2c0.1,0.1,0.2,0.2,0.2,0.4c0,0.2-0.1,0.3-0.2,0.4c-0.1,0.1-0.2,0.2-0.4,0.2H100z"/>
</g>
<g>
	<path d="M52.8,57.4c-0.2,0-0.3-0.1-0.4-0.2c-0.1-0.1-0.2-0.2-0.2-0.4V46.8c0-0.2,0.1-0.3,0.2-0.4c0.1-0.1,0.2-0.2,0.4-0.2
		c0.2,0,0.3,0.1,0.4,0.2c0.1,0.1,0.2,0.2,0.2,0.4v4.5h7v-4.5c0-0.2,0.1-0.3,0.2-0.4c0.1-0.1,0.2-0.2,0.4-0.2c0.2,0,0.3,0.1,0.4,0.2
		c0.1,0.1,0.2,0.2,0.2,0.4v10.1c0,0.2-0.1,0.3-0.2,0.4c-0.1,0.1-0.2,0.2-0.4,0.2c-0.2,0-0.3-0.1-0.4-0.2c-0.1-0.1-0.2-0.2-0.2-0.4
		v-4.6h-7v4.6c0,0.2-0.1,0.3-0.2,0.4C53,57.4,52.9,57.4,52.8,57.4z"/>
	<path d="M67.1,57.2c-0.1,0.1-0.3,0.1-0.4,0c-0.1,0-0.2-0.1-0.3-0.3l-3.2-6.6c-0.1-0.1-0.1-0.3,0-0.4s0.1-0.2,0.3-0.3
		c0.1-0.1,0.3-0.1,0.4,0c0.1,0,0.2,0.1,0.3,0.3l3.1,6.6c0.1,0.1,0.1,0.3,0.1,0.4C67.3,57,67.2,57.1,67.1,57.2z M65.5,60.8
		c-0.1,0-0.2,0-0.3-0.1c-0.3-0.1-0.4-0.4-0.3-0.7l4.6-10.2c0.1-0.3,0.4-0.4,0.7-0.3c0.3,0.1,0.4,0.4,0.3,0.7l-4.6,10.2
		C65.8,60.7,65.7,60.8,65.5,60.8z"/>
	<path d="M72.5,60.8c-0.2,0-0.3-0.1-0.4-0.2C72,60.5,72,60.4,72,60.2v-6.8c0-0.7,0.2-1.4,0.5-2c0.3-0.6,0.8-1.1,1.4-1.4
		c0.6-0.3,1.3-0.5,2-0.5c0.8,0,1.4,0.2,2,0.5c0.6,0.3,1.1,0.8,1.4,1.4c0.3,0.6,0.5,1.3,0.5,2c0,0.8-0.2,1.4-0.5,2s-0.8,1.1-1.4,1.4
		c-0.6,0.3-1.2,0.5-2,0.5c-0.6,0-1.2-0.1-1.7-0.4s-0.9-0.6-1.3-1.1v4.2c0,0.2-0.1,0.3-0.2,0.4S72.7,60.8,72.5,60.8z M76,56.5
		c0.6,0,1.1-0.1,1.5-0.4c0.4-0.3,0.8-0.6,1-1.1s0.4-1,0.4-1.5c0-0.6-0.1-1.1-0.4-1.5s-0.6-0.8-1-1.1c-0.4-0.3-0.9-0.4-1.5-0.4
		c-0.5,0-1,0.1-1.5,0.4c-0.4,0.3-0.8,0.6-1,1.1c-0.2,0.4-0.4,1-0.4,1.5c0,0.6,0.1,1.1,0.4,1.5c0.2,0.5,0.6,0.8,1,1.1
		C74.9,56.4,75.4,56.5,76,56.5z"/>
	<path d="M85.7,57.5c-0.8,0-1.5-0.2-2.1-0.5c-0.6-0.3-1.1-0.8-1.4-1.4c-0.3-0.6-0.5-1.3-0.5-2.1c0-0.8,0.2-1.5,0.5-2.1
		c0.3-0.6,0.8-1.1,1.3-1.4c0.6-0.3,1.2-0.5,1.9-0.5c0.7,0,1.4,0.2,1.9,0.5c0.5,0.3,1,0.8,1.3,1.4c0.3,0.6,0.4,1.2,0.4,2
		c0,0.2,0,0.3-0.1,0.4c-0.1,0.1-0.2,0.1-0.4,0.1h-6.1V53h6.2L88,53.4c0-0.6-0.1-1.1-0.3-1.5c-0.2-0.4-0.5-0.8-0.9-1
		c-0.4-0.2-0.8-0.4-1.4-0.4c-0.5,0-1,0.1-1.4,0.4s-0.7,0.6-1,1.1c-0.2,0.5-0.3,1-0.3,1.6c0,0.6,0.1,1.1,0.4,1.5s0.6,0.8,1,1.1
		s0.9,0.4,1.5,0.4c0.3,0,0.7-0.1,1-0.2c0.3-0.1,0.6-0.3,0.8-0.5c0.1-0.1,0.2-0.1,0.4-0.1s0.2,0,0.3,0.1c0.1,0.1,0.2,0.2,0.2,0.4
		c0,0.1-0.1,0.2-0.2,0.3c-0.3,0.3-0.7,0.5-1.2,0.7C86.6,57.4,86.1,57.5,85.7,57.5z"/>
	<path d="M91.4,57.4c-0.2,0-0.3,0-0.4-0.1c-0.1-0.1-0.1-0.2-0.1-0.4v-6.7c0-0.2,0-0.3,0.1-0.4c0.1-0.1,0.2-0.1,0.4-0.1
		s0.3,0,0.4,0.1c0.1,0.1,0.1,0.2,0.1,0.4v6.7c0,0.2,0,0.3-0.1,0.4S91.6,57.4,91.4,57.4z M91.4,52.6c0-0.6,0.2-1.1,0.5-1.6
		s0.6-0.8,1.1-1.1c0.5-0.3,1-0.4,1.5-0.4c0.4,0,0.8,0.1,1,0.2c0.2,0.1,0.3,0.3,0.3,0.5c0,0.1-0.1,0.2-0.2,0.3s-0.2,0.1-0.3,0.1
		c-0.1,0-0.3,0-0.4,0c-0.5,0-1,0-1.4,0.2c-0.4,0.2-0.7,0.4-1,0.7c-0.2,0.3-0.4,0.7-0.4,1.2H91.4z"/>
	<path d="M97.3,54.1c-0.2,0-0.3-0.1-0.4-0.2c-0.1-0.1-0.2-0.2-0.2-0.4c0-0.2,0.1-0.3,0.2-0.4C97,53,97.1,53,97.3,53h3.4
		c0.2,0,0.3,0.1,0.4,0.2c0.1,0.1,0.2,0.2,0.2,0.4c0,0.2-0.1,0.3-0.2,0.4c-0.1,0.1-0.2,0.2-0.4,0.2H97.3z"/>
	<path d="M105.6,57.4c-0.2,0-0.4-0.1-0.5-0.4l-4.3-10c-0.1-0.3-0.1-0.5,0-0.6c0.1-0.2,0.3-0.2,0.5-0.2c0.2,0,0.4,0.1,0.5,0.4l4,9.5
		h-0.3l3.9-9.4c0.1-0.1,0.1-0.2,0.2-0.3c0.1-0.1,0.2-0.1,0.3-0.1c0.2,0,0.4,0.1,0.4,0.3c0.1,0.2,0.1,0.4,0,0.6l-4.3,10
		c-0.1,0.1-0.1,0.2-0.2,0.3C105.8,57.4,105.7,57.4,105.6,57.4z"/>
</g>
<g>
	<path d="M19.9,60.6c0,0.2-0.1,0.4-0.3,0.5L10.4,65c-0.2,0.1-0.4,0.1-0.6,0c-0.1-0.1-0.2-0.2-0.2-0.4c0-0.2,0.1-0.4,0.3-0.5l8.7-3.6
		v0.3L10,57.2c-0.1-0.1-0.2-0.1-0.3-0.2c-0.1-0.1-0.1-0.2-0.1-0.3c0-0.2,0.1-0.3,0.2-0.4c0.2-0.1,0.3-0.1,0.5,0l9.2,3.9
		c0.1,0.1,0.2,0.1,0.3,0.2C19.8,60.5,19.9,60.5,19.9,60.6z"/>
	<path d="M19.9,53c0,0.7-0.2,1.3-0.5,1.9c-0.3,0.6-0.7,1-1.3,1.3s-1.2,0.5-1.9,0.5c-0.7,0-1.3-0.2-1.9-0.5s-1-0.7-1.3-1.3
		c-0.3-0.6-0.5-1.2-0.5-1.9c0-0.7,0.2-1.3,0.5-1.9c0.3-0.5,0.7-1,1.3-1.3s1.2-0.5,1.9-0.5c0.7,0,1.3,0.2,1.9,0.5s1,0.8,1.3,1.3
		C19.8,51.6,19.9,52.3,19.9,53z M19,53c0-0.5-0.1-1-0.4-1.4c-0.2-0.4-0.6-0.7-1-0.9c-0.4-0.2-0.9-0.3-1.4-0.3c-0.5,0-1,0.1-1.4,0.3
		c-0.4,0.2-0.7,0.5-1,0.9c-0.2,0.4-0.4,0.9-0.4,1.4c0,0.5,0.1,1,0.4,1.4c0.2,0.4,0.6,0.7,1,1c0.4,0.2,0.9,0.3,1.4,0.3
		c0.5,0,1-0.1,1.4-0.3c0.4-0.2,0.7-0.5,1-1C18.9,53.9,19,53.5,19,53z"/>
	<path d="M19.9,45.8c0,0.4-0.1,0.7-0.3,0.9c-0.2,0.3-0.5,0.5-0.8,0.6c-0.3,0.2-0.7,0.2-1.2,0.2h-7.5c-0.1,0-0.3,0-0.4-0.1
		c-0.1-0.1-0.1-0.2-0.1-0.4c0-0.1,0-0.3,0.1-0.4c0.1-0.1,0.2-0.1,0.4-0.1h7.5c0.4,0,0.7-0.1,0.9-0.2c0.2-0.2,0.4-0.3,0.4-0.6v-0.3
		c0-0.1,0-0.2,0.1-0.3c0.1-0.1,0.2-0.1,0.4-0.1c0.1,0,0.3,0.1,0.4,0.2s0.1,0.3,0.1,0.4V45.8z"/>
	<path d="M19.9,37.6c0,0.1,0,0.3-0.1,0.4s-0.2,0.1-0.4,0.1h-6.2c-0.1,0-0.3,0-0.4-0.1c-0.1-0.1-0.1-0.2-0.1-0.4c0-0.1,0-0.3,0.1-0.4
		c0.1-0.1,0.2-0.1,0.4-0.1h6.2c0.2,0,0.3,0,0.4,0.1S19.9,37.5,19.9,37.6z M19.9,40.5c0,0.6-0.1,1.2-0.4,1.7
		c-0.3,0.5-0.6,0.9-1.1,1.2c-0.5,0.3-1.1,0.4-1.8,0.4h-3.4c-0.1,0-0.3,0-0.4-0.1s-0.1-0.2-0.1-0.4c0-0.1,0-0.3,0.1-0.4
		s0.2-0.1,0.4-0.1h3.4c0.5,0,1-0.1,1.3-0.3c0.4-0.2,0.6-0.5,0.8-0.8c0.2-0.4,0.3-0.8,0.3-1.2c0-0.4-0.1-0.8-0.2-1.2
		c-0.2-0.3-0.4-0.6-0.7-0.8c-0.3-0.2-0.6-0.3-1-0.3v-0.7c0.6,0,1,0.2,1.5,0.5c0.4,0.3,0.8,0.6,1,1.1S19.9,39.9,19.9,40.5z"/>
	<path d="M19.9,25c0,0.1,0,0.3-0.1,0.4s-0.2,0.1-0.4,0.1h-3.8c-0.6,0-1.1,0.2-1.5,0.5c-0.4,0.3-0.5,0.7-0.5,1.2c0,0.5,0.2,1,0.5,1.3
		c0.4,0.3,0.8,0.5,1.5,0.5V30c-0.6,0-1.1-0.1-1.5-0.4c-0.4-0.2-0.8-0.6-1-1c-0.2-0.4-0.4-0.9-0.4-1.5c0-0.5,0.1-1,0.4-1.4
		c0.2-0.4,0.6-0.7,1-0.9s1-0.3,1.6-0.3h3.8c0.1,0,0.3,0,0.4,0.1C19.8,24.8,19.9,24.9,19.9,25z M19.9,29.6c0,0.1,0,0.3-0.1,0.4
		c-0.1,0.1-0.2,0.1-0.4,0.1h-3.8c-0.6,0-1.1,0.2-1.5,0.5c-0.4,0.3-0.5,0.7-0.5,1.2c0,0.5,0.2,1,0.5,1.3s0.8,0.5,1.4,0.5v0.7
		c-0.6,0-1.1-0.1-1.5-0.4s-0.8-0.5-1-1c-0.2-0.4-0.4-0.9-0.4-1.4c0-0.5,0.1-1,0.4-1.4c0.2-0.4,0.6-0.7,1-0.9c0.4-0.2,1-0.3,1.6-0.3
		h3.8c0.1,0,0.3,0,0.4,0.1S19.9,29.5,19.9,29.6z M19.9,34.2c0,0.2,0,0.3-0.1,0.4s-0.2,0.1-0.4,0.1h-6.2c-0.1,0-0.3,0-0.4-0.1
		s-0.1-0.2-0.1-0.4c0-0.1,0-0.3,0.1-0.4c0.1-0.1,0.2-0.1,0.4-0.1h6.2c0.1,0,0.3,0,0.4,0.1C19.8,34,19.9,34.1,19.9,34.2z"/>
	<path d="M19.9,19.1c0,0.7-0.2,1.3-0.5,1.9s-0.7,1-1.3,1.3s-1.2,0.5-1.9,0.5c-0.7,0-1.4-0.1-1.9-0.4c-0.5-0.3-1-0.7-1.3-1.2
		c-0.3-0.5-0.5-1.1-0.5-1.8c0-0.7,0.2-1.2,0.5-1.7c0.3-0.5,0.7-0.9,1.3-1.1s1.1-0.4,1.8-0.4c0.1,0,0.3,0,0.3,0.1
		c0.1,0.1,0.1,0.2,0.1,0.3V22h-0.8v-5.7l0.4,0.6c-0.5,0-1,0.1-1.4,0.3c-0.4,0.2-0.7,0.5-0.9,0.8s-0.3,0.8-0.3,1.3
		c0,0.5,0.1,0.9,0.4,1.3s0.6,0.7,1,0.9s0.9,0.3,1.4,0.3s1-0.1,1.4-0.3c0.4-0.2,0.7-0.5,1-1c0.2-0.4,0.4-0.9,0.4-1.4
		c0-0.3-0.1-0.6-0.2-1c-0.1-0.3-0.2-0.6-0.4-0.8c-0.1-0.1-0.1-0.2-0.1-0.3s0-0.2,0.1-0.3c0.1-0.1,0.2-0.2,0.3-0.2s0.2,0,0.3,0.2
		c0.2,0.3,0.4,0.7,0.6,1.1C19.8,18.2,19.9,18.6,19.9,19.1z"/>
	<path d="M35.6,60.6c0,0.1-0.1,0.3-0.2,0.4c-0.1,0.1-0.2,0.2-0.4,0.2h-9.2c-0.1,0-0.3-0.1-0.4-0.2c-0.1-0.1-0.1-0.2-0.1-0.4
		c0-0.2,0.1-0.4,0.3-0.5l8.8-4.4v0.4l-8.8-4.3c-0.2-0.1-0.3-0.3-0.3-0.5c0-0.1,0-0.3,0.1-0.4c0.1-0.1,0.2-0.1,0.4-0.1h9.2
		c0.1,0,0.3,0,0.4,0.1s0.2,0.2,0.2,0.4c0,0.1-0.1,0.3-0.2,0.4s-0.2,0.2-0.4,0.2h-7.9l0-0.2l7.9,3.9c0.2,0.1,0.2,0.2,0.2,0.4
		c0,0.2-0.1,0.4-0.3,0.5l-7.8,3.9l-0.1-0.3h7.9c0.1,0,0.3,0.1,0.4,0.2S35.6,60.4,35.6,60.6z"/>
	<path d="M35.7,45.1c0,0.7-0.2,1.3-0.5,1.9c-0.3,0.6-0.7,1-1.3,1.3s-1.2,0.5-1.9,0.5c-0.7,0-1.3-0.2-1.9-0.5s-1-0.7-1.3-1.3
		c-0.3-0.6-0.5-1.2-0.5-1.9c0-0.7,0.2-1.3,0.5-1.9c0.3-0.5,0.7-1,1.3-1.3s1.2-0.5,1.9-0.5c0.7,0,1.3,0.2,1.9,0.5s1,0.8,1.3,1.3
		C35.5,43.7,35.7,44.4,35.7,45.1z M34.8,45.1c0-0.5-0.1-1-0.4-1.4c-0.2-0.4-0.6-0.7-1-0.9c-0.4-0.2-0.9-0.3-1.4-0.3
		c-0.5,0-1,0.1-1.4,0.3c-0.4,0.2-0.7,0.5-1,0.9c-0.2,0.4-0.4,0.9-0.4,1.4c0,0.5,0.1,1,0.4,1.4c0.2,0.4,0.6,0.7,1,1
		c0.4,0.2,0.9,0.3,1.4,0.3c0.5,0,1-0.1,1.4-0.3c0.4-0.2,0.7-0.5,1-1C34.6,46,34.8,45.6,34.8,45.1z"/>
	<path d="M35.6,33.3c0,0.1,0,0.3-0.1,0.4c-0.1,0.1-0.2,0.1-0.4,0.1h-3.4c-0.5,0-1,0.1-1.3,0.3c-0.3,0.2-0.6,0.5-0.8,0.8
		c-0.2,0.4-0.3,0.8-0.3,1.2c0,0.4,0.1,0.8,0.2,1.2c0.2,0.3,0.4,0.6,0.7,0.8c0.3,0.2,0.6,0.3,1,0.3v0.7c-0.6,0-1-0.2-1.5-0.4
		c-0.4-0.3-0.8-0.7-1-1.1s-0.4-1-0.4-1.5c0-0.6,0.1-1.2,0.4-1.7c0.3-0.5,0.6-0.9,1.1-1.2c0.5-0.3,1.1-0.4,1.8-0.4h3.4
		c0.1,0,0.3,0,0.4,0.1C35.6,33,35.6,33.1,35.6,33.3z M35.6,38.9c0,0.2,0,0.3-0.1,0.4s-0.2,0.1-0.4,0.1h-6.2c-0.2,0-0.3,0-0.4-0.1
		c-0.1-0.1-0.1-0.2-0.1-0.4c0-0.1,0-0.3,0.1-0.4c0.1-0.1,0.2-0.1,0.4-0.1h6.2c0.1,0,0.3,0,0.4,0.1C35.6,38.7,35.6,38.8,35.6,38.9z"
		/>
	<path d="M35.6,27.7c0,0.5-0.1,0.9-0.3,1.2s-0.5,0.6-0.9,0.9c-0.4,0.2-0.8,0.3-1.3,0.3h-6.4c-0.1,0-0.3,0-0.4-0.1
		c-0.1-0.1-0.1-0.2-0.1-0.4c0-0.1,0-0.3,0.1-0.4c0.1-0.1,0.2-0.1,0.4-0.1h6.4c0.4,0,0.8-0.1,1.1-0.4c0.3-0.3,0.4-0.6,0.4-1v-0.4
		c0-0.1,0-0.3,0.1-0.3c0.1-0.1,0.2-0.1,0.4-0.1c0.1,0,0.3,0.1,0.4,0.2s0.1,0.2,0.1,0.4V27.7z M29.6,31c0,0.1,0,0.2-0.1,0.3
		c-0.1,0.1-0.2,0.1-0.3,0.1c-0.1,0-0.2,0-0.3-0.1c-0.1-0.1-0.1-0.2-0.1-0.3v-3.3c0-0.1,0-0.2,0.1-0.3c0.1-0.1,0.2-0.1,0.3-0.1
		c0.1,0,0.2,0,0.3,0.1s0.1,0.2,0.1,0.3V31z"/>
	<path d="M27.3,22.4c0,0.1-0.1,0.3-0.2,0.4c-0.1,0.1-0.2,0.2-0.4,0.2c-0.1,0-0.3,0-0.3-0.1L25,21.3c-0.1-0.1-0.1-0.2-0.1-0.4
		c0-0.1,0.1-0.3,0.2-0.4s0.2-0.1,0.4-0.1c0.1,0,0.1,0,0.2,0c0.1,0,0.1,0.1,0.2,0.1l1.5,1.5C27.3,22.1,27.3,22.2,27.3,22.4z M35.7,22
		c0,0.7-0.2,1.3-0.5,1.9s-0.7,1-1.3,1.3s-1.2,0.5-1.9,0.5c-0.7,0-1.4-0.1-1.9-0.4c-0.5-0.3-1-0.7-1.3-1.2c-0.3-0.5-0.5-1.1-0.5-1.8
		c0-0.7,0.2-1.2,0.5-1.7c0.3-0.5,0.7-0.9,1.3-1.1s1.1-0.4,1.8-0.4c0.1,0,0.3,0,0.3,0.1c0.1,0.1,0.1,0.2,0.1,0.3V25h-0.8v-5.7
		l0.4,0.6c-0.5,0-1,0.1-1.4,0.3c-0.4,0.2-0.7,0.5-0.9,0.8s-0.3,0.8-0.3,1.3c0,0.5,0.1,0.9,0.4,1.3s0.6,0.7,1,0.9s0.9,0.3,1.4,0.3
		s1-0.1,1.4-0.3c0.4-0.2,0.7-0.5,1-1c0.2-0.4,0.4-0.9,0.4-1.4c0-0.3-0.1-0.6-0.2-1c-0.1-0.3-0.2-0.6-0.4-0.8
		c-0.1-0.1-0.1-0.2-0.1-0.3s0-0.2,0.1-0.3c0.1-0.1,0.2-0.2,0.3-0.2s0.2,0,0.3,0.2c0.2,0.3,0.4,0.7,0.6,1.1
		C35.6,21.2,35.7,21.6,35.7,22z"/>
</g>
<g>
	<path d="M18.7,129.4c0,0.2-0.1,0.4-0.3,0.5l-9.1,3.9c-0.2,0.1-0.4,0.1-0.6,0s-0.2-0.2-0.2-0.4c0-0.2,0.1-0.4,0.3-0.5l8.7-3.6v0.3
		l-8.6-3.6c-0.1-0.1-0.2-0.1-0.3-0.2c-0.1-0.1-0.1-0.2-0.1-0.3c0-0.2,0.1-0.3,0.2-0.4c0.2-0.1,0.3-0.1,0.5,0l9.2,3.9
		c0.1,0.1,0.2,0.1,0.3,0.2C18.6,129.2,18.7,129.3,18.7,129.4z"/>
	<path d="M18.7,121.7c0,0.7-0.2,1.3-0.5,1.9c-0.3,0.6-0.7,1-1.3,1.3c-0.6,0.3-1.2,0.5-1.9,0.5c-0.7,0-1.3-0.2-1.9-0.5
		c-0.6-0.3-1-0.7-1.3-1.3c-0.3-0.6-0.5-1.2-0.5-1.9s0.2-1.3,0.5-1.9c0.3-0.5,0.7-1,1.3-1.3c0.6-0.3,1.2-0.5,1.9-0.5
		c0.7,0,1.3,0.2,1.9,0.5s1,0.8,1.3,1.3C18.6,120.4,18.7,121,18.7,121.7z M17.8,121.7c0-0.5-0.1-1-0.4-1.4s-0.6-0.7-1-0.9
		c-0.4-0.2-0.9-0.3-1.4-0.3c-0.5,0-1,0.1-1.4,0.3c-0.4,0.2-0.7,0.5-1,0.9s-0.4,0.9-0.4,1.4s0.1,1,0.4,1.4s0.6,0.7,1,1
		c0.4,0.2,0.9,0.3,1.4,0.3c0.5,0,1-0.1,1.4-0.3c0.4-0.2,0.7-0.5,1-1S17.8,122.2,17.8,121.7z"/>
	<path d="M18.7,114.5c0,0.4-0.1,0.7-0.3,0.9s-0.5,0.5-0.8,0.6s-0.7,0.2-1.2,0.2H8.9c-0.1,0-0.3,0-0.4-0.1c-0.1-0.1-0.1-0.2-0.1-0.4
		c0-0.1,0-0.3,0.1-0.4c0.1-0.1,0.2-0.1,0.4-0.1h7.5c0.4,0,0.7-0.1,0.9-0.2c0.2-0.2,0.4-0.3,0.4-0.6v-0.3c0-0.1,0-0.2,0.1-0.3
		c0.1-0.1,0.2-0.1,0.4-0.1c0.1,0,0.3,0.1,0.4,0.2c0.1,0.1,0.1,0.3,0.1,0.4V114.5z"/>
	<path d="M18.7,106.4c0,0.1,0,0.3-0.1,0.4s-0.2,0.1-0.4,0.1H12c-0.1,0-0.3,0-0.4-0.1c-0.1-0.1-0.1-0.2-0.1-0.4c0-0.1,0-0.3,0.1-0.4
		c0.1-0.1,0.2-0.1,0.4-0.1h6.2c0.2,0,0.3,0,0.4,0.1C18.6,106.1,18.7,106.2,18.7,106.4z M18.7,109.3c0,0.6-0.1,1.2-0.4,1.7
		c-0.3,0.5-0.6,0.9-1.1,1.2c-0.5,0.3-1.1,0.4-1.8,0.4H12c-0.1,0-0.3,0-0.4-0.1c-0.1-0.1-0.1-0.2-0.1-0.4c0-0.1,0-0.3,0.1-0.4
		c0.1-0.1,0.2-0.1,0.4-0.1h3.4c0.5,0,1-0.1,1.3-0.3c0.4-0.2,0.6-0.5,0.8-0.8c0.2-0.4,0.3-0.8,0.3-1.2c0-0.4-0.1-0.8-0.2-1.2
		c-0.2-0.3-0.4-0.6-0.7-0.8s-0.6-0.3-1-0.3v-0.7c0.6,0,1,0.2,1.5,0.5s0.8,0.6,1,1.1S18.7,108.7,18.7,109.3z"/>
	<path d="M18.7,93.8c0,0.1,0,0.3-0.1,0.4s-0.2,0.1-0.4,0.1h-3.8c-0.6,0-1.1,0.2-1.5,0.5c-0.4,0.3-0.5,0.7-0.5,1.2
		c0,0.5,0.2,1,0.5,1.3c0.4,0.3,0.8,0.5,1.5,0.5v0.9c-0.6,0-1.1-0.1-1.5-0.4s-0.8-0.6-1-1s-0.4-0.9-0.4-1.5c0-0.5,0.1-1,0.4-1.4
		s0.6-0.7,1-0.9c0.4-0.2,1-0.3,1.6-0.3h3.8c0.1,0,0.3,0,0.4,0.1S18.7,93.6,18.7,93.8z M18.7,98.4c0,0.1,0,0.3-0.1,0.4
		c-0.1,0.1-0.2,0.1-0.4,0.1h-3.8c-0.6,0-1.1,0.2-1.5,0.5c-0.4,0.3-0.5,0.7-0.5,1.2c0,0.5,0.2,1,0.5,1.3c0.4,0.4,0.8,0.5,1.4,0.5v0.7
		c-0.6,0-1.1-0.1-1.5-0.4c-0.4-0.2-0.8-0.5-1-1s-0.4-0.9-0.4-1.4c0-0.5,0.1-1,0.4-1.4s0.6-0.7,1-0.9c0.4-0.2,1-0.3,1.6-0.3h3.8
		c0.1,0,0.3,0,0.4,0.1S18.7,98.2,18.7,98.4z M18.7,103c0,0.2,0,0.3-0.1,0.4s-0.2,0.1-0.4,0.1H12c-0.1,0-0.3,0-0.4-0.1
		s-0.1-0.2-0.1-0.4c0-0.1,0-0.3,0.1-0.4s0.2-0.1,0.4-0.1h6.2c0.1,0,0.3,0,0.4,0.1S18.7,102.8,18.7,103z"/>
	<path d="M18.7,87.8c0,0.7-0.2,1.3-0.5,1.9s-0.7,1-1.3,1.3s-1.2,0.5-1.9,0.5c-0.7,0-1.4-0.1-1.9-0.4s-1-0.7-1.3-1.2
		c-0.3-0.5-0.5-1.1-0.5-1.8c0-0.7,0.2-1.2,0.5-1.7c0.3-0.5,0.7-0.9,1.3-1.1s1.1-0.4,1.8-0.4c0.1,0,0.3,0,0.3,0.1
		c0.1,0.1,0.1,0.2,0.1,0.3v5.6h-0.8v-5.7l0.4,0.6c-0.5,0-1,0.1-1.4,0.3c-0.4,0.2-0.7,0.5-0.9,0.8s-0.3,0.8-0.3,1.3
		c0,0.5,0.1,0.9,0.4,1.3c0.2,0.4,0.6,0.7,1,0.9c0.4,0.2,0.9,0.3,1.4,0.3s1-0.1,1.4-0.3c0.4-0.2,0.7-0.5,1-1c0.2-0.4,0.4-0.9,0.4-1.4
		c0-0.3-0.1-0.6-0.2-1c-0.1-0.3-0.2-0.6-0.4-0.8c-0.1-0.1-0.1-0.2-0.1-0.3c0-0.1,0-0.2,0.1-0.3c0.1-0.1,0.2-0.2,0.3-0.2
		c0.1,0,0.2,0,0.3,0.2c0.2,0.3,0.4,0.7,0.6,1.1C18.7,87,18.7,87.4,18.7,87.8z"/>
	<path d="M34.4,137.1c0,0.1,0,0.3-0.1,0.4c-0.1,0.1-0.2,0.1-0.4,0.1h-3.4c-0.5,0-1,0.1-1.3,0.3c-0.3,0.2-0.6,0.5-0.8,0.8
		c-0.2,0.4-0.3,0.8-0.3,1.2c0,0.4,0.1,0.8,0.2,1.2c0.2,0.3,0.4,0.6,0.7,0.8c0.3,0.2,0.6,0.3,1,0.3v0.7c-0.6,0-1-0.2-1.5-0.4
		c-0.4-0.3-0.8-0.7-1-1.1s-0.4-1-0.4-1.5c0-0.6,0.1-1.2,0.4-1.7c0.3-0.5,0.6-0.9,1.1-1.2c0.5-0.3,1.1-0.4,1.8-0.4h3.4
		c0.1,0,0.3,0,0.4,0.1C34.4,136.9,34.4,137,34.4,137.1z M34.4,142.8c0,0.2,0,0.3-0.1,0.4s-0.2,0.1-0.4,0.1h-6.2
		c-0.2,0-0.3,0-0.4-0.1c-0.1-0.1-0.1-0.2-0.1-0.4c0-0.1,0-0.3,0.1-0.4c0.1-0.1,0.2-0.1,0.4-0.1h6.2c0.1,0,0.3,0,0.4,0.1
		S34.4,142.6,34.4,142.8z"/>
	<path d="M34.5,131.1c0,0.7-0.2,1.3-0.5,1.9c-0.3,0.6-0.7,1-1.3,1.3c-0.6,0.3-1.2,0.5-1.9,0.5c-0.7,0-1.3-0.2-1.9-0.5
		c-0.6-0.3-1-0.7-1.3-1.3c-0.3-0.6-0.5-1.2-0.5-1.9s0.2-1.3,0.5-1.9c0.3-0.5,0.7-1,1.3-1.3c0.6-0.3,1.2-0.5,1.9-0.5
		c0.7,0,1.3,0.2,1.9,0.5s1,0.8,1.3,1.3C34.3,129.8,34.5,130.4,34.5,131.1z M33.6,131.1c0-0.5-0.1-1-0.4-1.4s-0.6-0.7-1-0.9
		c-0.4-0.2-0.9-0.3-1.4-0.3c-0.5,0-1,0.1-1.4,0.3c-0.4,0.2-0.7,0.5-1,0.9s-0.4,0.9-0.4,1.4s0.1,1,0.4,1.4s0.6,0.7,1,1
		c0.4,0.2,0.9,0.3,1.4,0.3c0.5,0,1-0.1,1.4-0.3c0.4-0.2,0.7-0.5,1-1S33.6,131.6,33.6,131.1z"/>
	<path d="M34.4,119.4c0,0.1,0,0.3-0.1,0.4c-0.1,0.1-0.2,0.1-0.4,0.1h-3.4c-0.5,0-1,0.1-1.3,0.3c-0.3,0.2-0.6,0.5-0.8,0.8
		c-0.2,0.4-0.3,0.8-0.3,1.2c0,0.4,0.1,0.8,0.2,1.2c0.2,0.3,0.4,0.6,0.7,0.8c0.3,0.2,0.6,0.3,1,0.3v0.7c-0.6,0-1-0.2-1.5-0.4
		c-0.4-0.3-0.8-0.7-1-1.1s-0.4-1-0.4-1.5c0-0.6,0.1-1.2,0.4-1.7c0.3-0.5,0.6-0.9,1.1-1.2c0.5-0.3,1.1-0.4,1.8-0.4h3.4
		c0.1,0,0.3,0,0.4,0.1C34.4,119.1,34.4,119.2,34.4,119.4z M34.4,125c0,0.2,0,0.3-0.1,0.4s-0.2,0.1-0.4,0.1h-6.2
		c-0.2,0-0.3,0-0.4-0.1c-0.1-0.1-0.1-0.2-0.1-0.4c0-0.1,0-0.3,0.1-0.4c0.1-0.1,0.2-0.1,0.4-0.1h6.2c0.1,0,0.3,0,0.4,0.1
		S34.4,124.9,34.4,125z"/>
	<path d="M34.4,112.1c0,0.1-0.1,0.3-0.2,0.4s-0.2,0.2-0.4,0.2h-9.2c-0.1,0-0.3-0.1-0.4-0.2c-0.1-0.1-0.1-0.2-0.1-0.4
		c0-0.2,0.1-0.4,0.3-0.5l8.8-4.4v0.4l-8.8-4.3c-0.2-0.1-0.3-0.3-0.3-0.5c0-0.1,0-0.3,0.1-0.4c0.1-0.1,0.2-0.1,0.4-0.1h9.2
		c0.1,0,0.3,0,0.4,0.1c0.1,0.1,0.2,0.2,0.2,0.4c0,0.1-0.1,0.3-0.2,0.4s-0.2,0.2-0.4,0.2H26l0-0.2l7.9,3.9c0.2,0.1,0.2,0.2,0.2,0.4
		c0,0.2-0.1,0.4-0.3,0.5l-7.8,3.9l-0.1-0.3h7.9c0.1,0,0.3,0.1,0.4,0.2S34.4,112,34.4,112.1z"/>
	<path d="M34.5,96.6c0,0.7-0.2,1.3-0.5,1.9c-0.3,0.6-0.7,1-1.3,1.3c-0.6,0.3-1.2,0.5-1.9,0.5c-0.7,0-1.3-0.2-1.9-0.5
		c-0.6-0.3-1-0.7-1.3-1.3c-0.3-0.6-0.5-1.2-0.5-1.9s0.2-1.3,0.5-1.9c0.3-0.5,0.7-1,1.3-1.3c0.6-0.3,1.2-0.5,1.9-0.5
		c0.7,0,1.3,0.2,1.9,0.5s1,0.8,1.3,1.3C34.3,95.3,34.5,95.9,34.5,96.6z M33.6,96.6c0-0.5-0.1-1-0.4-1.4s-0.6-0.7-1-0.9
		c-0.4-0.2-0.9-0.3-1.4-0.3c-0.5,0-1,0.1-1.4,0.3c-0.4,0.2-0.7,0.5-1,0.9s-0.4,0.9-0.4,1.4s0.1,1,0.4,1.4s0.6,0.7,1,1
		c0.4,0.2,0.9,0.3,1.4,0.3c0.5,0,1-0.1,1.4-0.3c0.4-0.2,0.7-0.5,1-1S33.6,97.1,33.6,96.6z"/>
	<path d="M34.4,84.9c0,0.1,0,0.3-0.1,0.4c-0.1,0.1-0.2,0.1-0.4,0.1h-3.4c-0.5,0-1,0.1-1.3,0.3c-0.3,0.2-0.6,0.5-0.8,0.8
		c-0.2,0.4-0.3,0.8-0.3,1.2c0,0.4,0.1,0.8,0.2,1.2c0.2,0.3,0.4,0.6,0.7,0.8c0.3,0.2,0.6,0.3,1,0.3v0.7c-0.6,0-1-0.2-1.5-0.4
		c-0.4-0.3-0.8-0.7-1-1.1s-0.4-1-0.4-1.5c0-0.6,0.1-1.2,0.4-1.7c0.3-0.5,0.6-0.9,1.1-1.2c0.5-0.3,1.1-0.4,1.8-0.4h3.4
		c0.1,0,0.3,0,0.4,0.1C34.4,84.6,34.4,84.7,34.4,84.9z M34.4,90.5c0,0.2,0,0.3-0.1,0.4S34.1,91,33.9,91h-6.2c-0.2,0-0.3,0-0.4-0.1
		c-0.1-0.1-0.1-0.2-0.1-0.4c0-0.1,0-0.3,0.1-0.4c0.1-0.1,0.2-0.1,0.4-0.1h6.2c0.1,0,0.3,0,0.4,0.1S34.4,90.4,34.4,90.5z"/>
	<path d="M34.4,79.3c0,0.5-0.1,0.9-0.3,1.2s-0.5,0.6-0.9,0.9c-0.4,0.2-0.8,0.3-1.3,0.3h-6.4c-0.1,0-0.3,0-0.4-0.1
		C25,81.5,25,81.4,25,81.2c0-0.1,0-0.3,0.1-0.4c0.1-0.1,0.2-0.1,0.4-0.1h6.4c0.4,0,0.8-0.1,1.1-0.4c0.3-0.3,0.4-0.6,0.4-1V79
		c0-0.1,0-0.3,0.1-0.3c0.1-0.1,0.2-0.1,0.4-0.1c0.1,0,0.3,0.1,0.4,0.2s0.1,0.2,0.1,0.4V79.3z M28.4,82.6c0,0.1,0,0.2-0.1,0.3
		c-0.1,0.1-0.2,0.1-0.3,0.1c-0.1,0-0.2,0-0.3-0.1c-0.1-0.1-0.1-0.2-0.1-0.3v-3.3c0-0.1,0-0.2,0.1-0.3c0.1-0.1,0.2-0.1,0.3-0.1
		c0.1,0,0.2,0,0.3,0.1s0.1,0.2,0.1,0.3V82.6z"/>
	<path d="M26.2,74c0,0.1-0.1,0.3-0.2,0.4s-0.2,0.2-0.4,0.2c-0.1,0-0.3,0-0.3-0.1l-1.5-1.5c-0.1-0.1-0.1-0.2-0.1-0.4
		c0-0.1,0.1-0.3,0.2-0.4C23.9,72,24,72,24.2,72c0.1,0,0.1,0,0.2,0c0.1,0,0.1,0.1,0.2,0.1l1.5,1.5C26.1,73.7,26.2,73.8,26.2,74z
		 M34.5,73.6c0,0.7-0.2,1.3-0.5,1.9s-0.7,1-1.3,1.3s-1.2,0.5-1.9,0.5c-0.7,0-1.4-0.1-1.9-0.4s-1-0.7-1.3-1.2
		c-0.3-0.5-0.5-1.1-0.5-1.8c0-0.7,0.2-1.2,0.5-1.7c0.3-0.5,0.7-0.9,1.3-1.1s1.1-0.4,1.8-0.4c0.1,0,0.3,0,0.3,0.1
		c0.1,0.1,0.1,0.2,0.1,0.3v5.6h-0.8v-5.7l0.4,0.6c-0.5,0-1,0.1-1.4,0.3c-0.4,0.2-0.7,0.5-0.9,0.8s-0.3,0.8-0.3,1.3
		c0,0.5,0.1,0.9,0.4,1.3c0.2,0.4,0.6,0.7,1,0.9c0.4,0.2,0.9,0.3,1.4,0.3s1-0.1,1.4-0.3c0.4-0.2,0.7-0.5,1-1c0.2-0.4,0.4-0.9,0.4-1.4
		c0-0.3-0.1-0.6-0.2-1c-0.1-0.3-0.2-0.6-0.4-0.8c-0.1-0.1-0.1-0.2-0.1-0.3s0-0.2,0.1-0.3c0.1-0.1,0.2-0.2,0.3-0.2s0.2,0,0.3,0.2
		c0.2,0.3,0.4,0.7,0.6,1.1C34.4,72.8,34.5,73.2,34.5,73.6z"/>
</g>
<g>
	<path d="M66.1,108.3c-0.1,0-0.3,0-0.4-0.1s-0.2-0.2-0.2-0.3L62.6,98c-0.1-0.2-0.1-0.4,0-0.6c0.1-0.2,0.2-0.2,0.4-0.2
		c0.1,0,0.2,0,0.3,0.1c0.1,0.1,0.2,0.2,0.2,0.3l2.6,9.2H66l2.5-9c0-0.1,0.1-0.2,0.2-0.3c0.1-0.1,0.2-0.1,0.3-0.1
		c0.1,0,0.2,0,0.3,0.1c0.1,0.1,0.2,0.2,0.2,0.3l2.5,9h-0.3l2.7-9.3c0.1-0.2,0.2-0.4,0.5-0.4c0.2,0,0.3,0.1,0.4,0.2
		c0.1,0.2,0.1,0.3,0,0.6l-2.9,9.9c0,0.2-0.1,0.3-0.2,0.4c-0.1,0.1-0.2,0.1-0.4,0.1c-0.1,0-0.3,0-0.4-0.1s-0.2-0.2-0.2-0.3l-2.5-9.1
		h0.3l-2.5,9.1c0,0.1-0.1,0.3-0.2,0.3C66.4,108.3,66.3,108.3,66.1,108.3z"/>
	<path d="M80.6,108.5c-0.6,0-1.2-0.1-1.7-0.3c-0.5-0.2-1-0.4-1.4-0.8c-0.4-0.3-0.7-0.7-0.9-1.1c-0.1-0.2-0.1-0.3,0-0.4
		s0.2-0.2,0.4-0.3c0.1,0,0.3,0,0.4,0c0.1,0.1,0.2,0.2,0.3,0.3c0.1,0.3,0.4,0.5,0.6,0.7s0.6,0.4,1,0.5c0.4,0.1,0.8,0.2,1.3,0.2
		c0.5,0,1-0.1,1.3-0.3c0.4-0.2,0.7-0.4,0.9-0.7c0.2-0.3,0.3-0.7,0.3-1.2c0-0.6-0.2-1.1-0.6-1.5c-0.4-0.4-1.1-0.7-2-0.8
		c-1.1-0.1-2-0.5-2.6-1c-0.6-0.6-0.9-1.2-0.9-2.1c0-0.6,0.2-1.1,0.5-1.5c0.3-0.4,0.7-0.8,1.3-1c0.5-0.2,1.2-0.4,1.9-0.4
		c0.5,0,1,0.1,1.4,0.3c0.4,0.2,0.8,0.4,1.1,0.7c0.3,0.3,0.6,0.6,0.8,0.9c0.1,0.2,0.1,0.3,0.1,0.4c0,0.1-0.1,0.3-0.3,0.3
		c-0.1,0.1-0.3,0.1-0.4,0s-0.3-0.1-0.3-0.3c-0.1-0.2-0.3-0.4-0.5-0.6c-0.2-0.2-0.5-0.4-0.8-0.5c-0.3-0.1-0.7-0.2-1.1-0.2
		c-0.8,0-1.4,0.2-1.8,0.5c-0.5,0.3-0.7,0.8-0.7,1.4c0,0.3,0.1,0.6,0.3,0.9c0.2,0.3,0.5,0.5,0.9,0.7c0.4,0.2,0.9,0.3,1.6,0.4
		c1.2,0.2,2.1,0.5,2.7,1.1s0.9,1.3,0.9,2.2c0,0.5-0.1,1-0.3,1.4c-0.2,0.4-0.4,0.7-0.8,1c-0.3,0.3-0.7,0.5-1.2,0.6
		C81.6,108.4,81.1,108.5,80.6,108.5z"/>
	<path d="M87.2,108.3c-0.2,0-0.3-0.1-0.4-0.2c-0.1-0.1-0.2-0.2-0.2-0.4V97.7c0-0.2,0.1-0.3,0.2-0.4s0.2-0.2,0.4-0.2
		c0.2,0,0.3,0.1,0.4,0.2s0.2,0.2,0.2,0.4v9.6h5.6c0.2,0,0.3,0,0.4,0.2c0.1,0.1,0.2,0.2,0.2,0.4c0,0.2-0.1,0.3-0.2,0.4
		s-0.2,0.2-0.4,0.2H87.2z"/>
	<path d="M100,108.3c-0.2,0-0.3-0.1-0.4-0.2c-0.1-0.1-0.2-0.2-0.2-0.4c0-0.1,0.1-0.3,0.2-0.4l4.3-5.1c0.2-0.3,0.4-0.5,0.6-0.9
		c0.1-0.3,0.2-0.6,0.2-0.9c0-0.4-0.1-0.8-0.3-1.2c-0.2-0.3-0.4-0.6-0.7-0.8c-0.3-0.2-0.7-0.3-1.1-0.3c-0.4,0-0.8,0.1-1.1,0.3
		c-0.3,0.2-0.6,0.5-0.8,0.8s-0.3,0.7-0.3,1.2c0,0.2-0.1,0.3-0.2,0.4c-0.1,0.1-0.2,0.2-0.4,0.2c-0.2,0-0.3-0.1-0.4-0.2
		c-0.1-0.1-0.2-0.2-0.2-0.4c0-0.6,0.1-1.2,0.4-1.7c0.3-0.5,0.7-0.9,1.2-1.2s1-0.4,1.7-0.4s1.2,0.1,1.7,0.4c0.5,0.3,0.9,0.7,1.1,1.2
		c0.3,0.5,0.4,1.1,0.4,1.7c0,0.3,0,0.6-0.2,0.9c-0.1,0.3-0.2,0.6-0.4,0.8s-0.4,0.5-0.6,0.7l-3.7,4.3h4.5c0.2,0,0.3,0.1,0.4,0.2
		s0.2,0.2,0.2,0.4c0,0.2-0.1,0.3-0.2,0.4c-0.1,0.1-0.2,0.2-0.4,0.2H100z"/>
</g>
<line class="st1" x1="45.8" y1="14.5" x2="45.8" y2="65.8"/>
<line class="st2" x1="45.8" y1="71.7" x2="45.8" y2="143.4"/>
<rect x="119.8" y="18.6" class="st3" width="553.7" height="15.8"/>
<rect x="119.8" y="44.6" class="st4" width="293.6" height="15.8"/>
<rect x="119.8" y="95.3" class="st5" width="14.3" height="15.8"/>
<g>
	<path class="st6" d="M124.1,30.4c-0.6,0-1.1-0.1-1.5-0.4s-0.8-0.6-1-1c-0.3-0.4-0.4-0.9-0.4-1.4c0-0.1,0-0.3,0.1-0.3
		c0.1-0.1,0.2-0.1,0.3-0.1c0.1,0,0.2,0,0.3,0.1c0.1,0.1,0.1,0.2,0.1,0.3c0,0.4,0.1,0.7,0.3,1c0.2,0.3,0.4,0.5,0.7,0.7
		c0.3,0.2,0.6,0.3,1,0.3c0.6,0,1.1-0.2,1.5-0.5c0.4-0.3,0.5-0.8,0.5-1.3c0-0.4-0.1-0.7-0.3-1c-0.2-0.3-0.4-0.5-0.7-0.7
		c-0.3-0.2-0.6-0.2-1-0.2c-0.1,0-0.2,0-0.3-0.1c-0.1-0.1-0.1-0.2-0.1-0.3c0-0.1,0-0.2,0.1-0.3c0.1-0.1,0.2-0.1,0.3-0.1
		c0.3,0,0.5-0.1,0.8-0.2c0.2-0.1,0.4-0.3,0.6-0.6c0.1-0.2,0.2-0.5,0.2-0.8c0-0.4-0.1-0.8-0.4-1.1c-0.3-0.3-0.7-0.4-1.1-0.4
		c-0.3,0-0.6,0.1-0.9,0.2c-0.3,0.1-0.5,0.3-0.6,0.5c-0.1,0.2-0.2,0.5-0.2,0.7c0,0.1,0,0.2-0.1,0.3c-0.1,0.1-0.2,0.1-0.3,0.1
		c-0.1,0-0.2,0-0.3-0.1s-0.1-0.2-0.1-0.3c0-0.4,0.1-0.8,0.3-1.2s0.5-0.6,0.9-0.8c0.4-0.2,0.8-0.3,1.3-0.3c0.5,0,0.9,0.1,1.2,0.3
		c0.4,0.2,0.7,0.5,0.9,0.8c0.2,0.4,0.3,0.8,0.3,1.2c0,0.3-0.1,0.5-0.2,0.8c-0.1,0.3-0.3,0.5-0.5,0.7c-0.2,0.2-0.4,0.4-0.7,0.5
		c0.4,0.1,0.7,0.3,1,0.5c0.3,0.2,0.5,0.5,0.6,0.9c0.1,0.3,0.2,0.7,0.2,1c0,0.5-0.1,1-0.4,1.4s-0.6,0.7-1,1
		C125.1,30.3,124.6,30.4,124.1,30.4z"/>
	<path class="st6" d="M129,30.4c-0.1,0-0.3,0-0.3-0.1s-0.1-0.2-0.1-0.3v-5.6c0-0.1,0-0.2,0.1-0.3s0.2-0.1,0.3-0.1
		c0.1,0,0.2,0,0.3,0.1s0.1,0.2,0.1,0.3v5.6c0,0.1,0,0.2-0.1,0.3S129.2,30.4,129,30.4z M133.2,30.4c-0.1,0-0.2,0-0.3-0.1
		s-0.1-0.2-0.1-0.3v-3.4c0-0.6-0.1-1-0.4-1.3c-0.3-0.3-0.7-0.5-1.1-0.5c-0.5,0-0.9,0.2-1.2,0.5c-0.3,0.3-0.5,0.7-0.5,1.3h-0.7
		c0-0.5,0.1-1,0.3-1.4c0.2-0.4,0.5-0.7,0.9-0.9c0.4-0.2,0.8-0.3,1.2-0.3c0.5,0,0.9,0.1,1.2,0.3c0.4,0.2,0.6,0.5,0.8,0.9
		c0.2,0.4,0.3,0.9,0.3,1.4v3.4c0,0.1,0,0.2-0.1,0.3C133.5,30.3,133.3,30.4,133.2,30.4z M137.4,30.4c-0.1,0-0.2,0-0.3-0.1
		c-0.1-0.1-0.1-0.2-0.1-0.3v-3.4c0-0.6-0.1-1-0.4-1.3c-0.3-0.3-0.7-0.5-1.1-0.5c-0.5,0-0.9,0.2-1.2,0.5c-0.3,0.3-0.5,0.8-0.5,1.3
		h-0.8c0-0.5,0.1-1,0.3-1.4s0.5-0.7,0.9-0.9s0.8-0.3,1.3-0.3c0.5,0,0.9,0.1,1.2,0.3s0.6,0.5,0.8,0.9c0.2,0.4,0.3,0.9,0.3,1.4v3.4
		c0,0.1,0,0.2-0.1,0.3S137.5,30.4,137.4,30.4z"/>
	<path class="st6" d="M142.6,30.4c-0.6,0-1.1-0.1-1.5-0.4c-0.5-0.3-0.8-0.6-1.1-1.1s-0.4-1-0.4-1.5c0-0.1,0-0.2,0.1-0.3
		c0.1-0.1,0.2-0.1,0.3-0.1c0.1,0,0.2,0,0.3,0.1c0.1,0.1,0.1,0.2,0.1,0.3c0,0.4,0.1,0.8,0.3,1.1s0.4,0.6,0.7,0.8
		c0.3,0.2,0.7,0.3,1.1,0.3s0.8-0.1,1.1-0.3c0.3-0.2,0.6-0.4,0.8-0.8s0.3-0.7,0.3-1.1c0-0.4-0.1-0.8-0.3-1.1
		c-0.2-0.3-0.4-0.6-0.8-0.8c-0.3-0.2-0.7-0.3-1.1-0.3h-2.1c-0.1,0-0.2,0-0.3-0.1c-0.1-0.1-0.1-0.2-0.1-0.3v-3.3c0-0.1,0-0.2,0.1-0.3
		c0.1-0.1,0.2-0.1,0.3-0.1h4.2c0.1,0,0.2,0,0.3,0.1c0.1,0.1,0.1,0.2,0.1,0.3s0,0.2-0.1,0.3c-0.1,0.1-0.2,0.1-0.3,0.1h-3.7v2.3h1.6
		c0.6,0,1.1,0.1,1.6,0.4c0.5,0.3,0.8,0.6,1.1,1.1s0.4,1,0.4,1.5s-0.1,1.1-0.4,1.5s-0.6,0.8-1.1,1.1
		C143.7,30.2,143.2,30.4,142.6,30.4z"/>
	<path class="st6" d="M147.6,30.4c-0.1,0-0.2,0-0.3-0.1c-0.1-0.1-0.1-0.2-0.1-0.3c0-0.1,0-0.2,0.1-0.3l3.6-4.3
		c0.2-0.2,0.4-0.5,0.5-0.7c0.1-0.3,0.2-0.5,0.2-0.7c0-0.4-0.1-0.7-0.2-1c-0.1-0.3-0.4-0.5-0.6-0.7c-0.3-0.2-0.6-0.2-0.9-0.2
		c-0.3,0-0.6,0.1-0.9,0.3c-0.3,0.2-0.5,0.4-0.6,0.7c-0.2,0.3-0.2,0.6-0.2,1c0,0.1,0,0.2-0.1,0.3c-0.1,0.1-0.2,0.1-0.3,0.1
		c-0.1,0-0.2,0-0.3-0.1c-0.1-0.1-0.1-0.2-0.1-0.3c0-0.5,0.1-1,0.4-1.4c0.2-0.4,0.6-0.8,1-1c0.4-0.2,0.9-0.4,1.4-0.4s1,0.1,1.4,0.4
		c0.4,0.2,0.7,0.6,0.9,1c0.2,0.4,0.3,0.9,0.3,1.5c0,0.3,0,0.5-0.1,0.8c-0.1,0.2-0.2,0.5-0.3,0.7c-0.1,0.2-0.3,0.4-0.5,0.6l-3.1,3.5
		h3.7c0.1,0,0.2,0,0.3,0.1c0.1,0.1,0.1,0.2,0.1,0.3c0,0.1,0,0.2-0.1,0.3c-0.1,0.1-0.2,0.1-0.3,0.1H147.6z"/>
	<path class="st6" d="M156.6,30.4c-0.5,0-0.9-0.1-1.4-0.2c-0.5-0.2-0.8-0.4-1.1-0.7c-0.1-0.1-0.1-0.2-0.1-0.3c0-0.1,0.1-0.2,0.2-0.3
		c0.1-0.1,0.2-0.1,0.3-0.1c0.1,0,0.2,0.1,0.3,0.2c0.2,0.2,0.4,0.4,0.8,0.5c0.3,0.1,0.7,0.2,1,0.2c0.6,0,1-0.1,1.3-0.3
		c0.3-0.2,0.4-0.4,0.4-0.7c0-0.3-0.1-0.5-0.4-0.7s-0.7-0.3-1.3-0.4c-0.8-0.1-1.4-0.4-1.8-0.7c-0.4-0.3-0.6-0.7-0.6-1.1
		c0-0.4,0.1-0.7,0.3-1c0.2-0.3,0.5-0.5,0.9-0.6c0.4-0.1,0.8-0.2,1.2-0.2c0.5,0,1,0.1,1.4,0.3c0.4,0.2,0.7,0.4,0.9,0.7
		c0.1,0.1,0.1,0.2,0.1,0.3c0,0.1-0.1,0.2-0.2,0.3c-0.1,0.1-0.2,0.1-0.3,0.1c-0.1,0-0.2-0.1-0.3-0.2c-0.2-0.2-0.4-0.4-0.7-0.5
		c-0.3-0.1-0.6-0.2-0.9-0.2c-0.4,0-0.8,0.1-1.1,0.3c-0.3,0.2-0.4,0.4-0.4,0.7c0,0.2,0,0.3,0.1,0.5s0.3,0.3,0.5,0.4s0.6,0.2,1,0.3
		c0.6,0.1,1.1,0.2,1.4,0.4c0.3,0.2,0.6,0.4,0.7,0.7c0.1,0.3,0.2,0.5,0.2,0.8c0,0.4-0.1,0.7-0.3,1c-0.2,0.3-0.5,0.5-0.9,0.7
		C157.5,30.4,157.1,30.4,156.6,30.4z"/>
</g>
<g>
	<path class="st6" d="M122,56.6c-0.1,0-0.2,0-0.3-0.1c-0.1-0.1-0.1-0.2-0.1-0.3c0-0.1,0-0.2,0.1-0.3l3.6-4.3
		c0.2-0.2,0.4-0.5,0.5-0.7c0.1-0.3,0.2-0.5,0.2-0.7c0-0.4-0.1-0.7-0.2-1c-0.1-0.3-0.4-0.5-0.6-0.7c-0.3-0.2-0.6-0.2-0.9-0.2
		c-0.3,0-0.6,0.1-0.9,0.3c-0.3,0.2-0.5,0.4-0.6,0.7c-0.2,0.3-0.2,0.6-0.2,1c0,0.1,0,0.2-0.1,0.3c-0.1,0.1-0.2,0.1-0.3,0.1
		c-0.1,0-0.2,0-0.3-0.1c-0.1-0.1-0.1-0.2-0.1-0.3c0-0.5,0.1-1,0.4-1.4c0.2-0.4,0.6-0.8,1-1c0.4-0.2,0.9-0.4,1.4-0.4s1,0.1,1.4,0.4
		c0.4,0.2,0.7,0.6,0.9,1c0.2,0.4,0.3,0.9,0.3,1.5c0,0.3,0,0.5-0.1,0.8c-0.1,0.2-0.2,0.5-0.3,0.7c-0.1,0.2-0.3,0.4-0.5,0.6l-3.1,3.5
		h3.7c0.1,0,0.2,0,0.3,0.1c0.1,0.1,0.1,0.2,0.1,0.3c0,0.1,0,0.2-0.1,0.3c-0.1,0.1-0.2,0.1-0.3,0.1H122z"/>
	<path class="st6" d="M129.1,56.6c-0.1,0-0.3,0-0.3-0.1s-0.1-0.2-0.1-0.3v-5.6c0-0.1,0-0.2,0.1-0.3s0.2-0.1,0.3-0.1
		c0.1,0,0.2,0,0.3,0.1s0.1,0.2,0.1,0.3v5.6c0,0.1,0,0.2-0.1,0.3S129.3,56.6,129.1,56.6z M133.3,56.6c-0.1,0-0.2,0-0.3-0.1
		s-0.1-0.2-0.1-0.3v-3.4c0-0.6-0.1-1-0.4-1.3c-0.3-0.3-0.7-0.5-1.1-0.5c-0.5,0-0.9,0.2-1.2,0.5c-0.3,0.3-0.5,0.7-0.5,1.3h-0.7
		c0-0.5,0.1-1,0.3-1.4c0.2-0.4,0.5-0.7,0.9-0.9c0.4-0.2,0.8-0.3,1.2-0.3c0.5,0,0.9,0.1,1.2,0.3c0.4,0.2,0.6,0.5,0.8,0.9
		c0.2,0.4,0.3,0.9,0.3,1.4v3.4c0,0.1,0,0.2-0.1,0.3C133.6,56.6,133.5,56.6,133.3,56.6z M137.5,56.6c-0.1,0-0.2,0-0.3-0.1
		c-0.1-0.1-0.1-0.2-0.1-0.3v-3.4c0-0.6-0.1-1-0.4-1.3c-0.3-0.3-0.7-0.5-1.1-0.5c-0.5,0-0.9,0.2-1.2,0.5c-0.3,0.3-0.5,0.8-0.5,1.3
		H133c0-0.5,0.1-1,0.3-1.4s0.5-0.7,0.9-0.9s0.8-0.3,1.3-0.3c0.5,0,0.9,0.1,1.2,0.3s0.6,0.5,0.8,0.9c0.2,0.4,0.3,0.9,0.3,1.4v3.4
		c0,0.1,0,0.2-0.1,0.3S137.6,56.6,137.5,56.6z"/>
	<path class="st6" d="M142.5,56.7c-0.6,0-1.1-0.1-1.5-0.4s-0.8-0.6-1-1c-0.3-0.4-0.4-0.9-0.4-1.4c0-0.1,0-0.3,0.1-0.3
		c0.1-0.1,0.2-0.1,0.3-0.1c0.1,0,0.2,0,0.3,0.1c0.1,0.1,0.1,0.2,0.1,0.3c0,0.4,0.1,0.7,0.3,1c0.2,0.3,0.4,0.5,0.7,0.7
		c0.3,0.2,0.6,0.3,1,0.3c0.6,0,1.1-0.2,1.5-0.5c0.4-0.3,0.5-0.8,0.5-1.3c0-0.4-0.1-0.7-0.3-1c-0.2-0.3-0.4-0.5-0.7-0.7
		c-0.3-0.2-0.6-0.2-1-0.2c-0.1,0-0.2,0-0.3-0.1c-0.1-0.1-0.1-0.2-0.1-0.3c0-0.1,0-0.2,0.1-0.3c0.1-0.1,0.2-0.1,0.3-0.1
		c0.3,0,0.5-0.1,0.8-0.2c0.2-0.1,0.4-0.3,0.6-0.6c0.1-0.2,0.2-0.5,0.2-0.8c0-0.4-0.1-0.8-0.4-1.1c-0.3-0.3-0.7-0.4-1.1-0.4
		c-0.3,0-0.6,0.1-0.9,0.2c-0.3,0.1-0.5,0.3-0.6,0.5c-0.1,0.2-0.2,0.5-0.2,0.7c0,0.1,0,0.2-0.1,0.3c-0.1,0.1-0.2,0.1-0.3,0.1
		c-0.1,0-0.2,0-0.3-0.1s-0.1-0.2-0.1-0.3c0-0.4,0.1-0.8,0.3-1.2s0.5-0.6,0.9-0.8c0.4-0.2,0.8-0.3,1.3-0.3c0.5,0,0.9,0.1,1.2,0.3
		c0.4,0.2,0.7,0.5,0.9,0.8c0.2,0.4,0.3,0.8,0.3,1.2c0,0.3-0.1,0.5-0.2,0.8c-0.1,0.3-0.3,0.5-0.5,0.7c-0.2,0.2-0.4,0.4-0.7,0.5
		c0.4,0.1,0.7,0.3,1,0.5c0.3,0.2,0.5,0.5,0.6,0.9c0.1,0.3,0.2,0.7,0.2,1c0,0.5-0.1,1-0.4,1.4s-0.6,0.7-1,1
		C143.5,56.6,143,56.7,142.5,56.7z"/>
	<path class="st6" d="M149.2,56.7c-0.5,0-0.9-0.1-1.4-0.2c-0.5-0.2-0.8-0.4-1.1-0.7c-0.1-0.1-0.1-0.2-0.1-0.3c0-0.1,0.1-0.2,0.2-0.3
		c0.1-0.1,0.2-0.1,0.3-0.1c0.1,0,0.2,0.1,0.3,0.2c0.2,0.2,0.4,0.4,0.8,0.5c0.3,0.1,0.7,0.2,1,0.2c0.6,0,1-0.1,1.3-0.3
		c0.3-0.2,0.4-0.4,0.4-0.7c0-0.3-0.1-0.5-0.4-0.7s-0.7-0.3-1.3-0.4c-0.8-0.1-1.4-0.4-1.8-0.7c-0.4-0.3-0.6-0.7-0.6-1.1
		c0-0.4,0.1-0.7,0.3-1c0.2-0.3,0.5-0.5,0.9-0.6c0.4-0.1,0.8-0.2,1.2-0.2c0.5,0,1,0.1,1.4,0.3c0.4,0.2,0.7,0.4,0.9,0.7
		c0.1,0.1,0.1,0.2,0.1,0.3c0,0.1-0.1,0.2-0.2,0.3c-0.1,0.1-0.2,0.1-0.3,0.1c-0.1,0-0.2-0.1-0.3-0.2c-0.2-0.2-0.4-0.4-0.7-0.5
		c-0.3-0.1-0.6-0.2-0.9-0.2c-0.4,0-0.8,0.1-1.1,0.3c-0.3,0.2-0.4,0.4-0.4,0.7c0,0.2,0,0.3,0.1,0.5s0.3,0.3,0.5,0.4s0.6,0.2,1,0.3
		c0.6,0.1,1.1,0.2,1.4,0.4c0.3,0.2,0.6,0.4,0.7,0.7c0.1,0.3,0.2,0.5,0.2,0.8c0,0.4-0.1,0.7-0.3,1c-0.2,0.3-0.5,0.5-0.9,0.7
		C150.2,56.6,149.7,56.7,149.2,56.7z"/>
</g>
<g>
	<path class="st6" d="M123.8,106.8c-0.6,0-1.1-0.1-1.5-0.4s-0.8-0.6-1.1-1.1c-0.3-0.5-0.4-1-0.4-1.5c0-0.1,0-0.2,0.1-0.3
		c0.1-0.1,0.2-0.1,0.3-0.1c0.1,0,0.2,0,0.3,0.1c0.1,0.1,0.1,0.2,0.1,0.3c0,0.4,0.1,0.8,0.3,1.1s0.4,0.6,0.7,0.8
		c0.3,0.2,0.7,0.3,1.1,0.3s0.8-0.1,1.1-0.3c0.3-0.2,0.6-0.4,0.8-0.8s0.3-0.7,0.3-1.1c0-0.4-0.1-0.8-0.3-1.1
		c-0.2-0.3-0.4-0.6-0.8-0.8c-0.3-0.2-0.7-0.3-1.1-0.3h-2.1c-0.1,0-0.2,0-0.3-0.1c-0.1-0.1-0.1-0.2-0.1-0.3v-3.3c0-0.1,0-0.2,0.1-0.3
		c0.1-0.1,0.2-0.1,0.3-0.1h4.2c0.1,0,0.2,0,0.3,0.1c0.1,0.1,0.1,0.2,0.1,0.3c0,0.1,0,0.2-0.1,0.3c-0.1,0.1-0.2,0.1-0.3,0.1h-3.7v2.3
		h1.6c0.6,0,1.1,0.1,1.6,0.4c0.5,0.3,0.8,0.6,1.1,1.1c0.3,0.5,0.4,1,0.4,1.5c0,0.6-0.1,1.1-0.4,1.5c-0.3,0.5-0.6,0.8-1.1,1.1
		C124.9,106.6,124.4,106.8,123.8,106.8z"/>
	<path class="st6" d="M130.8,106.8c-0.5,0-0.9-0.1-1.4-0.2s-0.8-0.4-1.1-0.7c-0.1-0.1-0.1-0.2-0.1-0.3c0-0.1,0.1-0.2,0.2-0.3
		c0.1-0.1,0.2-0.1,0.3-0.1c0.1,0,0.2,0.1,0.3,0.2c0.2,0.2,0.4,0.4,0.8,0.5c0.3,0.1,0.7,0.2,1,0.2c0.6,0,1-0.1,1.3-0.3
		s0.4-0.4,0.4-0.7c0-0.3-0.1-0.5-0.4-0.7c-0.3-0.2-0.7-0.3-1.3-0.4c-0.8-0.1-1.4-0.3-1.8-0.7s-0.6-0.7-0.6-1.1c0-0.4,0.1-0.7,0.3-1
		c0.2-0.3,0.5-0.5,0.9-0.6c0.4-0.1,0.8-0.2,1.2-0.2c0.5,0,1,0.1,1.4,0.3c0.4,0.2,0.7,0.4,0.9,0.7c0.1,0.1,0.1,0.2,0.1,0.3
		c0,0.1-0.1,0.2-0.2,0.3c-0.1,0.1-0.2,0.1-0.3,0.1c-0.1,0-0.2-0.1-0.3-0.2c-0.2-0.2-0.4-0.4-0.7-0.5c-0.3-0.1-0.6-0.2-0.9-0.2
		c-0.4,0-0.8,0.1-1.1,0.3c-0.3,0.2-0.4,0.4-0.4,0.7c0,0.2,0,0.3,0.1,0.5c0.1,0.1,0.3,0.3,0.5,0.4c0.2,0.1,0.6,0.2,1,0.3
		c0.6,0.1,1.1,0.2,1.4,0.4c0.3,0.2,0.6,0.4,0.7,0.7c0.1,0.3,0.2,0.5,0.2,0.8c0,0.4-0.1,0.7-0.3,1c-0.2,0.3-0.5,0.5-0.9,0.7
		C131.8,106.7,131.3,106.8,130.8,106.8z"/>
</g>
</svg>
