<?xml version="1.0" encoding="utf-8"?>
<!-- Generator: Adobe Illustrator 21.0.0, SVG Export Plug-In . SVG Version: 6.00 Build 0)  -->
<svg version="1.1" xmlns="http://www.w3.org/2000/svg" xmlns:xlink="http://www.w3.org/1999/xlink" x="0px" y="0px"
	 viewBox="0 0 1400 400" style="enable-background:new 0 0 1400 400;" xml:space="preserve">
<style type="text/css">
	.st0{fill:#854228;}
	.st1{fill:#63311E;}
	.st2{fill:#592C1B;}
	.st3{fill:url(#SVGID_1_);}
	.st4{fill:url(#SVGID_2_);}
	.st5{fill:url(#SVGID_3_);}
	.st6{fill:url(#SVGID_4_);}
	.st7{fill:url(#SVGID_5_);}
	.st8{fill:url(#SVGID_6_);}
	.st9{fill:url(#SVGID_7_);}
	.st10{fill:url(#SVGID_8_);}
	.st11{fill:url(#SVGID_9_);}
	.st12{fill:url(#SVGID_10_);}
	.st13{fill:url(#SVGID_11_);}
	.st14{fill:url(#SVGID_12_);}
	.st15{fill:url(#SVGID_13_);}
	.st16{fill:url(#SVGID_14_);}
	.st17{fill:url(#SVGID_15_);}
	.st18{fill:url(#SVGID_16_);}
	.st19{fill:url(#SVGID_17_);}
	.st20{fill:url(#SVGID_18_);}
	.st21{fill:url(#SVGID_19_);}
	.st22{fill:url(#SVGID_20_);}
	.st23{fill:url(#SVGID_21_);}
	.st24{fill:url(#SVGID_22_);}
	.st25{fill:url(#SVGID_23_);}
	.st26{fill:url(#SVGID_24_);}
	.st27{fill:url(#SVGID_25_);}
	.st28{fill:url(#SVGID_26_);}
	.st29{fill:url(#SVGID_27_);}
	.st30{fill:url(#SVGID_28_);}
	.st31{fill:url(#SVGID_29_);}
	.st32{fill:url(#SVGID_30_);}
	.st33{fill:url(#SVGID_31_);}
	.st34{fill:url(#SVGID_32_);}
	.st35{fill:url(#SVGID_33_);}
	.st36{fill:url(#SVGID_34_);}
	.st37{fill:url(#SVGID_35_);}
	.st38{fill:url(#SVGID_36_);}
	.st39{fill:url(#SVGID_37_);}
	.st40{fill:url(#SVGID_38_);}
	.st41{fill:url(#SVGID_39_);}
	.st42{fill:url(#SVGID_40_);}
	.st43{fill:url(#SVGID_41_);}
	.st44{fill:url(#SVGID_42_);}
	.st45{fill:url(#SVGID_43_);}
	.st46{fill:url(#SVGID_44_);}
	.st47{fill:url(#SVGID_45_);}
	.st48{fill:url(#SVGID_46_);}
	.st49{fill:url(#SVGID_47_);}
	.st50{fill:url(#SVGID_48_);}
	.st51{filter:url(#Adobe_OpacityMaskFilter);}
	.st52{opacity:0.8;mask:url(#SVGID_49_);fill:#2D1505;}
	.st53{fill:#00ADEF;}
	.st54{fill:#020204;}
	.st55{fill:#FDFDFB;}
	.st56{opacity:0.2588;}
	.st57{opacity:0.3;enable-background:new    ;}
	.st58{fill:url(#path28795-9-5_1_);}
	.st59{fill:url(#path28795-3_1_);}
	.st60{fill:url(#path28849-2_1_);}
	.st61{fill:#7C7C7C;}
	.st62{fill:#141413;}
	.st63{fill:url(#SVGID_50_);}
	.st64{clip-path:url(#SVGID_52_);fill:url(#path28972-5_1_);}
	.st65{fill:url(#SVGID_53_);}
	.st66{fill:url(#SVGID_54_);}
	.st67{fill:url(#SVGID_55_);}
	.st68{fill:url(#path28461-2_1_);}
	.st69{fill:#D9B30D;}
	.st70{fill:#604405;}
	.st71{fill:url(#path27476-4_1_);}
	.st72{fill:#F6DA4A;}
	.st73{opacity:0.8;enable-background:new    ;}
	.st74{fill:url(#SVGID_56_);}
	.st75{fill:url(#SVGID_57_);}
	.st76{fill:url(#SVGID_58_);}
	.st77{clip-path:url(#SVGID_60_);fill:url(#path29551-9_1_);}
	.st78{clip-path:url(#SVGID_62_);}
	.st79{fill:#838384;}
	.st80{opacity:0.25;enable-background:new    ;}
	.st81{fill:url(#SVGID_63_);}
	.st82{opacity:0.42;enable-background:new    ;}
	.st83{fill:url(#SVGID_64_);}
	.st84{opacity:0.2;enable-background:new    ;}
	.st85{fill:url(#SVGID_65_);}
	.st86{opacity:0.11;enable-background:new    ;}
	.st87{fill:url(#SVGID_66_);}
	.st88{clip-path:url(#SVGID_68_);fill:url(#path14296-0_1_);}
	.st89{clip-path:url(#SVGID_70_);}
	.st90{fill:#CD8907;}
	.st91{clip-path:url(#SVGID_72_);}
	.st92{fill:#F5C021;}
	.st93{fill:url(#SVGID_73_);}
	.st94{opacity:0.75;enable-background:new    ;}
	.st95{opacity:0.35;enable-background:new    ;}
	.st96{fill:url(#SVGID_74_);}
	.st97{fill:url(#SVGID_75_);}
	.st98{clip-path:url(#SVGID_77_);}
	.st99{fill:url(#SVGID_78_);}
	.st100{clip-path:url(#SVGID_80_);}
	.st101{fill:url(#SVGID_81_);}
	.st102{opacity:0.95;clip-path:url(#SVGID_83_);enable-background:new    ;}
	.st103{clip-path:url(#SVGID_85_);}
	.st104{fill:url(#path4635-1_1_);}
	.st105{fill:#D99A03;}
	.st106{fill:#F5BD0C;}
	.st107{fill:url(#SVGID_86_);}
	.st108{fill:#0091E2;}
	.st109{fill:#FFFFFF;}
</style>
<g id="Calque_3">
	<g>
		<g>
			<polygon class="st0" points="129.3,302.3 129.5,367.3 43.3,367.3 43.2,302.3 			"/>
			<polygon class="st1" points="-2.3,402.7 43.5,367.3 132.1,367.2 176.1,402.1 			"/>
			<polygon class="st2" points="176.2,402.1 132.1,367.2 131.9,302.2 175.1,267.2 			"/>
			
				<linearGradient id="SVGID_1_" gradientUnits="userSpaceOnUse" x1="1061.0394" y1="-524.5094" x2="1096.1517" y2="-524.5094" gradientTransform="matrix(-8.212369e-04 -1.0001 1.0001 -8.212369e-04 611.3998 1363.0464)">
				<stop  offset="0" style="stop-color:#B87656"/>
				<stop  offset="1" style="stop-color:#944F32"/>
			</linearGradient>
			<polygon class="st3" points="175.1,267.2 131.9,302.3 43.5,302.3 -3.2,267.4 			"/>
			<polygon class="st0" points="132,302.3 132.2,367.3 46,367.3 45.9,302.3 			"/>
			
				<linearGradient id="SVGID_2_" gradientUnits="userSpaceOnUse" x1="970.5112" y1="-579.4832" x2="1087.9921" y2="-609.9139" gradientTransform="matrix(-8.212369e-04 -1.0001 1.0001 -8.212369e-04 611.3998 1363.0464)">
				<stop  offset="0" style="stop-color:#944F32"/>
				<stop  offset="1" style="stop-color:#B87656"/>
			</linearGradient>
			<polygon class="st4" points="-3.2,267.3 43.4,302.2 43.5,367.1 -2.3,402.7 			"/>
		</g>
		<g>
			<polygon class="st0" points="307.7,302 307.8,366.8 221.6,366.8 221.5,302 			"/>
			<polygon class="st1" points="176,402.1 221.8,366.7 310.4,366.7 354.5,401.5 			"/>
			<polygon class="st2" points="354.5,401.5 310.4,366.7 310.2,301.9 353.4,267 			"/>
			
				<linearGradient id="SVGID_3_" gradientUnits="userSpaceOnUse" x1="1061.1898" y1="-346.1982" x2="1096.1849" y2="-346.1982" gradientTransform="matrix(-8.212369e-04 -1.0001 1.0001 -8.212369e-04 611.3998 1363.0464)">
				<stop  offset="0" style="stop-color:#B87656"/>
				<stop  offset="1" style="stop-color:#944F32"/>
			</linearGradient>
			<polygon class="st5" points="353.4,267 310.3,302 221.9,302 175.1,267.2 			"/>
			<polygon class="st0" points="310.4,302 310.5,366.8 224.3,366.8 224.2,302 			"/>
			
				<linearGradient id="SVGID_4_" gradientUnits="userSpaceOnUse" x1="970.9818" y1="-401.2119" x2="1088.0715" y2="-431.5413" gradientTransform="matrix(-8.212369e-04 -1.0001 1.0001 -8.212369e-04 611.3998 1363.0464)">
				<stop  offset="0" style="stop-color:#944F32"/>
				<stop  offset="1" style="stop-color:#B87656"/>
			</linearGradient>
			<polygon class="st6" points="175.1,267.1 221.7,301.9 221.8,366.6 176.1,402.1 			"/>
		</g>
		<g>
			<polygon class="st0" points="478.8,301.6 479,366.2 392.8,366.2 392.7,301.6 			"/>
			<polygon class="st1" points="347.2,401.4 393,366.2 481.6,366.1 525.6,400.8 			"/>
			<polygon class="st2" points="525.7,400.8 481.6,366.1 481.4,301.6 524.6,266.8 			"/>
			
				<linearGradient id="SVGID_5_" gradientUnits="userSpaceOnUse" x1="1061.4034" y1="-175.0423" x2="1096.2814" y2="-175.0423" gradientTransform="matrix(-8.212369e-04 -1.0001 1.0001 -8.212369e-04 611.3998 1363.0464)">
				<stop  offset="0" style="stop-color:#B87656"/>
				<stop  offset="1" style="stop-color:#944F32"/>
			</linearGradient>
			<polygon class="st7" points="524.6,266.8 481.4,301.7 393,301.7 346.3,266.9 			"/>
			<polygon class="st0" points="481.5,301.6 481.7,366.2 395.5,366.2 395.4,301.6 			"/>
			
				<linearGradient id="SVGID_6_" gradientUnits="userSpaceOnUse" x1="971.5165" y1="-230.0964" x2="1088.2152" y2="-260.3245" gradientTransform="matrix(-8.212369e-04 -1.0001 1.0001 -8.212369e-04 611.3998 1363.0464)">
				<stop  offset="0" style="stop-color:#944F32"/>
				<stop  offset="1" style="stop-color:#B87656"/>
			</linearGradient>
			<polygon class="st8" points="346.3,266.9 392.9,301.6 393,366 347.2,401.4 			"/>
		</g>
		<g>
			<polygon class="st0" points="657.2,301.4 657.3,366 571.1,366 571,301.4 			"/>
			<polygon class="st1" points="525.5,401.2 571.3,366 659.9,366 703.9,400.6 			"/>
			<polygon class="st2" points="704,400.6 659.9,366 659.7,301.4 702.9,266.6 			"/>
			
				<linearGradient id="SVGID_7_" gradientUnits="userSpaceOnUse" x1="1061.4366" y1="3.2691" x2="1096.3146" y2="3.2691" gradientTransform="matrix(-8.212369e-04 -1.0001 1.0001 -8.212369e-04 611.3998 1363.0464)">
				<stop  offset="0" style="stop-color:#B87656"/>
				<stop  offset="1" style="stop-color:#944F32"/>
			</linearGradient>
			<polygon class="st9" points="702.9,266.6 659.8,301.5 571.4,301.5 524.6,266.8 			"/>
			<polygon class="st0" points="659.9,301.4 660,366 573.8,366 573.7,301.4 			"/>
			
				<linearGradient id="SVGID_8_" gradientUnits="userSpaceOnUse" x1="971.5491" y1="-51.7848" x2="1088.248" y2="-82.013" gradientTransform="matrix(-8.212369e-04 -1.0001 1.0001 -8.212369e-04 611.3998 1363.0464)">
				<stop  offset="0" style="stop-color:#944F32"/>
				<stop  offset="1" style="stop-color:#B87656"/>
			</linearGradient>
			<polygon class="st10" points="524.6,266.7 571.2,301.4 571.3,365.9 525.6,401.2 			"/>
		</g>
		<g>
			<polygon class="st0" points="128.4,169.7 128.6,234.7 42.4,234.7 42.2,169.7 			"/>
			<polygon class="st1" points="-3.2,270.1 42.5,234.7 131.2,234.6 175.2,269.5 			"/>
			<polygon class="st2" points="175.3,269.5 131.2,234.6 131,169.6 174.2,134.6 			"/>
			
				<linearGradient id="SVGID_9_" gradientUnits="userSpaceOnUse" x1="1193.6146" y1="-525.3251" x2="1228.7269" y2="-525.3251" gradientTransform="matrix(-8.212369e-04 -1.0001 1.0001 -8.212369e-04 611.3998 1363.0464)">
				<stop  offset="0" style="stop-color:#B87656"/>
				<stop  offset="1" style="stop-color:#944F32"/>
			</linearGradient>
			<polygon class="st11" points="174.2,134.6 131,169.7 42.6,169.7 -4.1,134.8 			"/>
			<polygon class="st0" points="131.1,169.7 131.3,234.7 45.1,234.7 44.9,169.7 			"/>
			
				<linearGradient id="SVGID_10_" gradientUnits="userSpaceOnUse" x1="1325.6058" y1="-512.4928" x2="1495.7432" y2="-485.1228" gradientTransform="matrix(-0.4021 -0.9156 0.9156 -0.4021 1040.3462 1298.7109)">
				<stop  offset="0" style="stop-color:#944F32"/>
				<stop  offset="1" style="stop-color:#B87656"/>
			</linearGradient>
			<polygon class="st12" points="-4.1,134.7 42.5,169.6 42.6,234.5 -3.2,270.2 			"/>
		</g>
		<g>
			<polygon class="st0" points="306.7,169.4 306.9,234.2 220.7,234.2 220.6,169.4 			"/>
			<polygon class="st1" points="175.1,269.5 220.9,234.2 309.5,234.1 353.5,268.9 			"/>
			<polygon class="st2" points="353.6,268.9 309.5,234.1 309.3,169.4 352.5,134.4 			"/>
			
				<linearGradient id="SVGID_11_" gradientUnits="userSpaceOnUse" x1="1193.7648" y1="-347.014" x2="1228.7603" y2="-347.014" gradientTransform="matrix(-8.212369e-04 -1.0001 1.0001 -8.212369e-04 611.3998 1363.0464)">
				<stop  offset="0" style="stop-color:#B87656"/>
				<stop  offset="1" style="stop-color:#944F32"/>
			</linearGradient>
			<polygon class="st13" points="352.5,134.4 309.3,169.4 220.9,169.4 174.2,134.6 			"/>
			<polygon class="st0" points="309.4,169.4 309.6,234.2 223.4,234.2 223.3,169.4 			"/>
			
				<linearGradient id="SVGID_12_" gradientUnits="userSpaceOnUse" x1="1103.5569" y1="-402.0275" x2="1220.6469" y2="-432.357" gradientTransform="matrix(-8.212369e-04 -1.0001 1.0001 -8.212369e-04 611.3998 1363.0464)">
				<stop  offset="0" style="stop-color:#944F32"/>
				<stop  offset="1" style="stop-color:#B87656"/>
			</linearGradient>
			<polygon class="st14" points="174.2,134.5 220.8,169.3 220.9,234 175.1,269.5 			"/>
		</g>
		<g>
			<polygon class="st0" points="477.9,169 478.1,233.6 391.9,233.6 391.7,169 			"/>
			<polygon class="st1" points="346.3,268.8 392,233.6 480.7,233.5 524.7,268.2 			"/>
			<polygon class="st2" points="524.8,268.2 480.7,233.5 480.5,169 523.7,134.2 			"/>
			
				<linearGradient id="SVGID_13_" gradientUnits="userSpaceOnUse" x1="1193.9785" y1="-175.8582" x2="1228.8567" y2="-175.8582" gradientTransform="matrix(-8.212369e-04 -1.0001 1.0001 -8.212369e-04 611.3998 1363.0464)">
				<stop  offset="0" style="stop-color:#B87656"/>
				<stop  offset="1" style="stop-color:#944F32"/>
			</linearGradient>
			<polygon class="st15" points="523.7,134.2 480.5,169.1 392.1,169.1 345.4,134.4 			"/>
			<polygon class="st0" points="480.6,169 480.8,233.6 394.6,233.6 394.4,169 			"/>
			
				<linearGradient id="SVGID_14_" gradientUnits="userSpaceOnUse" x1="1104.0912" y1="-230.912" x2="1220.7903" y2="-261.1403" gradientTransform="matrix(-8.212369e-04 -1.0001 1.0001 -8.212369e-04 611.3998 1363.0464)">
				<stop  offset="0" style="stop-color:#944F32"/>
				<stop  offset="1" style="stop-color:#B87656"/>
			</linearGradient>
			<polygon class="st16" points="345.4,134.3 391.9,169 392.1,233.4 346.3,268.8 			"/>
		</g>
		<g>
			<polygon class="st0" points="656.2,168.9 656.4,233.4 570.2,233.4 570.1,168.8 			"/>
			<polygon class="st1" points="524.6,268.6 570.4,233.4 659,233.4 703,268 			"/>
			<polygon class="st2" points="703.1,268 659,233.4 658.8,168.8 702,134 			"/>
			
				<linearGradient id="SVGID_15_" gradientUnits="userSpaceOnUse" x1="1194.0117" y1="2.4534" x2="1228.8896" y2="2.4534" gradientTransform="matrix(-8.212369e-04 -1.0001 1.0001 -8.212369e-04 611.3998 1363.0464)">
				<stop  offset="0" style="stop-color:#B87656"/>
				<stop  offset="1" style="stop-color:#944F32"/>
			</linearGradient>
			<polygon class="st17" points="702,134 658.8,168.9 570.4,168.9 523.7,134.2 			"/>
			<polygon class="st0" points="658.9,168.9 659.1,233.4 572.9,233.4 572.8,168.8 			"/>
			
				<linearGradient id="SVGID_16_" gradientUnits="userSpaceOnUse" x1="1104.1244" y1="-52.6007" x2="1220.8232" y2="-82.8289" gradientTransform="matrix(-8.212369e-04 -1.0001 1.0001 -8.212369e-04 611.3998 1363.0464)">
				<stop  offset="0" style="stop-color:#944F32"/>
				<stop  offset="1" style="stop-color:#B87656"/>
			</linearGradient>
			<polygon class="st18" points="523.7,134.1 570.3,168.8 570.4,233.3 524.6,268.7 			"/>
		</g>
		<g>
			<polygon class="st0" points="127.8,36 128,101 41.8,101 41.6,35.9 			"/>
			<polygon class="st1" points="-3.8,136.4 41.9,100.9 130.6,100.9 174.6,135.8 			"/>
			<polygon class="st2" points="174.6,135.8 130.6,100.9 130.4,35.9 173.6,0.9 			"/>
			
				<linearGradient id="SVGID_17_" gradientUnits="userSpaceOnUse" x1="1327.3365" y1="-525.8243" x2="1362.4485" y2="-525.8243" gradientTransform="matrix(-8.212369e-04 -1.0001 1.0001 -8.212369e-04 611.3998 1363.0464)">
				<stop  offset="0" style="stop-color:#B87656"/>
				<stop  offset="1" style="stop-color:#944F32"/>
			</linearGradient>
			<polygon class="st19" points="173.6,0.9 130.4,36 42,36 -4.7,1 			"/>
			<polygon class="st0" points="130.5,36 130.7,101 44.5,101 44.3,35.9 			"/>
			
				<linearGradient id="SVGID_18_" gradientUnits="userSpaceOnUse" x1="1236.8079" y1="-580.7978" x2="1354.2887" y2="-611.2285" gradientTransform="matrix(-8.212369e-04 -1.0001 1.0001 -8.212369e-04 611.3998 1363.0464)">
				<stop  offset="0" style="stop-color:#944F32"/>
				<stop  offset="1" style="stop-color:#B87656"/>
			</linearGradient>
			<polygon class="st20" points="-4.7,1 41.8,35.9 42,100.8 -3.8,136.4 			"/>
		</g>
		<g>
			<polygon class="st0" points="306.1,35.7 306.3,100.5 220.1,100.4 220,35.6 			"/>
			<polygon class="st1" points="174.5,135.8 220.3,100.4 308.9,100.4 352.9,135.2 			"/>
			<polygon class="st2" points="353,135.2 308.9,100.4 308.7,35.6 351.9,0.7 			"/>
			
				<linearGradient id="SVGID_19_" gradientUnits="userSpaceOnUse" x1="1327.4863" y1="-347.5129" x2="1362.4814" y2="-347.5129" gradientTransform="matrix(-8.212369e-04 -1.0001 1.0001 -8.212369e-04 611.3998 1363.0464)">
				<stop  offset="0" style="stop-color:#B87656"/>
				<stop  offset="1" style="stop-color:#944F32"/>
			</linearGradient>
			<polygon class="st21" points="351.9,0.7 308.7,35.7 220.3,35.7 173.6,0.9 			"/>
			<polygon class="st0" points="308.8,35.7 309,100.5 222.8,100.4 222.7,35.6 			"/>
			
				<linearGradient id="SVGID_20_" gradientUnits="userSpaceOnUse" x1="1237.2787" y1="-402.5266" x2="1354.3684" y2="-432.856" gradientTransform="matrix(-8.212369e-04 -1.0001 1.0001 -8.212369e-04 611.3998 1363.0464)">
				<stop  offset="0" style="stop-color:#944F32"/>
				<stop  offset="1" style="stop-color:#B87656"/>
			</linearGradient>
			<polygon class="st22" points="173.6,0.8 220.2,35.6 220.3,100.3 174.5,135.8 			"/>
		</g>
		<g>
			<polygon class="st0" points="477.3,35.3 477.5,99.9 391.3,99.9 391.1,35.3 			"/>
			<polygon class="st1" points="345.6,135.1 391.4,99.9 480.1,99.8 524.1,134.5 			"/>
			<polygon class="st2" points="524.1,134.5 480.1,99.8 479.9,35.3 523,0.5 			"/>
			
				<linearGradient id="SVGID_21_" gradientUnits="userSpaceOnUse" x1="1327.7003" y1="-176.357" x2="1362.578" y2="-176.357" gradientTransform="matrix(-8.212369e-04 -1.0001 1.0001 -8.212369e-04 611.3998 1363.0464)">
				<stop  offset="0" style="stop-color:#B87656"/>
				<stop  offset="1" style="stop-color:#944F32"/>
			</linearGradient>
			<polygon class="st23" points="523.1,0.4 479.9,35.4 391.5,35.3 344.8,0.6 			"/>
			<polygon class="st0" points="480,35.3 480.2,99.9 394,99.9 393.8,35.3 			"/>
			
				<linearGradient id="SVGID_22_" gradientUnits="userSpaceOnUse" x1="1237.8131" y1="-231.411" x2="1354.5116" y2="-261.6391" gradientTransform="matrix(-8.212369e-04 -1.0001 1.0001 -8.212369e-04 611.3998 1363.0464)">
				<stop  offset="0" style="stop-color:#944F32"/>
				<stop  offset="1" style="stop-color:#B87656"/>
			</linearGradient>
			<polygon class="st24" points="344.8,0.6 391.3,35.3 391.5,99.7 345.7,135.1 			"/>
		</g>
		<g>
			<polygon class="st0" points="655.6,35.1 655.8,99.7 569.6,99.7 569.5,35.1 			"/>
			<polygon class="st1" points="524,134.9 569.8,99.7 658.4,99.6 702.4,134.3 			"/>
			<polygon class="st2" points="702.5,134.3 658.4,99.6 658.2,35.1 701.4,0.3 			"/>
			
				<linearGradient id="SVGID_23_" gradientUnits="userSpaceOnUse" x1="1327.7334" y1="1.9546" x2="1362.6111" y2="1.9546" gradientTransform="matrix(-8.212369e-04 -1.0001 1.0001 -8.212369e-04 611.3998 1363.0464)">
				<stop  offset="0" style="stop-color:#B87656"/>
				<stop  offset="1" style="stop-color:#944F32"/>
			</linearGradient>
			<polygon class="st25" points="701.4,0.3 658.2,35.2 569.8,35.2 523.1,0.4 			"/>
			<polygon class="st0" points="658.3,35.1 658.5,99.7 572.3,99.7 572.2,35.1 			"/>
			
				<linearGradient id="SVGID_24_" gradientUnits="userSpaceOnUse" x1="1237.8461" y1="-53.0992" x2="1354.5452" y2="-83.3274" gradientTransform="matrix(-8.212369e-04 -1.0001 1.0001 -8.212369e-04 611.3998 1363.0464)">
				<stop  offset="0" style="stop-color:#944F32"/>
				<stop  offset="1" style="stop-color:#B87656"/>
			</linearGradient>
			<polygon class="st26" points="523.1,0.4 569.7,35.1 569.8,99.5 524,134.9 			"/>
		</g>
	</g>
	<g>
		<g>
			<polygon class="st0" points="830.5,302.3 830.6,367.4 744.6,367.3 744.4,302.3 			"/>
			<polygon class="st1" points="699.1,402.8 744.7,367.3 833.2,367.3 877.1,402.2 			"/>
			<polygon class="st2" points="877.2,402.2 833.2,367.3 833,302.3 876.1,267.3 			"/>
			
				<linearGradient id="SVGID_25_" gradientUnits="userSpaceOnUse" x1="1060.3955" y1="176.6293" x2="1095.5079" y2="176.6293" gradientTransform="matrix(-8.212369e-04 -1.0001 1.0001 -8.212369e-04 611.3998 1363.0464)">
				<stop  offset="0" style="stop-color:#B87656"/>
				<stop  offset="1" style="stop-color:#944F32"/>
			</linearGradient>
			<polygon class="st27" points="876.1,267.2 833.1,302.4 744.8,302.4 698.2,267.4 			"/>
			<polygon class="st0" points="833.1,302.3 833.3,367.4 747.3,367.3 747.1,302.3 			"/>
			
				<linearGradient id="SVGID_26_" gradientUnits="userSpaceOnUse" x1="969.8564" y1="121.7844" x2="1087.3368" y2="91.3538" gradientTransform="matrix(-8.212369e-04 -1.0001 1.0001 -8.212369e-04 611.3998 1363.0464)">
				<stop  offset="0" style="stop-color:#944F32"/>
				<stop  offset="1" style="stop-color:#B87656"/>
			</linearGradient>
			<polygon class="st28" points="698.2,267.4 744.6,302.3 744.8,367.2 699.1,402.8 			"/>
		</g>
		<g>
			<polygon class="st0" points="1008.4,302 1008.6,366.8 922.6,366.8 922.4,302 			"/>
			<polygon class="st1" points="877,402.2 922.7,366.8 1011.2,366.8 1055.1,401.6 			"/>
			<polygon class="st2" points="1055.2,401.6 1011.2,366.8 1011,302 1054.1,267.1 			"/>
			
				<linearGradient id="SVGID_27_" gradientUnits="userSpaceOnUse" x1="1060.5461" y1="354.5964" x2="1095.5414" y2="354.5964" gradientTransform="matrix(-8.212369e-04 -1.0001 1.0001 -8.212369e-04 611.3998 1363.0464)">
				<stop  offset="0" style="stop-color:#B87656"/>
				<stop  offset="1" style="stop-color:#944F32"/>
			</linearGradient>
			<polygon class="st29" points="1054.1,267.1 1011,302.1 922.8,302.1 876.1,267.3 			"/>
			<polygon class="st0" points="1011.1,302 1011.3,366.8 925.3,366.8 925.1,302 			"/>
			
				<linearGradient id="SVGID_28_" gradientUnits="userSpaceOnUse" x1="970.3273" y1="299.7117" x2="1087.4166" y2="269.3823" gradientTransform="matrix(-8.212369e-04 -1.0001 1.0001 -8.212369e-04 611.3998 1363.0464)">
				<stop  offset="0" style="stop-color:#944F32"/>
				<stop  offset="1" style="stop-color:#B87656"/>
			</linearGradient>
			<polygon class="st30" points="876.2,267.2 922.6,302 922.8,366.7 877.1,402.2 			"/>
		</g>
		<g>
			<polygon class="st0" points="1179.3,301.7 1179.4,366.3 1093.4,366.3 1093.3,301.7 			"/>
			<polygon class="st1" points="1047.9,401.5 1093.6,366.2 1182,366.2 1226,400.9 			"/>
			<polygon class="st2" points="1226,400.9 1182,366.2 1181.8,301.7 1224.9,266.8 			"/>
			
				<linearGradient id="SVGID_29_" gradientUnits="userSpaceOnUse" x1="1060.76" y1="525.4221" x2="1095.6381" y2="525.4221" gradientTransform="matrix(-8.212369e-04 -1.0001 1.0001 -8.212369e-04 611.3998 1363.0464)">
				<stop  offset="0" style="stop-color:#B87656"/>
				<stop  offset="1" style="stop-color:#944F32"/>
			</linearGradient>
			<polygon class="st31" points="1224.9,266.8 1181.9,301.7 1093.6,301.7 1047,267 			"/>
			<polygon class="st0" points="1182,301.7 1182.1,366.3 1096.1,366.3 1096,301.7 			"/>
			
				<linearGradient id="SVGID_30_" gradientUnits="userSpaceOnUse" x1="970.8622" y1="470.497" x2="1087.5605" y2="440.2689" gradientTransform="matrix(-8.212369e-04 -1.0001 1.0001 -8.212369e-04 611.3998 1363.0464)">
				<stop  offset="0" style="stop-color:#944F32"/>
				<stop  offset="1" style="stop-color:#B87656"/>
			</linearGradient>
			<polygon class="st32" points="1047,267 1093.5,301.6 1093.6,366.1 1047.9,401.5 			"/>
		</g>
		<g>
			<polygon class="st0" points="1357.3,301.5 1357.4,366.1 1271.4,366.1 1271.2,301.5 			"/>
			<polygon class="st1" points="1225.9,401.3 1271.5,366.1 1360,366 1403.9,400.7 			"/>
			<polygon class="st2" points="1404,400.7 1360,366 1359.8,301.5 1402.9,266.7 			"/>
			
				<linearGradient id="SVGID_31_" gradientUnits="userSpaceOnUse" x1="1060.7936" y1="703.3896" x2="1095.6716" y2="703.3896" gradientTransform="matrix(-8.212369e-04 -1.0001 1.0001 -8.212369e-04 611.3998 1363.0464)">
				<stop  offset="0" style="stop-color:#B87656"/>
				<stop  offset="1" style="stop-color:#944F32"/>
			</linearGradient>
			<polygon class="st33" points="1402.9,266.6 1359.9,301.6 1271.6,301.5 1225,266.8 			"/>
			<polygon class="st0" points="1359.9,301.5 1360.1,366.1 1274.1,366.1 1273.9,301.5 			"/>
			
				<linearGradient id="SVGID_32_" gradientUnits="userSpaceOnUse" x1="970.8951" y1="648.4645" x2="1087.5936" y2="618.2365" gradientTransform="matrix(-8.212369e-04 -1.0001 1.0001 -8.212369e-04 611.3998 1363.0464)">
				<stop  offset="0" style="stop-color:#944F32"/>
				<stop  offset="1" style="stop-color:#B87656"/>
			</linearGradient>
			<polygon class="st34" points="1225,266.8 1271.4,301.5 1271.6,365.9 1225.9,401.3 			"/>
		</g>
		<g>
			<polygon class="st0" points="829.5,169.8 829.7,234.8 743.7,234.8 743.5,169.7 			"/>
			<polygon class="st1" points="698.1,270.2 743.8,234.7 832.3,234.7 876.2,269.6 			"/>
			<polygon class="st2" points="876.3,269.6 832.3,234.7 832.1,169.7 875.2,134.7 			"/>
			
				<linearGradient id="SVGID_33_" gradientUnits="userSpaceOnUse" x1="1192.9707" y1="175.8153" x2="1228.0831" y2="175.8153" gradientTransform="matrix(-8.212369e-04 -1.0001 1.0001 -8.212369e-04 611.3998 1363.0464)">
				<stop  offset="0" style="stop-color:#B87656"/>
				<stop  offset="1" style="stop-color:#944F32"/>
			</linearGradient>
			<polygon class="st35" points="875.2,134.7 832.1,169.8 743.9,169.8 697.2,134.8 			"/>
			<polygon class="st0" points="832.2,169.8 832.4,234.8 746.4,234.8 746.2,169.7 			"/>
			
				<linearGradient id="SVGID_34_" gradientUnits="userSpaceOnUse" x1="1043.5623" y1="129.6101" x2="1213.699" y2="156.9801" gradientTransform="matrix(-0.4021 -0.9156 0.9156 -0.4021 1040.3462 1298.7109)">
				<stop  offset="0" style="stop-color:#944F32"/>
				<stop  offset="1" style="stop-color:#B87656"/>
			</linearGradient>
			<polygon class="st36" points="697.3,134.8 743.7,169.7 743.9,234.6 698.2,270.2 			"/>
		</g>
		<g>
			<polygon class="st0" points="1007.5,169.5 1007.7,234.3 921.7,234.2 921.5,169.4 			"/>
			<polygon class="st1" points="876.1,269.6 921.8,234.2 1010.3,234.2 1054.2,269 			"/>
			<polygon class="st2" points="1054.3,269 1010.3,234.2 1010.1,169.4 1053.2,134.5 			"/>
			
				<linearGradient id="SVGID_35_" gradientUnits="userSpaceOnUse" x1="1193.1211" y1="353.7824" x2="1228.1166" y2="353.7824" gradientTransform="matrix(-8.212369e-04 -1.0001 1.0001 -8.212369e-04 611.3998 1363.0464)">
				<stop  offset="0" style="stop-color:#B87656"/>
				<stop  offset="1" style="stop-color:#944F32"/>
			</linearGradient>
			<polygon class="st37" points="1053.2,134.5 1010.1,169.5 921.9,169.5 875.2,134.7 			"/>
			<polygon class="st0" points="1010.2,169.5 1010.4,234.3 924.3,234.2 924.2,169.4 			"/>
			
				<linearGradient id="SVGID_36_" gradientUnits="userSpaceOnUse" x1="1102.9023" y1="298.8979" x2="1219.9918" y2="268.5685" gradientTransform="matrix(-8.212369e-04 -1.0001 1.0001 -8.212369e-04 611.3998 1363.0464)">
				<stop  offset="0" style="stop-color:#944F32"/>
				<stop  offset="1" style="stop-color:#B87656"/>
			</linearGradient>
			<polygon class="st38" points="875.2,134.6 921.7,169.4 921.9,234.1 876.2,269.6 			"/>
		</g>
		<g>
			<polygon class="st0" points="1178.3,169.1 1178.5,233.7 1092.5,233.7 1092.3,169.1 			"/>
			<polygon class="st1" points="1046.9,268.9 1092.6,233.7 1181.1,233.6 1225,268.3 			"/>
			<polygon class="st2" points="1225.1,268.3 1181.1,233.6 1180.9,169.1 1224,134.3 			"/>
			
				<linearGradient id="SVGID_37_" gradientUnits="userSpaceOnUse" x1="1193.3352" y1="524.6081" x2="1228.2134" y2="524.6081" gradientTransform="matrix(-8.212369e-04 -1.0001 1.0001 -8.212369e-04 611.3998 1363.0464)">
				<stop  offset="0" style="stop-color:#B87656"/>
				<stop  offset="1" style="stop-color:#944F32"/>
			</linearGradient>
			<polygon class="st39" points="1224,134.2 1180.9,169.2 1092.7,169.1 1046.1,134.4 			"/>
			<polygon class="st0" points="1181,169.1 1181.2,233.7 1095.2,233.7 1095,169.1 			"/>
			
				<linearGradient id="SVGID_38_" gradientUnits="userSpaceOnUse" x1="1103.4369" y1="469.6831" x2="1220.1356" y2="439.455" gradientTransform="matrix(-8.212369e-04 -1.0001 1.0001 -8.212369e-04 611.3998 1363.0464)">
				<stop  offset="0" style="stop-color:#944F32"/>
				<stop  offset="1" style="stop-color:#B87656"/>
			</linearGradient>
			<polygon class="st40" points="1046.1,134.4 1092.5,169.1 1092.7,233.5 1047,268.9 			"/>
		</g>
		<g>
			<polygon class="st0" points="1356.3,168.9 1356.5,233.5 1270.5,233.5 1270.3,168.9 			"/>
			<polygon class="st1" points="1224.9,268.7 1270.6,233.5 1359.1,233.4 1403,268.1 			"/>
			<polygon class="st2" points="1403.1,268.1 1359.1,233.4 1358.9,168.9 1402,134.1 			"/>
			
				<linearGradient id="SVGID_39_" gradientUnits="userSpaceOnUse" x1="1193.3685" y1="702.5756" x2="1228.2466" y2="702.5756" gradientTransform="matrix(-8.212369e-04 -1.0001 1.0001 -8.212369e-04 611.3998 1363.0464)">
				<stop  offset="0" style="stop-color:#B87656"/>
				<stop  offset="1" style="stop-color:#944F32"/>
			</linearGradient>
			<polygon class="st41" points="1402,134.1 1358.9,169 1270.7,169 1224,134.2 			"/>
			<polygon class="st0" points="1359,168.9 1359.2,233.5 1273.2,233.5 1273,168.9 			"/>
			
				<linearGradient id="SVGID_40_" gradientUnits="userSpaceOnUse" x1="1103.4705" y1="647.6505" x2="1220.1688" y2="617.4224" gradientTransform="matrix(-8.212369e-04 -1.0001 1.0001 -8.212369e-04 611.3998 1363.0464)">
				<stop  offset="0" style="stop-color:#944F32"/>
				<stop  offset="1" style="stop-color:#B87656"/>
			</linearGradient>
			<polygon class="st42" points="1224.1,134.2 1270.5,168.9 1270.7,233.3 1225,268.7 			"/>
		</g>
		<g>
			<polygon class="st0" points="828.9,36 829.1,101 743.1,101 742.9,36 			"/>
			<polygon class="st1" points="697.5,136.5 743.2,101 831.7,101 875.6,135.9 			"/>
			<polygon class="st2" points="875.7,135.9 831.7,101 831.5,36 874.6,0.9 			"/>
			
				<linearGradient id="SVGID_41_" gradientUnits="userSpaceOnUse" x1="1326.6925" y1="175.3173" x2="1361.8047" y2="175.3173" gradientTransform="matrix(-8.212369e-04 -1.0001 1.0001 -8.212369e-04 611.3998 1363.0464)">
				<stop  offset="0" style="stop-color:#B87656"/>
				<stop  offset="1" style="stop-color:#944F32"/>
			</linearGradient>
			<polygon class="st43" points="874.6,0.9 831.5,36.1 743.3,36.1 696.6,1.1 			"/>
			<polygon class="st0" points="831.6,36 831.8,101 745.8,101 745.6,36 			"/>
			
				<linearGradient id="SVGID_42_" gradientUnits="userSpaceOnUse" x1="1236.153" y1="120.4727" x2="1353.6334" y2="90.0421" gradientTransform="matrix(-8.212369e-04 -1.0001 1.0001 -8.212369e-04 611.3998 1363.0464)">
				<stop  offset="0" style="stop-color:#944F32"/>
				<stop  offset="1" style="stop-color:#B87656"/>
			</linearGradient>
			<polygon class="st44" points="696.6,1.1 743.1,36 743.3,100.9 697.6,136.5 			"/>
		</g>
		<g>
			<polygon class="st0" points="1006.9,35.7 1007.1,100.5 921,100.5 920.9,35.7 			"/>
			<polygon class="st1" points="875.5,135.8 921.2,100.5 1009.7,100.5 1053.6,135.2 			"/>
			<polygon class="st2" points="1053.7,135.2 1009.7,100.5 1009.4,35.7 1052.6,0.8 			"/>
			
				<linearGradient id="SVGID_43_" gradientUnits="userSpaceOnUse" x1="1326.8427" y1="353.2847" x2="1361.8379" y2="353.2847" gradientTransform="matrix(-8.212369e-04 -1.0001 1.0001 -8.212369e-04 611.3998 1363.0464)">
				<stop  offset="0" style="stop-color:#B87656"/>
				<stop  offset="1" style="stop-color:#944F32"/>
			</linearGradient>
			<polygon class="st45" points="1052.6,0.7 1009.5,35.8 921.3,35.8 874.6,0.9 			"/>
			<polygon class="st0" points="1009.6,35.7 1009.7,100.5 923.7,100.5 923.6,35.7 			"/>
			
				<linearGradient id="SVGID_44_" gradientUnits="userSpaceOnUse" x1="1236.6241" y1="298.3999" x2="1353.7135" y2="268.0706" gradientTransform="matrix(-8.212369e-04 -1.0001 1.0001 -8.212369e-04 611.3998 1363.0464)">
				<stop  offset="0" style="stop-color:#944F32"/>
				<stop  offset="1" style="stop-color:#B87656"/>
			</linearGradient>
			<polygon class="st46" points="874.6,0.9 921.1,35.7 921.2,100.4 875.6,135.9 			"/>
		</g>
		<g>
			<polygon class="st0" points="1177.7,35.4 1177.9,100 1091.9,99.9 1091.7,35.4 			"/>
			<polygon class="st1" points="1046.3,135.1 1092,99.9 1180.5,99.9 1224.4,134.6 			"/>
			<polygon class="st2" points="1224.5,134.6 1180.5,99.9 1180.3,35.3 1223.4,0.5 			"/>
			
				<linearGradient id="SVGID_45_" gradientUnits="userSpaceOnUse" x1="1327.057" y1="524.1104" x2="1361.9347" y2="524.1104" gradientTransform="matrix(-8.212369e-04 -1.0001 1.0001 -8.212369e-04 611.3998 1363.0464)">
				<stop  offset="0" style="stop-color:#B87656"/>
				<stop  offset="1" style="stop-color:#944F32"/>
			</linearGradient>
			<polygon class="st47" points="1223.4,0.5 1180.3,35.4 1092.1,35.4 1045.5,0.7 			"/>
			<polygon class="st0" points="1180.4,35.4 1180.6,100 1094.6,99.9 1094.4,35.4 			"/>
			
				<linearGradient id="SVGID_46_" gradientUnits="userSpaceOnUse" x1="1237.1588" y1="469.1853" x2="1353.8569" y2="438.9573" gradientTransform="matrix(-8.212369e-04 -1.0001 1.0001 -8.212369e-04 611.3998 1363.0464)">
				<stop  offset="0" style="stop-color:#944F32"/>
				<stop  offset="1" style="stop-color:#B87656"/>
			</linearGradient>
			<polygon class="st48" points="1045.5,0.6 1091.9,35.3 1092.1,99.8 1046.4,135.2 			"/>
		</g>
		<g>
			<polygon class="st0" points="1355.7,35.2 1355.9,99.8 1269.9,99.8 1269.7,35.2 			"/>
			<polygon class="st1" points="1224.3,135 1270,99.7 1358.5,99.7 1402.4,134.4 			"/>
			<polygon class="st2" points="1402.5,134.4 1358.5,99.7 1358.3,35.2 1401.4,0.4 			"/>
			
				<linearGradient id="SVGID_47_" gradientUnits="userSpaceOnUse" x1="1327.0902" y1="702.078" x2="1361.968" y2="702.078" gradientTransform="matrix(-8.212369e-04 -1.0001 1.0001 -8.212369e-04 611.3998 1363.0464)">
				<stop  offset="0" style="stop-color:#B87656"/>
				<stop  offset="1" style="stop-color:#944F32"/>
			</linearGradient>
			<polygon class="st49" points="1401.4,0.3 1358.3,35.2 1270.1,35.2 1223.4,0.5 			"/>
			<polygon class="st0" points="1358.4,35.2 1358.6,99.8 1272.6,99.8 1272.4,35.2 			"/>
			
				<linearGradient id="SVGID_48_" gradientUnits="userSpaceOnUse" x1="1237.1921" y1="647.1531" x2="1353.8907" y2="616.925" gradientTransform="matrix(-8.212369e-04 -1.0001 1.0001 -8.212369e-04 611.3998 1363.0464)">
				<stop  offset="0" style="stop-color:#944F32"/>
				<stop  offset="1" style="stop-color:#B87656"/>
			</linearGradient>
			<polygon class="st50" points="1223.5,0.5 1269.9,35.1 1270.1,99.6 1224.4,135 			"/>
		</g>
	</g>
	<defs>
		<filter id="Adobe_OpacityMaskFilter" filterUnits="userSpaceOnUse" x="0" y="0" width="1400" height="400">
			<feFlood  style="flood-color:white;flood-opacity:1" result="back"/>
			<feBlend  in="SourceGraphic" in2="back" mode="normal"/>
		</filter>
	</defs>
	<mask maskUnits="userSpaceOnUse" x="0" y="0" width="1400" height="400" id="SVGID_49_">
		<g class="st51">
		</g>
	</mask>
	<rect class="st52" width="1400" height="400"/>
</g>
<g id="Calque_1">
	<path class="st53" d="M130.4,74.6l115.3-15.7l0.1,111.2l-115.2,0.7L130.4,74.6z M245.6,182.8l0.1,111.3l-115.2-15.8l0-96.2
		L245.6,182.8z M259.6,56.8l152.8-22.3v134.1l-152.8,1.2L259.6,56.8z M412.4,183.9l0,133.5l-152.8-21.6l-0.2-112.2L412.4,183.9z"/>
	<g id="layer1_2_" transform="translate(160,-57.362183)">
		<g id="g18680_2_" transform="translate(-21.000155,8.0000019)">
			<path id="path29670-2_2_" class="st54" d="M255.7,313.9c1.6,3.5,3.4,6.8,4.9,10.3c3,6.7,5.3,13.7,6.3,21c1,7.3,0.5,14.8-1.7,21.8
				c-2.6,7.9-7.4,14.9-13.4,20.6c-7.1,6.8-16.1,12-25.9,12.4c-6.4,0.3-12.7-1.6-18.4-4.5c-4.7-2.5-9.1-5.8-12.5-9.9s-6-9-7.2-14.2
				c-1.5-6.4-0.8-13.3,1.4-19.5c1.6-4.4,3.9-8.6,5.6-13c1.8-4.8,2.8-10,5.3-14.5c2.2-4.1,5.5-7.7,7.2-12c1-2.6,1.5-5.4,2.2-8.1
				c0.7-2.7,1.6-5.4,3.5-7.6c2.2-2.5,5.5-3.9,8.9-4.3c3.3-0.4,6.7,0.1,10,0.9c2.6,0.6,5.2,1.3,7.7,2.2c2.2,0.8,4.3,1.7,6.2,3
				c2.5,1.8,4.5,4.4,6,7.1C253.2,308.1,254.4,311,255.7,313.9L255.7,313.9z"/>
			<path id="path29676-3_2_" class="st54" d="M227.6,400c2.7,0.2,5.4,0.4,8,0.8c2.3,0.4,4.7,0.8,7,1.4c3.6,0.9,7.2,2,10.9,2.1
				c1,0,2,0,2.9-0.2c1-0.2,1.9-0.6,2.6-1.2c1.1-0.9,1.9-2.3,2.1-3.7c0.3-1.4,0.1-2.9-0.3-4.3c-0.8-2.8-2.6-5.2-4.1-7.7
				c-0.9-1.4-1.6-2.9-2.5-4.3c-0.9-1.4-2-2.7-3.4-3.6c-1.9-1.2-4.3-1.7-6.6-1.4c-2.3,0.2-4.5,1.1-6.5,2.1c-2.9,1.5-5.6,3.5-7.1,6.4
				c-0.5,1-0.9,2-1.4,3.1c-0.5,1-1,2-1.8,2.8c-0.9,0.9-2,1.5-2.9,2.4c-0.5,0.4-0.8,0.9-1.1,1.5c-0.2,0.6-0.3,1.2-0.1,1.8
				c0.1,0.4,0.4,0.8,0.7,1c0.3,0.3,0.7,0.5,1.1,0.6C225.9,399.9,226.8,399.9,227.6,400L227.6,400z"/>
			<path id="path29676-7-1_2_" class="st54" d="M219.6,399.8c-2.2,0.1-4.5,0.5-6.6,0.9c-2.1,0.4-4.2,0.9-6.3,1.5
				c-3.5,0.9-7,2-10.6,2.1c-1,0-1.9,0-2.8-0.2s-1.8-0.6-2.6-1.2c-1.1-0.9-1.9-2.3-2.1-3.7c-0.3-1.4-0.1-2.9,0.3-4.3
				c0.8-2.8,2.6-5.2,4.1-7.7c0.8-1.4,1.6-2.9,2.5-4.3c0.9-1.4,2-2.7,3.4-3.6c1.9-1.2,4.2-1.7,6.5-1.4c2.2,0.2,4.4,1,6.4,2.1
				c2.8,1.5,5.3,3.6,6.9,6.4c1.1,1.9,1.8,4.1,3.1,5.9c0.7,1,1.6,1.8,2.2,2.8c0.3,0.5,0.5,1.1,0.6,1.7c0.1,0.6-0.1,1.2-0.4,1.7
				c-0.2,0.3-0.5,0.6-0.9,0.8c-0.3,0.2-0.7,0.3-1.1,0.4C221.2,399.8,220.4,399.8,219.6,399.8L219.6,399.8z"/>
			<path id="path28712-2_2_" class="st54" d="M207.1,306.6c-0.3-3.8-0.2-7.6-0.4-11.4c-0.1-3.7-0.5-7.3-0.3-11
				c0.1-3.7,0.7-7.5,2.4-10.8c1.7-3.3,4.3-6.2,7.6-7.9c3.1-1.7,6.6-2.4,10.1-2.3c4.7,0.1,9.5,1.5,13.4,4.3c2.4,1.7,4.4,4,6,6.5
				c1.4,2.1,2.4,4.5,3.1,6.9c1.4,5,1,10.3,1.3,15.5c0.3,4.9,1,9.8,0.8,14.8c-0.1,1.1-0.2,2.2-0.7,3.1c-0.5,0.9-1.3,1.7-2.2,2.2
				s-1.9,0.8-3,1c-2.1,0.3-4.2,0.1-6.3,0.3c-3,0.3-5.9,1.4-8.9,1.9c-3.6,0.6-7.2,0.2-10.8,0c-1.4-0.1-2.9-0.1-4.3-0.3
				c-1.4-0.2-2.9-0.5-4.1-1.2c-0.8-0.4-1.5-1-2.1-1.6c-0.6-0.7-1-1.5-1.3-2.3c-0.3-1.3-0.2-2.7-0.2-4
				C207.4,309,207.2,307.8,207.1,306.6z"/>
			<path id="path29719-5_2_" class="st55" d="M212.8,305.1c-0.5,0.6-0.8,1.4-1,2.2c-0.2,0.8-0.3,1.6-0.3,2.4c-0.1,1.6,0,3.3-0.4,4.9
				c-0.5,1.7-1.5,3.2-2.5,4.6c-1.8,2.5-3.5,5-4.4,7.9c-0.5,1.8-0.7,3.6-0.5,5.5c-2,2.9-3.7,6-5.1,9.2c-2.1,4.9-3.6,10-4.1,15.3
				c-0.6,6.5,0.2,13.1,2.7,19.1c1.8,4.3,4.6,8.3,8.2,11.4c1.8,1.6,3.8,2.9,6,4c7.4,3.7,16.6,3.7,23.9-0.2c3.8-2,7-5,10.2-8
				c1.9-1.8,3.7-3.7,5.2-5.9c2.7-4.2,3.7-9.3,4.3-14.3c1-8.7,1.1-17.9-2.7-25.8c-1.3-2.7-3.1-5.2-5.2-7.4c-0.6-3.8-1.7-7.5-3.3-11
				c-1.2-2.5-2.6-4.9-3.6-7.5c-0.4-1-0.8-2.1-1.3-3.1c-0.5-1-1.1-2-1.9-2.8c-0.8-0.8-1.9-1.4-3-1.7c-1.1-0.4-2.3-0.5-3.4-0.6
				c-2.3-0.1-4.7,0.2-7,0.1c-1.9-0.1-3.7-0.4-5.6-0.3c-0.9,0.1-1.9,0.2-2.7,0.6C214.2,303.8,213.4,304.4,212.8,305.1L212.8,305.1z"
				/>
			<g id="path28461-8-7_2_">
				<path class="st56" d="M211.7,313.8c0.8,2.4,2.5,4.5,4.5,6.1c0.7,0.5,1.4,1,2.1,1.4c0.8,0.3,1.6,0.5,2.5,0.5
					c0.8-0.1,1.6-0.4,2.3-0.8c0.7-0.4,1.4-0.9,2.1-1.3c1.2-0.8,2.5-1.4,3.7-2.1c1.5-0.8,3-1.8,4.2-2.9c0.6-0.5,1.1-1.1,1.8-1.6
					c0.6-0.5,1.4-0.8,2.2-0.7c0.6,0,1.1,0.3,1.7,0.4c0.3,0.1,0.6,0.1,0.9,0s0.6-0.2,0.8-0.4c0.3-0.3,0.4-0.6,0.3-1s-0.1-0.7-0.3-1
					c-0.3-0.6-0.8-1.2-1.1-1.9c-0.2-0.6-0.2-1.3-0.1-1.9c0-0.6,0-1.3-0.3-1.9c-0.2-0.4-0.6-0.8-1-1c-0.4-0.2-0.9-0.3-1.4-0.4
					c-1-0.1-2,0.1-2.9,0.2c-1.3,0.1-2.6-0.1-3.9,0c-1.6,0.1-3.2,0.6-4.8,0.6c-1.8,0-3.7-0.6-5.5-0.3c-0.8,0.1-1.5,0.4-2.3,0.7
					c-0.8,0.3-1.5,0.5-2.3,0.5c-0.9,0-1.8-0.3-2.7-0.4c-0.4,0-0.9,0-1.3,0.2c-0.4,0.2-0.8,0.5-1,0.9c-0.1,0.2-0.2,0.5-0.2,0.7
					c0,0.3,0,0.5,0.1,0.8c0.1,0.5,0.4,1,0.5,1.4C210.9,310.1,211.1,312,211.7,313.8z"/>
			</g>
			<g id="path28461-84-3_2_" class="st57">
				<path d="M209.3,306.9c1.6,1,3.1,2.2,4.3,3.6c1.1,1.3,2.1,2.8,3.6,3.7c1,0.7,2.3,1.1,3.6,1.2c1.5,0.1,3-0.1,4.4-0.5
					c1.3-0.4,2.6-0.9,3.8-1.5c2.2-1.3,4.1-3.1,6.6-4c0.5-0.2,1.1-0.3,1.6-0.5c0.5-0.2,1-0.6,1.3-1c0.2-0.5,0.2-1,0.3-1.5
					c0.1-0.5,0.3-1.1,0.4-1.6c0.1-0.5,0.1-1.1-0.1-1.6c-0.2-0.4-0.6-0.7-1-0.9s-0.9-0.3-1.4-0.3c-1,0-1.9,0.2-2.9,0.3
					c-1.3,0.1-2.6,0-3.9,0c-1.6,0-3.2,0.4-4.8,0.5c-1.8,0.1-3.7-0.2-5.5-0.2c-0.8,0-1.6,0-2.4,0.1c-0.8,0.1-1.6,0.4-2.2,0.8
					c-0.6,0.4-1.2,0.9-1.8,1.4c-0.3,0.2-0.6,0.4-1,0.6c-0.3,0.2-0.7,0.3-1.1,0.3c-0.2,0-0.4,0-0.6,0c-0.3,0-0.6,0.2-0.8,0.5
					S209.3,306.6,209.3,306.9L209.3,306.9z"/>
			</g>
			
				<radialGradient id="path28795-9-5_1_" cx="300.168" cy="160.5244" r="7.1192" gradientTransform="matrix(0.8152 -3.431182e-02 -2.961133e-02 -1.248 -25.2535 502.922)" gradientUnits="userSpaceOnUse">
				<stop  offset="0" style="stop-color:#FEFEFC"/>
				<stop  offset="0.7573" style="stop-color:#FEFEFC"/>
				<stop  offset="1" style="stop-color:#D4D4D4"/>
			</radialGradient>
			<path id="path28795-9-5_2_" class="st58" d="M213.5,284.8c-0.9,0-1.7,0.4-2.3,1s-1.1,1.4-1.4,2.2c-0.6,1.7-0.4,3.4-0.3,5.2
				c0.1,1.6,0.2,3.2,0.8,4.6c0.3,0.7,0.7,1.4,1.3,2c0.6,0.6,1.2,1,2,1.2c0.7,0.2,1.5,0.1,2.2-0.1c0.7-0.2,1.4-0.6,1.9-1.1
				c0.8-0.8,1.3-1.7,1.6-2.8s0.4-2.1,0.4-3.2c0-1.4-0.2-2.7-0.6-4s-1.1-2.5-2-3.5c-0.5-0.5-1-0.9-1.6-1.2
				C214.9,285,214.2,284.8,213.5,284.8z"/>
			
				<radialGradient id="path28795-3_1_" cx="310.0723" cy="160.2521" r="7.1192" gradientTransform="matrix(1.0858 -3.431182e-02 -3.943781e-02 -1.248 -97.7513 502.922)" gradientUnits="userSpaceOnUse">
				<stop  offset="0" style="stop-color:#FEFEFC"/>
				<stop  offset="0.7573" style="stop-color:#FEFEFC"/>
				<stop  offset="1" style="stop-color:#D4D4D4"/>
			</radialGradient>
			<path id="path28795-3_2_" class="st59" d="M228.9,284.8c-1.4,0.9-2.5,2.2-3.1,3.8c-0.7,2-0.4,4.1,0.2,6.1c0.7,2,1.9,3.9,3.6,5.1
				c0.9,0.6,1.9,1,2.9,1.1c1.1,0.1,2.2,0,3.1-0.5c1.1-0.6,2-1.6,2.6-2.8s0.8-2.5,0.8-3.8c0.1-1.6-0.1-3.3-0.6-4.9
				c-0.6-1.7-1.7-3.3-3.2-4.2c-0.8-0.5-1.6-0.8-2.5-0.9s-1.8,0-2.6,0.3C229.8,284.3,229.4,284.6,228.9,284.8z"/>
			<g id="path27476-76-1_2_" class="st57">
				<path d="M213.3,298.9c-0.9,0.7-1.7,1.5-2.5,2.3c-0.4,0.4-0.9,0.9-1.1,1.5c-0.2,0.5-0.1,1.1-0.2,1.7c0,0.2-0.1,0.4-0.1,0.6
					c0,0.1,0,0.2,0,0.3c0,0.1,0.1,0.2,0.1,0.2c0.1,0.1,0.3,0.2,0.4,0.2c0.2,0,0.3,0,0.5,0.1c0.7,0.1,1.4,0.4,2,0.8
					c0.6,0.4,1.1,0.9,1.7,1.3c1.3,0.8,2.9,1.2,4.5,1.3c1.6,0.1,3.2-0.2,4.7-0.5c1.2-0.2,2.5-0.5,3.6-1c1.8-0.7,3.4-1.8,4.9-2.9
					c0.7-0.5,1.4-1.1,2-1.7c0.2-0.2,0.4-0.4,0.6-0.6s0.5-0.4,0.8-0.4c0.4-0.1,0.9-0.1,1.3,0c0.3,0.1,0.7,0.1,1,0.1
					c0.2,0,0.3,0,0.5-0.1c0.2-0.1,0.3-0.2,0.4-0.3c0.1-0.2,0.2-0.4,0.2-0.6c0-0.2-0.1-0.4-0.2-0.6c-0.2-0.4-0.6-0.6-1-0.8
					c-0.6-0.2-1.2-0.4-1.8-0.5c-1.8-0.4-3.6-1.1-5.3-1.9c-0.8-0.4-1.7-0.9-2.5-1.3c-0.8-0.5-1.7-0.9-2.6-1.2
					c-2.1-0.6-4.3-0.4-6.3,0.3C216.8,295.7,214.8,297.1,213.3,298.9L213.3,298.9z"/>
			</g>
			
				<radialGradient id="path28849-2_1_" cx="350.8159" cy="212.8245" r="7.515" gradientTransform="matrix(0.6978 -0.5072 -0.4603 -0.6334 74.1784 609.9581)" gradientUnits="userSpaceOnUse">
				<stop  offset="0" style="stop-color:#020204"/>
				<stop  offset="0.7345" style="stop-color:#020204"/>
				<stop  offset="1" style="stop-color:#5C5C5C"/>
			</radialGradient>
			<path id="path28849-2_2_" class="st60" d="M217.6,296.3c0.9-1,1.5-2.2,2.3-3.2c0.4-0.5,0.9-1,1.5-1.3c0.6-0.3,1.2-0.5,1.9-0.5
				c0.7,0.1,1.4,0.4,1.9,0.9c0.5,0.5,0.9,1.1,1.2,1.8c0.3,0.6,0.5,1.3,1,1.8c0.5,0.6,1.1,1,1.7,1.4c0.3,0.2,0.6,0.5,0.8,0.8
				c0.2,0.3,0.4,0.6,0.5,1c0.1,0.4,0,0.8-0.1,1.1c-0.1,0.4-0.3,0.7-0.6,0.9c-0.5,0.5-1.3,0.8-2,0.9c-1.5,0.2-3-0.2-4.5-0.2
				c-1.5,0-3,0.6-4.5,0.5c-0.8,0-1.5-0.2-2.2-0.6c-0.3-0.2-0.6-0.5-0.8-0.8c-0.2-0.3-0.3-0.7-0.3-1.1c0-0.4,0.1-0.7,0.2-1.1
				s0.3-0.6,0.6-0.9C216.6,297.3,217.2,296.9,217.6,296.3z"/>
			<g id="path28767-3_2_">
				<path class="st61" d="M234.6,269.5c-1.3,0.9-0.7,2-0.2,3.1s-1.2,4.3-1.2,4.4c0,0.1,3.4-1.6,4.3-2.8c1.1-1.3,3.9,1.8,3.7,1.3
					C241.2,274.7,235.8,268.6,234.6,269.5z"/>
			</g>
			<g id="g28965-1_2_" transform="translate(-289,-9.0000017)">
				<path id="path28879-6_2_" class="st54" d="M521.1,297.9c-0.5,0-1,0.2-1.4,0.5c-0.4,0.3-0.8,0.6-1.1,1.1
					c-0.6,0.8-0.8,1.9-0.9,2.9c0,0.8,0.1,1.5,0.3,2.3c0.3,0.7,0.7,1.4,1.3,1.9c0.6,0.5,1.4,0.8,2.2,0.8c0.8,0,1.6-0.2,2.2-0.6
					c0.5-0.4,0.9-0.9,1.2-1.4c0.3-0.6,0.5-1.2,0.6-1.8c0.1-1.1,0-2.2-0.5-3.2s-1.4-1.8-2.4-2.2C522,298,521.6,297.9,521.1,297.9
					L521.1,297.9z"/>
				<g id="path28891-5_2_">
					<path class="st62" d="M522.3,301.3c-0.4,0.2-1.1,0.1-1.3,0.5c-0.1,0.2,0,0.7,0.3,0.8c0.5,0.2,1.3-0.2,1.5-0.7
						c0.1-0.2,0-0.6-0.3-0.7C522.5,301.2,522.4,301.3,522.3,301.3L522.3,301.3z"/>
				</g>
				<g id="path28887-6_2_">
					
						<linearGradient id="SVGID_50_" gradientUnits="userSpaceOnUse" x1="581.4986" y1="161.4341" x2="584.7805" y2="157.5477" gradientTransform="matrix(1 0 0 -1 -60.0002 460.3622)">
						<stop  offset="0" style="stop-color:#949494;stop-opacity:0.3922"/>
						<stop  offset="0.5" style="stop-color:#949494"/>
						<stop  offset="1" style="stop-color:#949494;stop-opacity:0.3922"/>
					</linearGradient>
					<path class="st63" d="M524.2,302.4c0.6-0.6-0.4-2.1-1.2-2.7c-0.5-0.4-2.1-0.9-2.1-0.4c0.1,0.5,0.8,1.1,1.3,1.6
						C522.9,301.4,524,302.7,524.2,302.4z"/>
				</g>
			</g>
			<g>
				<defs>
					<path id="SVGID_51_" d="M228.9,284.8c-1.4,0.9-2.5,2.2-3.1,3.8c-0.7,2-0.4,4.1,0.2,6.1c0.7,2,1.9,3.9,3.6,5.1
						c0.9,0.6,1.9,1,2.9,1.1c1.1,0.1,2.2,0,3.1-0.5c1.1-0.6,2-1.6,2.6-2.8s0.8-2.5,0.8-3.8c0.1-1.6-0.1-3.3-0.6-4.9
						c-0.6-1.7-1.7-3.3-3.2-4.2c-0.8-0.5-1.6-0.8-2.5-0.9c-0.9-0.1-1.8,0-2.6,0.3C229.8,284.3,229.4,284.6,228.9,284.8"/>
				</defs>
				<clipPath id="SVGID_52_">
					<use xlink:href="#SVGID_51_"  style="overflow:visible;"/>
				</clipPath>
				
					<linearGradient id="path28972-5_1_" gradientUnits="userSpaceOnUse" x1="420.2768" y1="159.6995" x2="430.7195" y2="153.5927" gradientTransform="matrix(1 0 0 -1 -190.0002 442.3622)">
					<stop  offset="0" style="stop-color:#747474"/>
					<stop  offset="0.125" style="stop-color:#8C8C8C"/>
					<stop  offset="0.25" style="stop-color:#A4A4A4"/>
					<stop  offset="0.5" style="stop-color:#D4D4D4"/>
					<stop  offset="0.6192" style="stop-color:#D4D4D4"/>
					<stop  offset="1" style="stop-color:#7C7C7C"/>
				</linearGradient>
				<path id="path28972-5_2_" class="st64" d="M223.8,289.8c1.2-1,2.5-1.7,4-2.1c3-0.9,6.4-0.6,9,1.1c0.9,0.6,1.7,1.3,2.6,2
					c0.8,0.7,1.7,1.3,2.8,1.6c0.5,0.2,1.1,0.3,1.7,0.2c0.5-0.1,1-0.3,1.5-0.5c0.4-0.3,0.8-0.7,1.1-1.1c0.5-0.9,0.7-2,0.6-3
					c-0.2-2.1-1.4-3.9-2.4-5.8c-0.3-0.6-0.6-1.2-1-1.7c-1.1-1.7-3-2.8-4.9-3.4c-1.9-0.6-3.9-0.9-5.9-1.1c-0.9-0.1-1.8-0.2-2.7-0.1
					c-1,0.1-2,0.5-3,0.8c-0.5,0.1-1,0.2-1.4,0.3c-0.5,0.1-0.9,0.3-1.3,0.6c-0.6,0.4-0.9,1.1-1.1,1.8c-0.2,0.7-0.1,1.4,0,2.1
					c0.2,1.4,0.8,2.8,0.7,4.2c0,1-0.3,1.9-0.3,2.9c0,0.3,0.1,0.6,0.1,0.9"/>
			</g>
			<g id="path28795-92-2_2_">
				
					<linearGradient id="SVGID_53_" gradientUnits="userSpaceOnUse" x1="373.56" y1="161.6814" x2="380.5123" y2="155.1177" gradientTransform="matrix(1 0 0 -1 -140.0002 442.3622)">
					<stop  offset="0" style="stop-color:#646464;stop-opacity:0"/>
					<stop  offset="0.3063" style="stop-color:#646464;stop-opacity:0.5825"/>
					<stop  offset="0.47" style="stop-color:#646464"/>
					<stop  offset="0.7283" style="stop-color:#646464;stop-opacity:0.2573"/>
					<stop  offset="1" style="stop-color:#646464;stop-opacity:0"/>
				</linearGradient>
				<path class="st65" d="M233.7,280.8c-0.2,0.3-0.4,0.6-0.6,1c1,0.2,2.1,0.7,2.9,1.3c1.7,1.2,3,2.8,4,4.7c0.2-0.2,0.4-0.5,0.6-0.8
					c-0.9-1.9-2.3-3.7-4.1-4.9C235.6,281.5,234.7,281.1,233.7,280.8z"/>
			</g>
			<g id="path28795-9-2-2_2_">
				
					<linearGradient id="SVGID_54_" gradientUnits="userSpaceOnUse" x1="353.594" y1="161.345" x2="360.1403" y2="155.0404" gradientTransform="matrix(1 0 0 -1 -140.0002 442.3622)">
					<stop  offset="0" style="stop-color:#646464;stop-opacity:0"/>
					<stop  offset="0.3063" style="stop-color:#646464;stop-opacity:0.5825"/>
					<stop  offset="0.47" style="stop-color:#646464"/>
					<stop  offset="0.7283" style="stop-color:#646464;stop-opacity:0.2573"/>
					<stop  offset="1" style="stop-color:#646464;stop-opacity:0"/>
				</linearGradient>
				<path class="st66" d="M213.4,281.8c-0.1,0-0.2,0-0.4,0c-0.1,0-0.2,0-0.2,0c0.7,0.1,1.4,0.2,2,0.5c0.8,0.4,1.6,0.9,2.3,1.5
					c1.2,1.1,2.1,2.6,2.7,4.1c-0.2-1.2-0.5-2.2-1-3.3c-0.2-0.3-0.5-0.6-0.8-0.8c-0.7-0.6-1.4-1.2-2.3-1.5
					C215.1,282,214.3,281.8,213.4,281.8L213.4,281.8z"/>
			</g>
			<g id="g29497-8_2_" transform="translate(-189,-9.0000017)">
				<path id="path29453-9_2_" class="st54" d="M400.4,301.1c-0.2,1.1-0.2,2.2,0.2,3.3c0.2,0.7,0.7,1.3,1.2,1.9
					c0.3,0.4,0.7,0.7,1.1,0.9s0.9,0.3,1.4,0.2c0.4-0.1,0.8-0.4,1.1-0.7s0.5-0.8,0.6-1.2c0.4-1.3,0.3-2.6-0.1-3.9
					c-0.3-0.9-0.7-1.8-1.5-2.4c-0.3-0.3-0.8-0.5-1.2-0.6c-0.4-0.1-0.9-0.1-1.3,0.1c-0.5,0.2-0.8,0.6-1,1.1S400.5,300.6,400.4,301.1
					L400.4,301.1z"/>
				<g id="path29465-8_2_">
					
						<linearGradient id="SVGID_55_" gradientUnits="userSpaceOnUse" x1="452.5349" y1="161.8197" x2="455.3849" y2="156.7242" gradientTransform="matrix(1 0 0 -1 -50.0002 460.3622)">
						<stop  offset="0" style="stop-color:#757574;stop-opacity:0"/>
						<stop  offset="0.2629" style="stop-color:#757574"/>
						<stop  offset="0.5" style="stop-color:#757574"/>
						<stop  offset="1" style="stop-color:#757574;stop-opacity:0"/>
					</linearGradient>
					<path class="st67" d="M402.8,300.3c0.1,0.3,0.5,0.4,0.7,0.7c0.2,0.2,0.4,0.5,0.5,0.8c0.2,0.6-0.2,1.4,0.2,1.8
						c0.1,0.1,0.4,0.1,0.6,0c0.6-0.5,0.4-1.5,0.2-2.3c-0.2-0.7-0.7-1.3-1.3-1.6c-0.3-0.1-0.7-0.3-1-0.1
						C402.7,299.8,402.7,300.1,402.8,300.3z"/>
				</g>
			</g>
			<g id="g29634-9_2_" transform="translate(-79,-9.0000017)">
				
					<radialGradient id="path28461-2_1_" cx="456.8357" cy="162.1814" r="15.1995" gradientTransform="matrix(0.9362 -0.3864 -0.2713 -0.6574 -76.7781 595.3119)" gradientUnits="userSpaceOnUse">
					<stop  offset="0" style="stop-color:#D2940A"/>
					<stop  offset="0.7514" style="stop-color:#D89C08"/>
					<stop  offset="0.8658" style="stop-color:#B67E07"/>
					<stop  offset="1" style="stop-color:#946106"/>
				</radialGradient>
				<path id="path28461-2_2_" class="st68" d="M288.4,314.7c0,0.1,0.1,0.3,0.2,0.4c0.1,0.2,0.3,0.4,0.5,0.5c0.2,0.1,0.4,0.3,0.6,0.4
					c1.1,0.7,2.1,1.7,2.9,2.8c1.1,1.4,2.1,3,3.6,4c1,0.7,2.3,1.2,3.6,1.3c1.5,0.1,3-0.1,4.4-0.5c1.3-0.4,2.6-0.9,3.8-1.7
					c2.2-1.4,4.1-3.4,6.6-4.3c0.5-0.2,1.1-0.3,1.6-0.6c0.5-0.2,1-0.6,1.3-1.1c0.2-0.5,0.2-1.1,0.3-1.6c0.1-0.6,0.3-1.2,0.4-1.7
					c0.1-0.6,0.1-1.2-0.1-1.7c-0.2-0.4-0.6-0.8-1-1c-0.4-0.2-0.9-0.3-1.4-0.3c-1,0-1.9,0.2-2.9,0.3c-1.3,0.1-2.6,0-3.9,0
					c-1.6,0-3.2,0.4-4.8,0.5c-1.8,0.1-3.7-0.2-5.5-0.3c-0.8,0-1.6,0-2.4,0.1c-0.8,0.1-1.6,0.4-2.2,0.9c-0.6,0.4-1.2,1-1.7,1.6
					c-0.3,0.3-0.6,0.5-1,0.7c-0.4,0.2-0.7,0.3-1.1,0.3c-0.2,0-0.4,0-0.6,0c-0.1,0-0.2,0.1-0.3,0.2c-0.1,0.1-0.2,0.2-0.2,0.3
					C288.7,314.2,288.5,314.4,288.4,314.7z"/>
				<g id="path28487-2_2_">
					<path class="st69" d="M295.6,316.7c-0.2,0.8-0.1,1.6,0.3,2.3c0.4,0.7,1,1.2,1.8,1.5c1,0.3,2.1,0.2,3-0.3c0.5-0.3,1-0.7,1.3-1.2
						c0.2-0.3,0.3-0.5,0.3-0.8c0-0.3,0-0.6-0.1-0.9c-0.1-0.3-0.3-0.6-0.6-0.8c-0.2-0.2-0.5-0.4-0.8-0.5c-0.6-0.2-1.3-0.2-1.9-0.2
						c-1,0-2,0.2-2.9,0.4"/>
				</g>
				<g id="path27476-7-8_2_">
					<path class="st70" d="M292.5,310.6c-0.7,0.4-1.3,0.8-1.9,1.3c-0.3,0.2-0.7,0.5-0.8,0.8c-0.1,0.3-0.1,0.5-0.2,0.8s0,0.6,0,0.8
						c0,0.2-0.1,0.4-0.1,0.6c0,0.1,0,0.2,0,0.3c0,0.1,0.1,0.2,0.1,0.2c0.1,0.1,0.2,0.1,0.3,0.2c0.1,0,0.2,0.1,0.4,0.1
						c0.6,0.1,1.1,0.5,1.5,0.9c0.4,0.4,0.8,0.8,1.3,1.2c1.2,1,2.9,1.4,4.5,1.5c1.6,0,3.2-0.3,4.7-0.7c1.2-0.3,2.5-0.6,3.6-1
						c1.8-0.7,3.5-1.7,4.9-2.9c0.7-0.6,1.3-1.2,2-1.7c0.7-0.4,1.4-0.7,2.1-1.1c0.1,0,0.1-0.1,0.2-0.1c0.1,0,0.1-0.1,0.1-0.2
						c0.1-0.1,0.1-0.2,0-0.3c0-0.1-0.1-0.2-0.2-0.3c-0.1-0.1-0.2-0.2-0.3-0.3c-0.7-0.6-1.6-0.8-2.6-0.9c-0.9-0.1-1.8,0-2.7-0.2
						c-0.8-0.1-1.7-0.5-2.5-0.7c-0.9-0.3-1.7-0.5-2.6-0.6c-2.1-0.3-4.3-0.3-6.3,0.2C296.1,308.8,294.2,309.6,292.5,310.6
						L292.5,310.6z"/>
				</g>
				
					<linearGradient id="path27476-4_1_" gradientUnits="userSpaceOnUse" x1="438.9429" y1="149.1065" x2="466.5362" y2="149.3224" gradientTransform="matrix(1 0 0 -1 -150.0002 460.3622)">
					<stop  offset="0" style="stop-color:#AD780A"/>
					<stop  offset="0.1197" style="stop-color:#D89E08"/>
					<stop  offset="0.2551" style="stop-color:#EDB80B"/>
					<stop  offset="0.3919" style="stop-color:#EBC80D"/>
					<stop  offset="0.5274" style="stop-color:#F5D838"/>
					<stop  offset="0.7691" style="stop-color:#F6D811"/>
					<stop  offset="1" style="stop-color:#F5CD31"/>
				</linearGradient>
				<path id="path27476-4_2_" class="st71" d="M292.3,308.4c-0.9,0.6-1.8,1.4-2.5,2.3c-0.4,0.5-0.8,1.1-1,1.7
					c-0.2,0.5-0.2,1-0.3,1.5c0,0.2-0.1,0.4-0.1,0.6c0,0.1,0,0.2,0,0.3s0.1,0.2,0.1,0.2c0.1,0.1,0.3,0.2,0.4,0.2c0.2,0,0.3,0,0.5,0.1
					c0.7,0.1,1.4,0.4,2,0.8c0.6,0.4,1.1,0.9,1.7,1.3c1.3,0.8,2.9,1.2,4.5,1.3s3.2-0.2,4.7-0.5c1.2-0.2,2.5-0.5,3.6-1
					c1.8-0.7,3.4-1.8,4.9-2.9c0.7-0.5,1.4-1.1,2-1.7c0.2-0.2,0.4-0.4,0.6-0.6c0.2-0.2,0.5-0.4,0.8-0.4c0.4-0.1,0.9-0.1,1.3,0
					c0.3,0.1,0.7,0.1,1,0.1c0.2,0,0.3,0,0.5-0.1c0.2-0.1,0.3-0.2,0.4-0.3c0.1-0.2,0.2-0.4,0.2-0.6c0-0.2-0.1-0.4-0.2-0.6
					c-0.2-0.4-0.6-0.6-1-0.8c-0.6-0.2-1.2-0.4-1.8-0.5c-1.8-0.4-3.6-1.1-5.3-1.9c-0.8-0.4-1.7-0.9-2.5-1.3c-0.8-0.5-1.7-0.9-2.6-1.2
					c-2.1-0.6-4.3-0.4-6.3,0.3C295.8,305.2,293.8,306.6,292.3,308.4L292.3,308.4z"/>
				<g id="path28357-7_2_">
					<path class="st72" d="M306.7,308.9c-0.1-0.1-0.3-0.2-0.4-0.3c-0.2-0.1-0.4-0.1-0.5,0c-0.4,0.1-0.7,0.2-1,0.5
						c-0.8,0.6-1.6,1.3-2.2,2.1c-0.9,1-1.6,2.2-1.8,3.6c0,0.2-0.1,0.5,0,0.7c0,0.2,0.1,0.4,0.3,0.6c0.1,0.1,0.3,0.2,0.5,0.3
						c0.2,0,0.4,0,0.6-0.1c0.4-0.1,0.7-0.4,1-0.7c1.6-1.5,3.1-3.2,3.7-5.3c0.1-0.2,0.1-0.4,0.1-0.6
						C306.9,309.3,306.9,309,306.7,308.9L306.7,308.9z"/>
				</g>
				<g id="path28396-7_2_" class="st73">
					
						<radialGradient id="SVGID_56_" cx="243.9991" cy="131.0896" r="1.5781" gradientTransform="matrix(1 0 0 -0.5833 59.9998 382.4585)" gradientUnits="userSpaceOnUse">
						<stop  offset="0" style="stop-color:#3A2903"/>
						<stop  offset="0.5547" style="stop-color:#735208"/>
						<stop  offset="1" style="stop-color:#AC8C04"/>
					</radialGradient>
					<path class="st74" d="M302.8,305.8c0.1,0.4,0.7,0.3,1,0.5c0.3,0.2,0.5,0.5,0.9,0.5c0.3,0,0.8-0.1,0.9-0.4
						c0.1-0.4-0.6-0.7-0.9-0.8c-0.5-0.2-1.1-0.3-1.6,0C302.9,305.6,302.8,305.7,302.8,305.8z"/>
				</g>
				<g id="path28398-7_2_" class="st73">
					
						<radialGradient id="SVGID_57_" cx="236.8922" cy="156.5364" r="0.7499" gradientTransform="matrix(1 0 0 -1.0751 59.9998 474.3849)" gradientUnits="userSpaceOnUse">
						<stop  offset="0" style="stop-color:#3A2903"/>
						<stop  offset="0.5547" style="stop-color:#735208"/>
						<stop  offset="1" style="stop-color:#AC8C04"/>
					</radialGradient>
					<path class="st75" d="M297.2,305.6c-0.4-0.1-1.2,0.6-0.9,1c0.1,0.1,0.3,0.2,0.4,0.2c0.2-0.1,0.4-0.5,0.6-0.7
						C297.4,306.1,297.4,305.7,297.2,305.6z"/>
				</g>
				<g id="path28570-8_2_">
					
						<linearGradient id="SVGID_58_" gradientUnits="userSpaceOnUse" x1="409.0021" y1="158.807" x2="409.2159" y2="157.4635" gradientTransform="matrix(1.0956 0 0.1702 -1.5181 -158.5813 551.4883)">
						<stop  offset="0" style="stop-color:#F5CE2D"/>
						<stop  offset="1" style="stop-color:#D79B08"/>
					</linearGradient>
					<path class="st76" d="M318,311.3c-0.1,1-0.8,1.7-1.6,1.7s-1.3-0.8-1.2-1.7s0.8-1.7,1.6-1.7C317.5,309.6,318.1,310.4,318,311.3z
						"/>
				</g>
			</g>
			<g>
				<defs>
					<path id="SVGID_59_" d="M213.5,284.8c-0.9,0-1.7,0.4-2.3,1s-1.1,1.4-1.4,2.2c-0.6,1.7-0.4,3.4-0.3,5.2c0.1,1.6,0.2,3.2,0.8,4.6
						c0.3,0.7,0.7,1.4,1.3,2c0.6,0.6,1.2,1,2,1.2c0.7,0.2,1.5,0.1,2.2-0.1c0.7-0.2,1.4-0.6,1.9-1.1c0.8-0.8,1.3-1.7,1.6-2.8
						c0.3-1,0.4-2.1,0.4-3.2c0-1.4-0.2-2.7-0.6-4s-1.1-2.5-2-3.5c-0.5-0.5-1-0.9-1.6-1.2C214.9,285,214.2,284.8,213.5,284.8"/>
				</defs>
				<clipPath id="SVGID_60_">
					<use xlink:href="#SVGID_59_"  style="overflow:visible;"/>
				</clipPath>
				
					<radialGradient id="path29551-9_1_" cx="-3.677" cy="53.6361" r="17.3491" gradientTransform="matrix(0.2014 -3.316079e-02 -3.065006e-02 -0.1862 216.1821 297.8069)" gradientUnits="userSpaceOnUse">
					<stop  offset="0" style="stop-color:#C8C8C8"/>
					<stop  offset="1" style="stop-color:#797978"/>
				</radialGradient>
				<path id="path29551-9_2_" class="st77" d="M211.7,288.3c1.3-0.8,2.9-1,4.4-0.8c1.5,0.1,3,0.6,4.5,1c1.1,0.3,2.2,0.6,3.2,1
					s2,1.2,2.5,2.2c0.1,0.2,0.2,0.3,0.3,0.5c0.1,0.2,0.2,0.3,0.4,0.4c0.1,0.1,0.3,0.2,0.5,0.2c0.1,0,0.2,0,0.3-0.1s0.1-0.1,0.2-0.2
					c0-0.1,0.1-0.2,0.1-0.3c0-0.1,0-0.2-0.1-0.3c-0.4-1.3-1.2-2.5-1.9-3.7c-0.4-0.7-0.7-1.5-1.1-2.2c-1.4-2.5-3.6-4.5-6.2-5.8
					c-2.6-1.3-5.4-1.9-8.3-2.1c-3.3-0.2-6.7,0.2-9.9,0.8c-1.4,0.3-2.9,0.5-4.1,1.3c-0.6,0.4-1.2,0.8-1.7,1.4c-0.4,0.6-0.8,1.2-0.9,2
					c-0.1,0.7,0,1.4,0.2,2c0.2,0.7,0.6,1.2,1.1,1.8c0.9,1.1,2,1.9,3,2.8c1,0.9,2,2,3.2,2.7c0.6,0.4,1.2,0.7,1.9,0.9s1.4,0.2,2.1,0.1
					c0.7-0.1,1.4-0.5,1.9-0.9c0.6-0.4,1.1-1,1.5-1.5C209.6,290.3,210.4,289.1,211.7,288.3z"/>
			</g>
			<path id="path29705-5-0_2_" class="st54" d="M257.9,335.2c3,2.4,4.9,6,5.4,9.8c0.5,2.9,0.2,6-0.5,8.9c-0.7,2.9-1.7,5.7-2.7,8.5
				c-0.4,1.1-0.8,2.2-1,3.4c-0.2,1.2-0.1,2.4,0.5,3.5c0.6,1.2,1.9,2,3.2,2.4c1.3,0.4,2.7,0.4,4,0c1.3-0.3,2.5-1,3.6-1.8
				c2.7-2.1,4.3-5.3,4.9-8.7c0.6-3.4,0.3-6.8-0.2-10.2c-0.8-4.6-2.1-9.1-3.8-13.4c-1.3-3.2-2.7-6.3-4.8-9c-2-2.7-4.5-4.9-6.5-7.6
				c-1.4-1.9-2.5-4-4.1-5.6c-0.8-0.8-1.8-1.5-2.9-2c-1.1-0.4-2.3-0.5-3.4-0.2c-1.5,0.4-2.7,1.6-3.3,3c-0.6,1.4-0.8,3-0.5,4.5
				c0.3,2,1.2,3.8,2.2,5.5c1.1,1.9,2.5,3.8,4.2,5.2C254,332.8,256.1,333.7,257.9,335.2L257.9,335.2z"/>
			<g>
				<defs>
					<path id="SVGID_61_" d="M257.9,335.2c3,2.4,4.9,6,5.4,9.8c0.9,5.9-1.2,11.8-3.2,17.4c-0.4,1.1-0.8,2.2-1,3.4
						c-0.2,1.2-0.1,2.4,0.5,3.5c0.6,1.2,1.9,2,3.2,2.4c1.3,0.4,2.7,0.4,4,0c1.3-0.3,2.5-1,3.6-1.8c2.7-2.1,4.4-5.4,5-8.7
						c0.6-3.4,0.3-6.8-0.3-10.2c-0.8-4.6-2.1-9.1-3.8-13.4c-1.3-3.2-2.7-6.3-4.8-9c-2-2.7-4.6-4.9-6.5-7.6c-1.4-1.9-2.4-4-4.1-5.6
						c-0.8-0.8-1.8-1.5-2.9-2c-1.1-0.4-2.3-0.5-3.4-0.2c-0.7,0.2-1.4,0.6-2,1.1c-0.6,0.5-1,1.2-1.3,1.9c-0.6,1.4-0.7,3-0.5,4.5
						c0.3,1.9,1.2,3.8,2.2,5.5c1.1,1.9,2.4,3.8,4.2,5.2C254,332.8,256.1,333.8,257.9,335.2"/>
				</defs>
				<clipPath id="SVGID_62_">
					<use xlink:href="#SVGID_61_"  style="overflow:visible;"/>
				</clipPath>
				<g id="path29705-9_2_" class="st78">
					<path class="st79" d="M250.9,330.6c0.2,0.2,0.5,0.5,0.7,0.7c1.8,1.5,2.8,3.2,4.6,4.6c3,2.4,6.1,6.5,6.7,10.3
						c0.5,2.9-0.1,4.5-0.9,8c-0.7,3.5-2.9,8.4-4,11.7c-0.5,1.3,0.9,0.8,0.7,2.2c-0.1,0.7-0.1,1.4,0,2.1c0-0.1,0-0.3,0-0.4
						c0.2-1.9,0.8-3.8,1.4-5.6c1.2-3.5,2.6-6.9,3.6-10.5c1-3.6,0.9-6.1,0.4-9.2c-0.6-3.9-2.9-7.4-6.1-9.8
						C256,333.1,253.3,332.1,250.9,330.6L250.9,330.6z"/>
				</g>
			</g>
			<g id="path4400-1_2_" class="st80">
				
					<radialGradient id="SVGID_63_" cx="614.8561" cy="109.6991" r="13.3819" gradientTransform="matrix(-0.8062 0 0 -0.7634 696.0621 415.5878)" gradientUnits="userSpaceOnUse">
					<stop  offset="0" style="stop-color:#000000"/>
					<stop  offset="1" style="stop-color:#000000;stop-opacity:0.2489"/>
				</radialGradient>
				<path class="st81" d="M204.6,328.4c0.5,0.7-0.3,3.3,11.3,1.7c0,0-2,0.2-4,0.7c-3.1,1-5.8,2.2-7.9,3.7c-2.1,1.5-3.6,3.5-5.5,5.2
					c0,0,3.1-5.6,3.8-7.3s-0.1-1.6,0.5-4.1c0.6-2.5,2.1-4.9,2.1-4.9S203.6,327,204.6,328.4z"/>
			</g>
			<g id="path4400-2-8_2_" class="st82">
				
					<radialGradient id="SVGID_64_" cx="386.9552" cy="101.9663" r="13.3819" gradientTransform="matrix(1 0 0 -0.7634 -150.0002 415.5878)" gradientUnits="userSpaceOnUse">
					<stop  offset="0" style="stop-color:#000000"/>
					<stop  offset="1" style="stop-color:#000000;stop-opacity:0.2489"/>
				</radialGradient>
				<path class="st83" d="M241.8,327.8c-2.4,1.6-3.7,1.4-6.6,1.8s-10.6,0.2-10.6,0.2s1.1,0,3.6,0.4c2.5,0.5,7.5,0.9,10.4,2
					s3.9,1.4,5.6,2.5c2.5,1.6,4.3,4,6.6,5.7c0,0,0.1-2.3-0.8-4c-1-1.7-3.5-4.4-4.3-6.9c-0.8-2.5-1.1-7.4-1.1-7.4
					S244.2,326.1,241.8,327.8L241.8,327.8z"/>
			</g>
			<g id="path4491-9_2_" class="st84">
				
					<radialGradient id="SVGID_65_" cx="369.0787" cy="107.1956" r="5.2985" gradientTransform="matrix(1 0 0 -1.0692 -150.0002 450.0283)" gradientUnits="userSpaceOnUse">
					<stop  offset="0" style="stop-color:#000000"/>
					<stop  offset="1" style="stop-color:#000000;stop-opacity:0.2489"/>
				</radialGradient>
				<path class="st85" d="M219.6,324.3c-0.1,0.7-0.2,1.4-0.3,2.1c-0.1,0.3-0.1,0.7-0.3,1c-0.1,0.3-0.3,0.6-0.6,0.9
					c-0.2,0.2-0.5,0.3-0.8,0.5c-1.1,0.5-2.3,0.8-3.5,1c0.5,0,1,0.1,1.4,0.1c0.3,0,0.6,0.1,0.9,0.1c0.3,0.1,0.6,0.2,0.8,0.4
					c0.3,0.2,0.5,0.5,0.6,0.8c0.3,0.6,0.4,1.3,0.5,1.9c0.1,0.8,0.1,1.7,0,2.5c0.1-0.6,0.2-1.1,0.4-1.7c0.3-1,0.8-1.9,1.5-2.6
					c0.3-0.3,0.6-0.6,0.9-0.8c1-0.7,2.3-1,3.5-0.9c-1.3,0.1-2.5-0.3-3.5-1.1c-0.5-0.4-1-0.9-1.3-1.4
					C219.5,326.3,219.4,325.2,219.6,324.3L219.6,324.3z"/>
			</g>
			<g id="path4542-7_2_" class="st86">
				<path d="M216.6,340.9c-0.6,2.3-1,4.6-1.2,7c-0.3,3.3-0.2,6.7-0.4,10c-0.2,2.8-0.5,5.7,0,8.5c0.2,1.3,0.7,2.6,1.2,3.8
					c0.1-0.5,0.2-0.9,0.2-1.4c0.2-2.3-0.2-4.5-0.3-6.8c-0.2-4,0.3-8,0.5-11.9C216.8,347,216.8,343.9,216.6,340.9L216.6,340.9z"/>
			</g>
			<g id="path4596-3_2_">
				<path class="st79" d="M244.1,306.6c-1.1,1,0.5,2.4,1.2,4.1c0.5,1.1,1.7,2.5,2.9,2.3c0.9-0.2,1.5-1.5,1.4-2.4
					c-0.2-1.8-1.7-2.2-2.8-2.8C246,307.2,244.8,305.9,244.1,306.6z"/>
			</g>
			<g id="g17048_2_" transform="translate(21,-9.0000017)">
				<g id="path14483-7-4_2_" class="st84">
					
						<linearGradient id="SVGID_66_" gradientUnits="userSpaceOnUse" x1="392.5628" y1="69.3645" x2="394.3688" y2="55.8875" gradientTransform="matrix(1.0269 0 0 -1 -165.1098 460.3622)">
						<stop  offset="0" style="stop-color:#000000"/>
						<stop  offset="1" style="stop-color:#000000;stop-opacity:0"/>
					</linearGradient>
					<path class="st87" d="M256.9,394.4c-0.2,0.8-0.6,1.5-1,2.2c-1,1.5-2.4,2.6-3.9,3.6c-2.5,1.7-5,3.3-7.3,5.3
						c-1.5,1.3-2.9,2.8-4.2,4.4c-1.1,1.3-2.1,2.7-3.4,3.9c-1.3,1.2-2.8,2.2-4.4,2.7c-2,0.6-4,0.6-5.9,0.1c-1.3-0.3-2.6-0.9-3.4-2
						c-0.8-1.1-1.1-2.5-1.2-3.9c-0.2-2.5,0.1-5.1,0.4-7.6c0.2-2.1,0.4-4.2,0.5-6.3c0.2-3.8-0.1-7.6-0.6-11.4
						c-0.1-0.6-0.2-1.3-0.1-1.9c0.1-0.6,0.3-1.3,0.7-1.8c0.4-0.5,1-0.7,1.6-0.9c0.6-0.1,1.2-0.1,1.8-0.2c1.4,0,2.8-0.1,4.1,0
						c0.9,0.1,1.7,0.2,2.5,0.3c1.4,0.1,2.9,0.1,4.3-0.4c1.5-0.5,3-1.3,4.6-1.5c0.6-0.1,1.3-0.1,1.9,0c0.6,0.1,1.3,0.3,1.8,0.7
						c0.4,0.3,0.6,0.7,0.9,1.1c0.3,0.6,0.5,1.4,0.6,2.1c0.1,0.6,0.1,1.3,0.3,1.9c0.3,1,0.9,1.9,1.6,2.6s1.6,1.3,2.5,1.8
						c0.9,0.6,1.7,1.1,2.7,1.6c0.4,0.2,0.9,0.4,1.3,0.7c0.4,0.2,0.8,0.5,1.1,0.9C256.9,393,257.1,393.7,256.9,394.4L256.9,394.4"/>
				</g>
				<g>
					<defs>
						<path id="SVGID_67_" d="M266.7,396.2c-0.3,0.8-0.8,1.6-1.4,2.3c-1.3,1.5-3.1,2.5-4.8,3.4c-3,1.5-6.2,2.9-9,4.7
							c-1.9,1.2-3.7,2.7-5.3,4.3c-1.4,1.3-2.7,2.8-4.3,3.9c-1.6,1.1-3.4,2-5.4,2.3c-2.4,0.4-4.8-0.1-7-1.1c-1.5-0.7-3-1.6-3.9-3
							c-0.9-1.4-1.1-3.2-1.1-4.8c0-3,0.5-5.9,1.1-8.8c0.4-2.4,0.8-4.9,1.1-7.3c0.5-4.5,0.5-9,0.2-13.4c-0.1-0.7-0.1-1.5,0-2.2
							c0.1-0.7,0.4-1.5,1-2c0.5-0.5,1.2-0.7,1.9-0.7c0.7,0,1.4,0.1,2.1,0.2c1.6,0.2,3.2,0.4,4.8,0.8c1,0.3,2,0.6,3,0.9
							c1.7,0.4,3.4,0.7,5.1,0.5c1.8-0.2,3.6-0.9,5.5-0.9c0.8,0,1.5,0.2,2.2,0.4c0.7,0.2,1.5,0.6,2,1.1c0.4,0.4,0.7,1,0.9,1.5
							c0.3,0.8,0.5,1.7,0.6,2.6c0.1,0.8,0.1,1.6,0.2,2.3c0.2,1.3,0.9,2.4,1.7,3.4s1.8,1.8,2.8,2.6c1,0.8,2,1.6,3,2.4
							c0.5,0.3,1,0.7,1.5,1c0.5,0.4,0.9,0.8,1.2,1.3C266.8,394.6,266.9,395.4,266.7,396.2L266.7,396.2"/>
					</defs>
					<clipPath id="SVGID_68_">
						<use xlink:href="#SVGID_67_"  style="overflow:visible;"/>
					</clipPath>
					
						<linearGradient id="path14296-0_1_" gradientUnits="userSpaceOnUse" x1="479.1391" y1="45.6547" x2="502.6302" y2="83.7412" gradientTransform="matrix(1 0 0 -1 -250.0002 460.3622)">
						<stop  offset="0" style="stop-color:#3E2A06"/>
						<stop  offset="1" style="stop-color:#AD780A"/>
					</linearGradient>
					<path id="path14296-0_2_" class="st88" d="M266.7,396.2c-0.3,0.8-0.8,1.6-1.4,2.3c-1.3,1.5-3.1,2.5-4.8,3.4
						c-3,1.5-6.2,2.9-9,4.7c-1.9,1.2-3.7,2.7-5.3,4.3c-1.4,1.3-2.7,2.8-4.3,3.9c-1.6,1.1-3.4,2-5.4,2.3c-2.4,0.4-4.8-0.1-7-1.1
						c-1.5-0.7-3-1.6-3.9-3c-0.9-1.4-1.1-3.2-1.1-4.8c0-3,0.5-5.9,1.1-8.8c0.4-2.4,0.8-4.9,1.1-7.3c0.5-4.5,0.5-9,0.2-13.4
						c-0.1-0.7-0.1-1.5,0-2.2c0.1-0.7,0.4-1.5,1-2c0.5-0.5,1.2-0.7,1.9-0.7c0.7,0,1.4,0.1,2.1,0.2c1.6,0.2,3.2,0.4,4.8,0.8
						c1,0.3,2,0.6,3,0.9c1.7,0.4,3.4,0.7,5.1,0.5c1.8-0.2,3.6-0.9,5.5-0.9c0.8,0,1.5,0.2,2.2,0.4c0.7,0.2,1.5,0.6,2,1.1
						c0.4,0.4,0.7,1,0.9,1.5c0.3,0.8,0.5,1.7,0.6,2.6c0.1,0.8,0.1,1.6,0.2,2.3c0.2,1.3,0.9,2.4,1.7,3.4c0.8,1,1.8,1.8,2.8,2.6
						c1,0.8,2,1.6,3,2.4c0.5,0.3,1,0.7,1.5,1s0.9,0.8,1.2,1.3C266.8,394.6,266.9,395.4,266.7,396.2L266.7,396.2z"/>
				</g>
				<g>
					<defs>
						<path id="SVGID_69_" d="M266.7,396.2c-0.3,0.8-0.8,1.6-1.4,2.3c-1.3,1.5-3.1,2.5-4.8,3.4c-3,1.5-6.2,2.9-9,4.7
							c-1.9,1.2-3.7,2.7-5.3,4.3c-1.4,1.3-2.7,2.8-4.3,3.9c-1.6,1.1-3.4,2-5.4,2.3c-2.4,0.4-4.8-0.1-7-1.1c-1.5-0.7-3-1.6-3.9-3
							c-0.9-1.4-1.1-3.2-1.1-4.8c0-3,0.5-5.9,1.1-8.8c0.4-2.4,0.8-4.9,1.1-7.3c0.5-4.5,0.5-9,0.2-13.4c-0.1-0.7-0.1-1.5,0-2.2
							c0.1-0.7,0.4-1.5,1-2c0.5-0.5,1.2-0.7,1.9-0.7c0.7,0,1.4,0.1,2.1,0.2c1.6,0.2,3.2,0.4,4.8,0.8c1,0.3,2,0.6,3,0.9
							c1.7,0.4,3.4,0.7,5.1,0.5c1.8-0.2,3.6-0.9,5.5-0.9c0.8,0,1.5,0.2,2.2,0.4c0.7,0.2,1.5,0.6,2,1.1c0.4,0.4,0.7,1,0.9,1.5
							c0.3,0.8,0.5,1.7,0.6,2.6c0.1,0.8,0.1,1.6,0.2,2.3c0.2,1.3,0.9,2.4,1.7,3.4s1.8,1.8,2.8,2.6c1,0.8,2,1.6,3,2.4
							c0.5,0.3,1,0.7,1.5,1c0.5,0.4,0.9,0.8,1.2,1.3C266.8,394.6,266.9,395.4,266.7,396.2L266.7,396.2"/>
					</defs>
					<clipPath id="SVGID_70_">
						<use xlink:href="#SVGID_69_"  style="overflow:visible;"/>
					</clipPath>
					<g id="path14296-3-7_2_" class="st89">
						<path class="st90" d="M265.2,394.7c-0.3,0.8-0.7,1.5-1.3,2.1c-1.2,1.4-2.8,2.3-4.4,3.1c-2.8,1.4-5.6,2.6-8.2,4.3
							c-1.7,1.1-3.3,2.4-4.8,3.8c-1.3,1.2-2.5,2.5-3.9,3.5c-1.5,1-3.1,1.8-4.9,2c-2.2,0.3-4.4-0.1-6.4-1c-1.4-0.6-2.7-1.5-3.6-2.7
							c-0.8-1.3-1-2.8-1-4.4c0-2.7,0.5-5.3,1-7.9c0.4-2.2,0.8-4.4,1-6.6c0.4-4,0.4-8.1,0.1-12.1c0-0.7-0.1-1.4,0-2
							c0.1-0.7,0.4-1.3,0.9-1.8c0.5-0.4,1.1-0.6,1.8-0.6c0.6,0,1.3,0.1,1.9,0.2c1.5,0.2,3,0.4,4.4,0.8c0.9,0.2,1.8,0.6,2.7,0.8
							c1.5,0.4,3.1,0.6,4.7,0.4c1.7-0.2,3.3-0.8,5-0.8c0.7,0,1.4,0.1,2,0.4c0.7,0.2,1.3,0.5,1.8,1c0.4,0.4,0.6,0.9,0.8,1.3
							c0.3,0.7,0.5,1.5,0.5,2.3c0,0.8-0.2,1.7-0.1,2.5c0.1,0.7,0.4,1.3,0.7,1.9c0.4,0.6,0.8,1.1,1.2,1.6c0.8,1,1.7,2,2.7,2.8
							c1.2,0.9,2.6,1.4,3.9,2.2c0.4,0.2,0.7,0.5,1,0.9C265.3,393.1,265.4,394,265.2,394.7L265.2,394.7z"/>
					</g>
				</g>
				<g>
					<defs>
						<path id="SVGID_71_" d="M266.7,396.2c-0.3,0.8-0.8,1.6-1.4,2.3c-1.3,1.6-3.1,2.5-4.8,3.4c-3,1.5-6.1,2.9-9,4.7
							c-1.9,1.2-3.7,2.7-5.3,4.3c-1.4,1.3-2.8,2.8-4.3,3.9c-1.6,1.2-3.4,2-5.4,2.3c-2.4,0.4-4.8-0.1-7-1.1c-1.5-0.6-3-1.6-3.9-3
							c-0.9-1.4-1.1-3.2-1.1-4.8c0-3,0.5-5.9,1.1-8.8c0.4-2.4,0.9-4.9,1.1-7.3c0.5-4.5,0.4-9,0.2-13.4c0-0.8-0.1-1.5,0-2.3
							c0.1-0.7,0.4-1.5,0.9-2c0.5-0.5,1.2-0.7,1.9-0.7c0.7,0,1.4,0.1,2.1,0.2c1.6,0.3,3.2,0.4,4.8,0.8c1,0.3,2,0.6,3,0.9
							c1.7,0.5,3.4,0.7,5.1,0.5c1.8-0.2,3.6-0.9,5.5-0.9c0.8,0,1.5,0.2,2.2,0.4c0.7,0.2,1.5,0.6,2,1.1c0.4,0.4,0.7,0.9,0.9,1.5
							c0.3,0.8,0.5,1.7,0.6,2.6c0.1,0.8,0.1,1.6,0.2,2.3c0.2,1.3,0.9,2.5,1.7,3.4c0.8,1,1.8,1.8,2.8,2.6c1,0.8,2,1.6,3,2.4
							c0.5,0.3,1,0.6,1.5,1c0.5,0.4,0.9,0.8,1.2,1.3C266.7,394.5,266.9,395.4,266.7,396.2L266.7,396.2"/>
					</defs>
					<clipPath id="SVGID_72_">
						<use xlink:href="#SVGID_71_"  style="overflow:visible;"/>
					</clipPath>
					<g id="path14296-3-1-9_2_" class="st91">
						<path class="st92" d="M265,393.8c-0.3,0.8-0.8,1.5-1.3,2.1c-1.2,1.5-2.8,2.5-4.5,3.1c-2.8,1.1-5.9,1.2-8.7,2.4
							c-1.7,0.7-3.2,1.9-4.7,2.9c-1.2,0.8-2.5,1.7-3.9,2.3c-1.5,0.7-3.2,1-4.8,1.3c-1,0.2-2.1,0.3-3.2,0.2c-1.1-0.1-2.1-0.3-3-0.8
							c-0.7-0.4-1.3-1-1.7-1.8c-0.4-0.8-0.5-1.8-0.5-2.8c0-2.6,0.6-5.1,0.6-7.6c0-2.2-0.5-4.4-0.6-6.6c-0.2-4.3,0.7-8.6-0.1-12.8
							c-0.1-0.7-0.3-1.3-0.3-2c0-0.3,0.1-0.7,0.2-1c0.1-0.3,0.3-0.6,0.6-0.8c0.2-0.2,0.5-0.3,0.7-0.3c0.3,0,0.5,0,0.8,0
							c0.5,0.1,1,0.3,1.5,0.4c1.5,0.4,3,0.4,4.5,0.8c0.9,0.2,1.9,0.5,2.8,0.8c1.6,0.4,3.2,0.6,4.8,0.4c1.7-0.2,3.4-0.8,5.1-0.8
							c0.7,0,1.4,0.2,2.1,0.4c0.7,0.2,1.4,0.5,1.9,1c0.4,0.4,0.6,0.9,0.9,1.4c0.3,0.7,0.5,1.5,0.5,2.3c0,0.4-0.1,0.8-0.1,1.3
							c0,0.4,0,0.8,0.1,1.3c0.1,0.4,0.3,0.8,0.5,1.1c0.2,0.3,0.5,0.6,0.8,1c0.7,0.9,1.2,2,1.7,3c0.5,1,1.1,2,2,2.8
							c1.2,1,2.7,1.4,4,2.2c0.4,0.2,0.7,0.5,1,0.9c0.2,0.3,0.4,0.7,0.4,1C265.2,393.1,265.1,393.5,265,393.8L265,393.8z"/>
					</g>
				</g>
				<g id="path16493_2_">
					
						<linearGradient id="SVGID_73_" gradientUnits="userSpaceOnUse" x1="391.4286" y1="84.3222" x2="390.7377" y2="78.104" gradientTransform="matrix(1 0 0 -1 -150.0002 460.3622)">
						<stop  offset="0" style="stop-color:#F3CD0C"/>
						<stop  offset="1" style="stop-color:#F3CD0C;stop-opacity:0"/>
					</linearGradient>
					<path class="st93" d="M228.2,376.1c1.6-0.4,3,0.8,4.1,1.7c0.8,0.6,1.8,0.5,2.8,0.5c1.5-0.1,3,0.3,4.6,0.1c3-0.3,5.9-1,9-1.1
						c1.4-0.1,3.1-0.2,4.3,0.7c0.5,0.3,1.2,1.8,1.7,1.3c-0.2-1.6-1.4-3.1-2.9-3.5c-1.2-0.2-2.4,0.1-3.7,0c-3.6-0.1-7.2-0.8-10.9-0.6
						c-2.5,0-5.1-0.1-7.6-0.2c-1-0.2-1.3,0.7-1.9,1"/>
				</g>
			</g>
			<g id="path15189-4_2_" class="st94">
				<path class="st61" d="M256.4,337.5c0.6-0.1,4.2,3,3.7,4.1c-0.5,1.1-1.4,0.4-2.1,0.5c-0.7,0-2.5,0.8-2.8,0.3
					c-0.3-0.5,0.8-1.7,1.4-2.7C257.1,338.9,255.8,337.6,256.4,337.5L256.4,337.5z"/>
			</g>
			<g id="path28767-9-3_2_" class="st80">
				<path class="st61" d="M205.9,318.4c-0.1-0.7-1.1-0.8-1.5-0.5c-0.4,0.3-0.7,1.3-0.4,1.7C204.5,320.3,206,319.3,205.9,318.4z"/>
			</g>
			<g id="g14955-4_2_" transform="translate(21,-9.0000017)">
				<g id="path29714-8-2_2_" class="st95">
					
						<radialGradient id="SVGID_74_" cx="421.6844" cy="37.8717" r="8.2299" gradientTransform="matrix(1.3082 0.3505 0.368 -1.3732 -324.7019 286.6163)" gradientUnits="userSpaceOnUse">
						<stop  offset="0" style="stop-color:#110800"/>
						<stop  offset="0.5907" style="stop-color:#A65A00;stop-opacity:0.8"/>
						<stop  offset="1" style="stop-color:#FF921E;stop-opacity:0"/>
					</radialGradient>
					<path class="st96" d="M249.8,378.5c-0.3-0.5-0.8-0.9-1.3-1.2c-0.6-0.2-1.2-0.3-1.8-0.3c-1.2,0-2.4,0.3-3.6,0.2
						c-1-0.1-2-0.5-3-0.7c-1-0.2-2.1-0.3-3.1-0.1c-1.1,0.3-2,1-2.6,2c-0.5,0.8-0.8,1.8-0.9,2.8s0,2,0.1,3c0.1,0.7,0.2,1.4,0.3,2.1
						c0.2,0.7,0.4,1.4,0.9,2c0.6,0.8,1.5,1.4,2.5,1.8c1.6,0.6,3.4,0.6,4.9-0.1c2.8-1.2,5.1-3.4,6.5-6c0.5-1,0.9-2,1.2-3
						c0.1-0.4,0.2-0.8,0.2-1.3C250.1,379.3,250,378.9,249.8,378.5L249.8,378.5z"/>
				</g>
				<g id="path29714-8-3-0_2_" class="st95">
					
						<radialGradient id="SVGID_75_" cx="418.6811" cy="48.5497" r="8.2299" gradientTransform="matrix(1.3082 0.2534 0.368 -0.9927 -324.7019 322.8721)" gradientUnits="userSpaceOnUse">
						<stop  offset="0" style="stop-color:#110800"/>
						<stop  offset="0.5907" style="stop-color:#A65A00;stop-opacity:0.8"/>
						<stop  offset="1" style="stop-color:#FF921E;stop-opacity:0"/>
					</radialGradient>
					<path class="st97" d="M249.8,377.9c-0.3-0.4-0.8-0.7-1.3-0.8c-0.6-0.2-1.2-0.2-1.8-0.2c-1.2,0-2.4,0.2-3.6,0.2
						c-1-0.1-2-0.3-3-0.5c-1-0.2-2.1-0.3-3.1-0.1c-1.1,0.2-2,0.7-2.6,1.4c-0.5,0.6-0.8,1.3-0.9,2s0,1.4,0.1,2.2
						c0.1,0.5,0.2,1,0.3,1.5c0.2,0.5,0.4,1,0.9,1.4c0.6,0.6,1.5,1,2.5,1.3c1.6,0.4,3.4,0.4,4.9-0.1c2.8-0.9,5.1-2.4,6.5-4.3
						c0.5-0.7,0.9-1.4,1.2-2.2c0.1-0.3,0.2-0.6,0.2-0.9S250,378.2,249.8,377.9L249.8,377.9z"/>
				</g>
			</g>
			<g id="g14884-8_2_" transform="translate(21,-9.0000017)">
				<path id="path29714-5-4_2_" class="st54" d="M252.1,373.5c-0.2-0.5-0.5-1-1-1.4s-0.9-0.7-1.5-0.9c-1.1-0.4-2.2-0.6-3.3-0.8
					c-1.1-0.2-2.1-0.4-3.2-0.6c-1.1-0.2-2.3-0.3-3.4-0.1c-1,0.2-1.8,0.7-2.6,1.4c-0.7,0.7-1.3,1.5-1.7,2.4c-0.7,1.6-0.9,3.4-0.8,5.1
					c0.1,1.3,0.4,2.6,1.3,3.6c0.7,0.8,1.7,1.3,2.7,1.6c1.7,0.5,3.6,0.5,5.3-0.1c2.8-0.9,5.3-2.8,7-5.3c0.6-0.8,1-1.7,1.2-2.6
					C252.4,374.9,252.4,374.2,252.1,373.5L252.1,373.5z"/>
				<g>
					<defs>
						<path id="SVGID_76_" d="M252.1,373.5c-0.2-0.5-0.5-1-1-1.4c-0.4-0.4-0.9-0.7-1.5-0.9c-1.1-0.4-2.2-0.6-3.3-0.8
							c-1.1-0.2-2.1-0.4-3.2-0.6c-1.1-0.2-2.3-0.3-3.4-0.1c-1,0.2-1.8,0.7-2.6,1.4c-0.7,0.7-1.3,1.5-1.7,2.4
							c-0.7,1.6-0.9,3.4-0.8,5.1c0.1,1.3,0.4,2.6,1.3,3.6c0.7,0.8,1.7,1.3,2.7,1.6c1.7,0.5,3.6,0.5,5.3-0.1c2.8-0.9,5.3-2.8,7-5.3
							c0.6-0.8,1-1.7,1.2-2.6C252.4,374.9,252.4,374.2,252.1,373.5"/>
					</defs>
					<clipPath id="SVGID_77_">
						<use xlink:href="#SVGID_76_"  style="overflow:visible;"/>
					</clipPath>
					<g id="path29714-3-9-9_2_" class="st98">
						
							<radialGradient id="SVGID_78_" cx="167.6759" cy="-50.714" r="10.0336" gradientTransform="matrix(0.3603 0.1568 7.246786e-02 -0.1665 192.5844 337.5774)" gradientUnits="userSpaceOnUse">
							<stop  offset="0" style="stop-color:#7C7C7C"/>
							<stop  offset="1" style="stop-color:#7C7C7C;stop-opacity:0.3294"/>
						</radialGradient>
						<path class="st99" d="M240.4,369.1c-0.3,0-0.5,0-0.8,0.1c-1.7,0.3-3.2,1.4-4.1,2.9c-0.6,1-0.9,2.3-0.8,3.5
							c0-0.9,0.3-1.7,0.7-2.4c0.7-1.3,2-2.2,3.4-2.5c0.9-0.2,1.8-0.1,2.7,0c0.8,0.1,1.7,0.2,2.5,0.4c1.3,0.3,2.6,0.7,3.6,1.5
							c0.3,0.2,0.5,0.4,0.7,0.6c0.2,0.2,0.4,0.5,0.4,0.8c0.1,0.4,0,0.9-0.3,1.3c-0.2,0.4-0.5,0.7-0.8,1.1c-0.3,0.3-0.5,0.5-0.8,0.7
							c1.3-0.2,2.5-0.6,3.6-1.3c0.4-0.3,0.8-0.7,1.1-1.1s0.4-1,0.2-1.6c-0.1-0.4-0.3-0.7-0.5-0.9c-0.2-0.3-0.5-0.5-0.8-0.7
							c-1.3-0.9-2.8-1.5-4.4-1.7c-1-0.2-2-0.3-3.1-0.5C242,369.2,241.2,369.1,240.4,369.1L240.4,369.1z"/>
					</g>
				</g>
				<g>
					<defs>
						<path id="SVGID_79_" d="M252.1,373.5c-0.2-0.5-0.5-1-1-1.4c-0.4-0.4-0.9-0.7-1.5-0.9c-1.1-0.4-2.2-0.6-3.3-0.8
							c-1.1-0.2-2.1-0.4-3.2-0.6c-1.1-0.2-2.3-0.3-3.4-0.1c-1,0.2-1.8,0.7-2.6,1.4c-0.7,0.7-1.3,1.5-1.7,2.4
							c-0.7,1.6-0.9,3.4-0.8,5.1c0.1,1.3,0.4,2.6,1.3,3.6c0.7,0.8,1.7,1.3,2.7,1.6c1.7,0.5,3.6,0.5,5.3-0.1c2.8-0.9,5.3-2.8,7-5.3
							c0.6-0.8,1-1.7,1.2-2.6C252.4,374.9,252.4,374.2,252.1,373.5"/>
					</defs>
					<clipPath id="SVGID_80_">
						<use xlink:href="#SVGID_79_"  style="overflow:visible;"/>
					</clipPath>
					<g id="path29714-3-9-3-8_2_" class="st100">
						
							<linearGradient id="SVGID_81_" gradientUnits="userSpaceOnUse" x1="388.7172" y1="87.0457" x2="390.1829" y2="87.1067" gradientTransform="matrix(1 0 0 -1 -150.0002 460.3622)">
							<stop  offset="0" style="stop-color:#7C7C7C"/>
							<stop  offset="1" style="stop-color:#7C7C7C;stop-opacity:0.3294"/>
						</linearGradient>
						<path class="st101" d="M240.4,369.1c-0.3,0-0.5,0-0.8,0.1c-1.7,0.3-3.2,1.4-4.1,2.9c-0.6,1-0.9,2.3-0.8,3.5
							c0-0.9,0.3-1.7,0.7-2.4c0.7-1.3,2-2.2,3.4-2.5c0.9-0.2,1.8-0.1,2.7,0c0.8,0.1,1.7,0.2,2.5,0.4c1.3,0.3,2.6,0.7,3.6,1.5
							c0.3,0.2,0.5,0.4,0.7,0.6c0.2,0.2,0.4,0.5,0.4,0.8c0.1,0.4,0,0.9-0.3,1.3c-0.2,0.4-0.5,0.7-0.8,1.1c-0.3,0.3-0.5,0.5-0.8,0.7
							c1.3-0.2,2.5-0.6,3.6-1.3c0.4-0.3,0.8-0.7,1.1-1.1s0.4-1,0.2-1.6c-0.1-0.4-0.3-0.7-0.5-0.9c-0.2-0.3-0.5-0.5-0.8-0.7
							c-1.3-0.9-2.8-1.5-4.4-1.7c-1-0.2-2-0.3-3.1-0.5C242,369.2,241.2,369.1,240.4,369.1L240.4,369.1z"/>
					</g>
				</g>
			</g>
			<g id="g15037-4_2_" transform="translate(21,-9.0000017)">
				<path id="path14967-1-0_2_" class="st54" d="M184.9,324.2c-1.4,1.7-2.7,3.4-4.1,5.1c-1.4,1.8-2.8,3.5-4.2,5.3
					c-1.7,2.1-3.5,4.3-4.6,6.8c-1,2.2-1.4,4.5-2.1,6.8c-0.8,2.6-1.8,5.1-2.9,7.5c-1.1,2.2-2.2,4.4-3.4,6.6c-0.8,1.6-1.7,3.2-2,5
					c-0.2,1.4-0.1,2.9,0.3,4.2s0.9,2.7,1.6,4c2.8,5.4,6.9,10.1,11.8,13.6c2.2,1.6,4.6,3,7.1,4.2c1.4,0.6,2.8,1.2,4.3,1.2
					c0.7,0,1.5-0.1,2.2-0.4c0.7-0.3,1.3-0.8,1.7-1.4c0.5-0.8,0.7-1.7,0.6-2.6c-0.1-0.9-0.5-1.8-0.9-2.6c-1.2-1.9-3-3.3-4.8-4.7
					c-3.8-3-7.5-6.1-11.1-9.4c-1-0.9-2-1.9-2.7-3.1c-0.7-1.1-1-2.4-1.3-3.8c-0.7-3.6-0.5-7.4,0.7-10.8c0.5-1.3,1.1-2.6,1.7-3.9
					c1.1-2.2,2.1-4.5,3.4-6.6c1.7-2.6,4-4.7,5.4-7.5c1.2-2.3,1.7-4.9,2.1-7.5C184.2,328.2,184.5,326.2,184.9,324.2L184.9,324.2z"/>
				<g>
					<defs>
						<path id="SVGID_82_" d="M184.6,324.3c-1.3,1.7-2.6,3.3-3.9,5c-1.4,1.8-2.8,3.5-4.2,5.3c-1.7,2.1-3.5,4.3-4.6,6.8
							c-1,2.2-1.4,4.5-2.1,6.8c-0.8,2.6-1.8,5.1-2.9,7.5c-1.1,2.2-2.2,4.4-3.4,6.6c-0.8,1.6-1.7,3.2-2,5c-0.2,1.4-0.1,2.9,0.3,4.2
							c0.4,1.4,0.9,2.7,1.6,4c2.8,5.4,6.9,10.1,11.8,13.6c2.2,1.6,4.6,3,7.1,4.2c1.4,0.6,2.8,1.2,4.3,1.2c0.7,0,1.5-0.1,2.2-0.4
							c0.7-0.3,1.3-0.8,1.7-1.4c0.5-0.8,0.7-1.7,0.6-2.6c-0.1-0.9-0.5-1.8-0.9-2.6c-1.2-1.9-3-3.3-4.8-4.7c-3.8-3-7.5-6.1-11.1-9.4
							c-1-0.9-2-1.9-2.7-3.1c-0.7-1.1-1-2.4-1.3-3.8c-0.7-3.6-0.5-7.4,0.7-10.8c0.5-1.3,1.1-2.6,1.7-3.9c1.1-2.2,2.1-4.5,3.4-6.6
							c1.7-2.6,4-4.7,5.4-7.5c1.2-2.3,1.7-4.9,2.1-7.5C184.1,328.2,184.4,326.2,184.6,324.3"/>
					</defs>
					<clipPath id="SVGID_83_">
						<use xlink:href="#SVGID_82_"  style="overflow:visible;"/>
					</clipPath>
					<g id="path15007-0_2_" class="st102">
						<path class="st61" d="M177,343.6c-1.1,1-2.1,2.3-2.9,3.6c-1.3,2.2-2.1,4.6-3,7c-0.7,1.8-1.5,3.5-1.6,5.4
							c-0.1,1,0.1,1.9,0.1,2.9c0,1-0.1,2-0.5,2.8c-0.4,0.7-1.1,1.3-1.8,1.5c1,0.3,2,1,2.6,1.9c0.5,0.7,0.9,1.6,1.4,2.4
							c0.4,0.6,0.9,1.2,1.4,1.7c0.6,0.5,1.3,0.8,2,0.9c1,0.1,2.1-0.2,2.8-0.9c-0.9-8.8-0.1-17.8,2.5-26.3c0.2-0.5,0.3-1.1,0.4-1.6
							c0-0.6-0.1-1.1-0.4-1.6c-0.2-0.2-0.4-0.4-0.7-0.5c-0.3-0.1-0.6-0.2-0.9-0.1c-0.3,0-0.6,0.1-0.8,0.3S177.1,343.4,177,343.6
							L177,343.6z"/>
					</g>
				</g>
			</g>
			<g>
				<defs>
					<path id="SVGID_84_" d="M185.9,362.4c0.8-0.3,1.7-0.4,2.5-0.2s1.6,0.5,2.3,1c1.4,1,2.4,2.3,3.4,3.7c2.3,3.1,4.5,6.4,6.5,9.7
						c1.6,2.7,3.1,5.5,5,8c1.2,1.7,2.6,3.2,3.8,4.8c1.2,1.7,2.3,3.4,2.9,5.4c0.7,2.6,0.4,5.4-0.8,7.8c-0.9,1.7-2.2,3.1-3.8,4.1
						c-1.6,1-3.5,1.5-5.4,1.4c-3-0.1-5.7-1.6-8.5-2.7c-5.7-2.3-11.8-3-17.6-4.7c-1.8-0.5-3.6-1.2-5.4-1.7c-0.8-0.2-1.6-0.4-2.4-0.8
						c-0.8-0.3-1.5-0.9-1.9-1.6c-0.3-0.6-0.5-1.2-0.5-1.8c0-0.6,0.2-1.3,0.4-1.9c0.4-1.2,1.1-2.3,1.6-3.5c0.8-1.9,0.9-4.1,0.8-6.2
						c-0.1-2.1-0.4-4.2-0.6-6.3c-0.1-0.9-0.1-1.9,0.1-2.8s0.6-1.8,1.2-2.5c0.6-0.6,1.4-1,2.3-1.1c0.8-0.2,1.7-0.2,2.6-0.2
						c0.9,0,1.7,0.1,2.6,0s1.7-0.3,2.5-0.7c0.7-0.4,1.3-1,1.8-1.7c0.5-0.7,0.9-1.4,1.3-2.1c0.4-0.7,0.8-1.4,1.3-2.1
						C184.5,363.2,185.1,362.7,185.9,362.4"/>
				</defs>
				<clipPath id="SVGID_85_">
					<use xlink:href="#SVGID_84_"  style="overflow:visible;"/>
				</clipPath>
				<g id="g14180-6_2_" transform="translate(-219,-9.0000017)" class="st103">
					
						<linearGradient id="path4635-1_1_" gradientUnits="userSpaceOnUse" x1="475.5155" y1="77.6094" x2="498.8338" y2="38.4865" gradientTransform="matrix(1 0 0 -1 -80.0002 460.3622)">
						<stop  offset="0" style="stop-color:#B98309"/>
						<stop  offset="1" style="stop-color:#382605"/>
					</linearGradient>
					<path id="path4635-1_2_" class="st104" d="M404.9,371.4c0.8-0.3,1.7-0.4,2.5-0.2c0.8,0.2,1.6,0.5,2.3,1c1.4,1,2.4,2.3,3.4,3.7
						c2.3,3.1,4.5,6.4,6.5,9.7c1.6,2.7,3.1,5.5,5,8c1.2,1.7,2.6,3.2,3.8,4.8c1.2,1.7,2.3,3.4,2.9,5.4c0.7,2.6,0.4,5.4-0.8,7.8
						c-0.9,1.7-2.2,3.1-3.8,4.1c-1.6,1-3.5,1.5-5.4,1.4c-3-0.1-5.7-1.6-8.5-2.7c-5.7-2.3-11.8-3-17.6-4.7c-1.8-0.5-3.6-1.2-5.4-1.7
						c-0.8-0.2-1.6-0.4-2.4-0.8c-0.8-0.3-1.5-0.9-1.9-1.6c-0.3-0.6-0.5-1.2-0.5-1.8c0-0.6,0.2-1.3,0.4-1.9c0.4-1.2,1.1-2.3,1.6-3.5
						c0.8-1.9,0.9-4.1,0.8-6.2c-0.1-2.1-0.4-4.2-0.6-6.3c-0.1-0.9-0.1-1.9,0.1-2.8c0.2-0.9,0.6-1.8,1.2-2.5c0.6-0.6,1.4-1,2.3-1.1
						c0.8-0.2,1.7-0.2,2.6-0.2s1.7,0.1,2.6,0s1.7-0.3,2.5-0.7c0.7-0.4,1.3-1,1.8-1.7c0.5-0.7,0.9-1.4,1.3-2.1
						c0.4-0.7,0.8-1.4,1.3-2.1C403.5,372.2,404.1,371.7,404.9,371.4L404.9,371.4z"/>
					<g id="path13596-6_2_">
						<path class="st105" d="M406.1,372.7c0.7-0.3,1.5-0.3,2.3-0.1c0.7,0.2,1.4,0.5,2,1c1.2,0.9,2.1,2.3,2.9,3.6
							c1.9,3.1,3.8,6.3,5.6,9.6c1.4,2.4,2.7,4.9,4.3,7.2c1.1,1.5,2.4,2.8,3.5,4.3c1.1,1.5,2.1,3.1,2.6,4.9c0.6,2.3,0.4,4.8-0.7,7
							c-0.8,1.5-2,2.8-3.5,3.7c-1.5,0.9-3.2,1.3-4.9,1.2c-2.7-0.1-5.2-1.5-7.8-2.4c-4.9-1.8-10.3-2-15.3-3.4
							c-1.8-0.5-3.6-1.1-5.4-1.6c-0.8-0.2-1.6-0.4-2.4-0.7s-1.5-0.8-1.9-1.5c-0.3-0.5-0.4-1.2-0.4-1.8c0-0.6,0.2-1.2,0.4-1.8
							c0.4-1.2,1.1-2.2,1.6-3.4c0.7-1.7,0.8-3.7,0.6-5.5c-0.1-1.9-0.4-3.7-0.6-5.6c-0.1-0.8-0.1-1.7,0.1-2.5
							c0.2-0.8,0.5-1.6,1.1-2.2c0.6-0.6,1.5-1,2.4-1.1s1.8-0.1,2.7,0c0.9,0.1,1.8,0.2,2.7,0.1c0.9-0.1,1.8-0.3,2.6-0.8
							c0.7-0.5,1.2-1.1,1.6-1.9s0.7-1.5,1-2.3c0.3-0.8,0.6-1.5,1.1-2.2C404.7,373.6,405.3,373,406.1,372.7"/>
					</g>
					<g id="path4635-2-4_2_">
						<path class="st106" d="M405.4,370.9c0.7-0.3,1.5-0.4,2.3-0.3c0.8,0.2,1.5,0.5,2,1c1.2,1,1.9,2.3,2.6,3.7
							c1.6,3.1,3.1,6.3,5.1,9.2c1.4,2.1,3,4.1,4.4,6.2c1.9,2.9,3.5,6,4.1,9.4c0.4,2.3,0.4,4.7-0.7,6.7c-0.7,1.3-1.9,2.4-3.3,3.1
							c-1.4,0.7-3,1-4.5,0.8c-2.4-0.2-4.6-1.4-6.9-2.2c-4-1.5-8.4-1.8-12.6-2.9c-1.8-0.5-3.5-1.1-5.3-1.4c-0.8-0.2-1.6-0.3-2.3-0.6
							c-0.7-0.3-1.5-0.8-1.8-1.4c-0.3-0.5-0.4-1.1-0.3-1.6c0-0.6,0.2-1.1,0.4-1.6c0.4-1,1.1-2,1.4-3c0.5-1.6,0.3-3.2-0.1-4.8
							c-0.4-1.6-0.9-3.1-1.1-4.8c-0.1-0.7-0.1-1.5,0.1-2.2c0.2-0.7,0.5-1.4,1-1.9c0.7-0.7,1.6-1,2.6-1.1c0.9-0.1,1.9,0,2.8,0.2
							c0.9,0.1,1.9,0.3,2.8,0.2s1.9-0.3,2.7-0.9c0.7-0.6,1.2-1.4,1.5-2.3c0.3-0.9,0.4-1.8,0.5-2.7c0.1-0.9,0.2-1.8,0.6-2.7
							C404,372.1,404.6,371.3,405.4,370.9L405.4,370.9z"/>
					</g>
					<g id="path4792-8_2_">
						
							<linearGradient id="SVGID_86_" gradientUnits="userSpaceOnUse" x1="501.8919" y1="67.1829" x2="509.2328" y2="53.3646" gradientTransform="matrix(1 0 0 -1 -80.5305 458.5944)">
							<stop  offset="0" style="stop-color:#EBC40C"/>
							<stop  offset="1" style="stop-color:#EBC40C;stop-opacity:0"/>
						</linearGradient>
						<path class="st107" d="M414.1,378.7c1.3,2.3,2,4.9,3.3,7.3c1.2,2.1,2.5,4.3,3.7,6.3c0.5,0.9,1.8,2.2,3,4.3
							c1.1,1.9,2.3,4.5,2.9,5.4c-0.4-1-1.1-3.8-2-5.8c-0.8-1.9-1.8-2.9-2.4-3.9c-1.2-2-2.5-3.7-3.7-5.6
							C417.2,384,415.9,381.1,414.1,378.7L414.1,378.7z"/>
					</g>
				</g>
			</g>
		</g>
	</g>
	<g id="Calque_2">
		<g>
			<g>
				<path class="st108" d="M648.7,163.8h28.7c1.4,0,2.6-1.1,2.6-2.6v-25.7c0-1.4-1.1-2.6-2.6-2.6l0,0h-28.7c-1.4,0-2.6,1.1-2.6,2.6
					l0,0v25.7C646.3,162.8,647.3,163.8,648.7,163.8"/>
				<path class="st108" d="M608.7,90.3h28.7c1.4,0,2.6-1.1,2.6-2.6V62.1c0-1.4-1.2-2.6-2.6-2.6h-28.7c-1.4,0-2.6,1.1-2.6,2.6l0,0
					v25.7C606.1,89.1,607.3,90.3,608.7,90.3"/>
				<path class="st108" d="M608.7,127.1h28.7c1.4,0,2.6-1.2,2.6-2.6V98.9c0-1.4-1.2-2.6-2.6-2.6h-28.7c-1.4,0-2.6,1.1-2.6,2.6l0,0
					v25.7C606.1,125.9,607.3,127.1,608.7,127.1"/>
				<path class="st108" d="M885,127.6c-4.8-0.2-8.8,3.6-8.9,8.3c0,0.2,0,0.5,0,0.6v42.9c-20.7-16.6-51-13.3-67.6,7.4
					c-6.8,8.6-10.6,19.2-10.6,30.2c-0.5,26.6,20.7,48.5,47.3,48.9c26.6,0.5,48.5-20.7,48.9-47.3c0-0.6,0-1.1,0-1.7v-80.5
					c0-2.4-0.9-4.7-2.6-6.3C889.7,128.5,887.4,127.6,885,127.6 M873.7,228.6c-3,7.2-8.8,13-16,16.2c-7.5,3.2-16,3.2-23.6,0
					c-7.2-3-12.8-8.9-15.9-16c-3.2-7.4-3.2-15.9,0-23.4c3-7.2,8.8-13,15.9-16c7.5-3.2,16-3.2,23.6,0c7.2,3.2,13,8.9,16,16.2
					C876.8,212.8,876.8,221.2,873.7,228.6"/>
				<path class="st108" d="M985.4,183c-18.7-18.7-49.2-18.7-67.9,0c-9.1,9.1-14,21.3-14,34c-0.5,26.6,20.7,48.5,47.3,48.9
					c26.6,0.5,48.5-20.7,48.9-47.3c0-0.6,0-1.1,0-1.7c0-6.3-1.2-12.5-3.6-18.4C993.5,192.7,989.9,187.4,985.4,183 M979.2,228.5
					c-1.5,3.6-3.8,6.8-6.5,9.5c-2.7,2.7-6,5-9.5,6.5c-7.5,3.2-16,3.2-23.6,0c-7.2-3-13-8.9-16-16c-3.2-7.4-3.2-15.9,0-23.4
					c3-7.2,8.8-12.8,16-16c7.5-3.2,16-3.2,23.6,0c3.6,1.5,6.8,3.8,9.5,6.5c2.7,2.7,5,6,6.5,9.5C982.4,212.8,982.4,221.2,979.2,228.5
					"/>
				<path class="st108" d="M1184.2,177.7c0-1.2-0.3-2.4-0.8-3.5c-0.5-1.1-1.2-2-2-2.9c-0.8-0.8-1.8-1.5-2.9-2
					c-1.1-0.5-2.3-0.8-3.5-0.8c-1.7,0-3.3,0.5-4.8,1.4l-51.3,33.4v-66.7c0-2.4-0.9-4.7-2.6-6.3s-3.9-2.7-6.3-2.7
					c-5,0-8.9,3.9-9.1,8.9c0,0,0,0,0,0.2v119.3c0,2.4,0.9,4.7,2.6,6.3c1.7,1.8,3.9,2.7,6.3,2.7c2.4,0,4.7-0.9,6.3-2.7
					c1.7-1.7,2.7-3.9,2.6-6.3v-31l10.4-6.8l39.7,44.5c1.7,1.5,3.8,2.4,6,2.3c1.2,0,2.4-0.2,3.5-0.8c1.1-0.5,2-1.1,2.9-2
					c0.8-0.9,1.5-1.8,2-2.9c0.5-1.1,0.8-2.3,0.8-3.5c0-2.3-0.9-4.5-2.4-6.2l-36.8-41.5l35.9-23.4
					C1183.2,183.3,1184.4,180.6,1184.2,177.7"/>
				<path class="st108" d="M1035.2,195.5c2.7-2.7,6-5,9.7-6.5c3.8-1.5,7.7-2.4,11.8-2.4c3.6,0,7.1,0.6,10.4,1.8
					c3.3,1.4,6.5,3.2,9.2,5.6c1.7,1.4,3.8,2,5.9,2c2.4,0.2,4.8-0.8,6.5-2.6c1.7-1.7,2.6-4.1,2.6-6.5c0-2.6-1.1-5.1-3.2-6.8
					c-8.6-7.7-19.8-11.9-31.4-11.6c-26.6,0-48.2,21.6-48.2,48.2s21.4,48,47.9,48.2c11.6,0,22.8-4.1,31.6-11.6
					c1.8-1.7,2.9-4.1,2.9-6.6c0.2-4.8-3.6-8.8-8.3-8.9c-0.2,0-0.5,0-0.6,0c-2.1,0-4.1,0.6-5.7,1.8c-2.7,2.4-5.7,4.2-9.1,5.6
					c-3.3,1.2-6.9,1.8-10.4,1.8c-4.1,0-8-0.8-11.8-2.4c-3.6-1.5-6.8-3.8-9.7-6.5c-11.8-11.8-11.8-30.8-0.2-42.6
					C1035.2,195.7,1035.2,195.7,1035.2,195.5"/>
				<path class="st108" d="M1362.6,174.9c-1.8-1.7-3.8-2.9-6-3.6c-2.6-0.9-5.3-1.5-8-1.8s-5.4-0.5-8.2-0.5c-5.4,0-11,0.9-16.2,2.9
					c-5.1,1.8-9.8,4.5-14,7.9v-1.8c-0.2-5-4.4-8.8-9.4-8.6c-4.7,0.2-8.5,3.9-8.6,8.6v78.4c0.2,5,4.4,8.8,9.4,8.6
					c4.7-0.2,8.5-3.9,8.6-8.6v-39.1c0-4.1,0.8-8,2.4-11.8c1.5-3.6,3.6-6.8,6.5-9.5c2.7-2.7,6-5,9.5-6.5c3.8-1.5,7.7-2.4,11.8-2.4
					c4.1,0,8,0.8,11.8,2.1c1.2,0.6,2.4,0.9,3.8,0.9c1.2,0,2.4-0.2,3.5-0.8c1.1-0.5,2-1.1,2.9-2c0.8-0.8,1.5-1.8,2-2.9
					c0.5-1.1,0.8-2.3,0.8-3.5C1365.1,178.6,1364.2,176.5,1362.6,174.9"/>
				<path class="st108" d="M1279.2,198.6c-7.7-17.8-25.2-29.4-44.5-29.6c-26.6,0-48,21.4-48.2,48l0,0c0,26.6,21.6,48.2,48.2,48.2
					c11.5,0,22.6-4.1,31.4-11.6c0.2-0.2,0.3-0.3,0.3-0.3c0.8-0.6,1.5-1.4,2-2.3c2.9-4.2,1.8-9.8-2.3-12.7c-3.5-2.3-8-1.8-11,1.1
					c-0.3,0.3-1.2,1.1-1.2,1.2l-0.2,0.2c-2.6,2.1-5.4,3.9-8.6,5c-3.3,1.2-6.8,1.8-10.4,1.7c-3.3,0-6.5-0.5-9.7-1.5
					c-3-1.1-5.9-2.4-8.5-4.4c-2.6-1.8-4.8-4.1-6.6-6.6c-2-2.6-3.3-5.6-4.2-8.6h67.9c2.4,0,4.7-0.9,6.3-2.6c1.8-1.7,2.7-3.9,2.6-6.3
					C1282.7,210.8,1281.5,204.5,1279.2,198.6 M1205.7,208.2c0.9-3.2,2.3-6,4.2-8.6c1.8-2.6,4.1-4.8,6.6-6.6c2.6-1.8,5.4-3.3,8.5-4.4
					c3-1.1,6.3-1.5,9.5-1.5c3.2,0,6.5,0.5,9.5,1.5c6,2,11.3,5.9,15.1,11c2,2.6,3.3,5.6,4.4,8.6H1205.7z"/>
				<path class="st108" d="M1331.9,252c-3.5,0-6.2,2.9-6.2,6.3c0,3.5,2.9,6.2,6.3,6.2s6.2-2.9,6.2-6.2
					C1338.3,254.7,1335.4,252,1331.9,252L1331.9,252 M1331.9,263.2c-2.7,0.2-5-2-5.1-4.7c-0.2-2.7,2-5,4.7-5.1s5,2,5.1,4.7
					c0,0.2,0,0.2,0,0.3c0.2,2.6-2,4.8-4.5,4.8C1332.1,263.2,1332.1,263.2,1331.9,263.2"/>
				<path class="st108" d="M1333.4,258.4L1333.4,258.4c0.8-0.2,1.2-0.8,1.2-1.5c0-0.6-0.2-1.1-0.6-1.4c-0.6-0.3-1.4-0.5-2.1-0.5
					c-0.8,0-1.7,0-2.4,0.2v6.2h1.4V259h0.6c0.8,0,1.2,0.3,1.4,0.9c0.2,0.5,0.3,1.1,0.5,1.5h1.5c-0.3-0.5-0.5-1.1-0.5-1.5
					C1334.5,259.3,1334,258.7,1333.4,258.4 M1331.6,257.9h-0.8v-1.8c0.3,0,0.6,0,0.8,0c0.9,0,1.4,0.5,1.4,0.9
					C1333.1,257.6,1332.4,258.1,1331.6,257.9"/>
				<path class="st108" d="M781.4,147.8c-0.9-0.8-9.1-6.9-26.6-6.9c-4.5,0-9.2,0.5-13.7,1.2c-3.3-23.1-22.5-34.3-23.3-34.9l-4.7-2.7
					l-3,4.4c-3.8,5.9-6.6,12.5-8.3,19.3c-3.2,13.1-1.2,25.5,5.4,36.1c-8,4.5-21,5.6-23.7,5.7H469.2c-5.6,0-10.1,4.5-10.1,10.1
					c-0.3,18.7,2.9,37.4,9.4,55.1c7.4,19.3,18.4,33.7,32.6,42.4c16,9.8,42.1,15.4,71.6,15.4c13.3,0,26.6-1.2,39.7-3.6
					c18.3-3.3,35.8-9.7,51.9-18.9c13.3-7.7,25.2-17.5,35.3-29c17.1-19.2,27.2-40.6,34.6-59.6c1.1,0,2,0,3,0c18.6,0,30-7.4,36.4-13.7
					c4.2-3.9,7.4-8.8,9.7-14.2l1.4-3.9L781.4,147.8z"/>
				<path class="st108" d="M489.1,163.8h28.7c1.4,0,2.6-1.1,2.6-2.6l0,0v-25.7c0-1.4-1.1-2.6-2.6-2.6l0,0h-28.7
					c-1.4,0-2.6,1.1-2.6,2.6l0,0v25.7C486.7,162.8,487.7,163.8,489.1,163.8L489.1,163.8"/>
				<path class="st108" d="M528.6,163.8h28.7c1.4,0,2.6-1.1,2.6-2.6l0,0v-25.7c0-1.4-1.1-2.6-2.6-2.6l0,0h-28.7
					c-1.4,0-2.6,1.1-2.6,2.6v25.7C526.2,162.8,527.3,163.8,528.6,163.8"/>
				<path class="st108" d="M569,163.8h28.7c1.4,0,2.6-1.1,2.6-2.6l0,0v-25.7c0-1.4-1.1-2.6-2.6-2.6l0,0H569c-1.4,0-2.6,1.1-2.6,2.6
					l0,0v25.7C566.4,162.8,567.5,163.8,569,163.8L569,163.8"/>
				<path class="st108" d="M608.7,163.8h28.7c1.4,0,2.6-1.1,2.6-2.6v-25.7c0-1.4-1.1-2.6-2.6-2.6l0,0h-28.7c-1.4,0-2.6,1.1-2.6,2.6
					l0,0v25.7C606.1,162.8,607.3,163.8,608.7,163.8L608.7,163.8"/>
				<path class="st108" d="M528.6,127.1h28.7c1.4,0,2.6-1.2,2.6-2.6V98.9c0-1.4-1.1-2.6-2.6-2.6l0,0h-28.7c-1.4,0-2.6,1.1-2.6,2.6
					v25.7C526.2,125.9,527.3,127.1,528.6,127.1"/>
				<path class="st108" d="M569,127.1h28.7c1.4,0,2.6-1.2,2.6-2.6V98.9c0-1.4-1.1-2.6-2.6-2.6l0,0H569c-1.4,0-2.6,1.1-2.6,2.6l0,0
					v25.7C566.4,125.9,567.5,127.1,569,127.1"/>
			</g>
		</g>
		<g>
			<g>
				<path class="st108" d="M648.7,163.8h28.7c1.4,0,2.6-1.1,2.6-2.6v-25.7c0-1.4-1.1-2.6-2.6-2.6l0,0h-28.7c-1.4,0-2.6,1.1-2.6,2.6
					l0,0v25.7C646.3,162.8,647.3,163.8,648.7,163.8"/>
				<path class="st108" d="M608.7,90.3h28.7c1.4,0,2.6-1.1,2.6-2.6V62.1c0-1.4-1.2-2.6-2.6-2.6h-28.7c-1.4,0-2.6,1.1-2.6,2.6l0,0
					v25.7C606.1,89.1,607.3,90.3,608.7,90.3"/>
				<path class="st108" d="M608.7,127.1h28.7c1.4,0,2.6-1.2,2.6-2.6V98.9c0-1.4-1.2-2.6-2.6-2.6h-28.7c-1.4,0-2.6,1.1-2.6,2.6l0,0
					v25.7C606.1,125.9,607.3,127.1,608.7,127.1"/>
				<path class="st108" d="M885,127.6c-4.8-0.2-8.8,3.6-8.9,8.3c0,0.2,0,0.5,0,0.6v42.9c-20.7-16.6-51-13.3-67.6,7.4
					c-6.8,8.6-10.6,19.2-10.6,30.2c-0.5,26.6,20.7,48.5,47.3,48.9c26.6,0.5,48.5-20.7,48.9-47.3c0-0.6,0-1.1,0-1.7v-80.5
					c0-2.4-0.9-4.7-2.6-6.3C889.7,128.5,887.4,127.6,885,127.6 M873.7,228.6c-3,7.2-8.8,13-16,16.2c-7.5,3.2-16,3.2-23.6,0
					c-7.2-3-12.8-8.9-15.9-16c-3.2-7.4-3.2-15.9,0-23.4c3-7.2,8.8-13,15.9-16c7.5-3.2,16-3.2,23.6,0c7.2,3.2,13,8.9,16,16.2
					C876.8,212.8,876.8,221.2,873.7,228.6"/>
				<path class="st108" d="M985.4,183c-18.7-18.7-49.2-18.7-67.9,0c-9.1,9.1-14,21.3-14,34c-0.5,26.6,20.7,48.5,47.3,48.9
					c26.6,0.5,48.5-20.7,48.9-47.3c0-0.6,0-1.1,0-1.7c0-6.3-1.2-12.5-3.6-18.4C993.5,192.7,989.9,187.4,985.4,183 M979.2,228.5
					c-1.5,3.6-3.8,6.8-6.5,9.5c-2.7,2.7-6,5-9.5,6.5c-7.5,3.2-16,3.2-23.6,0c-7.2-3-13-8.9-16-16c-3.2-7.4-3.2-15.9,0-23.4
					c3-7.2,8.8-12.8,16-16c7.5-3.2,16-3.2,23.6,0c3.6,1.5,6.8,3.8,9.5,6.5c2.7,2.7,5,6,6.5,9.5C982.4,212.8,982.4,221.2,979.2,228.5
					"/>
				<path class="st108" d="M1184.2,177.7c0-1.2-0.3-2.4-0.8-3.5c-0.5-1.1-1.2-2-2-2.9c-0.8-0.8-1.8-1.5-2.9-2
					c-1.1-0.5-2.3-0.8-3.5-0.8c-1.7,0-3.3,0.5-4.8,1.4l-51.3,33.4v-66.7c0-2.4-0.9-4.7-2.6-6.3s-3.9-2.7-6.3-2.7
					c-5,0-8.9,3.9-9.1,8.9c0,0,0,0,0,0.2v119.3c0,2.4,0.9,4.7,2.6,6.3c1.7,1.8,3.9,2.7,6.3,2.7c2.4,0,4.7-0.9,6.3-2.7
					c1.7-1.7,2.7-3.9,2.6-6.3v-31l10.4-6.8l39.7,44.5c1.7,1.5,3.8,2.4,6,2.3c1.2,0,2.4-0.2,3.5-0.8c1.1-0.5,2-1.1,2.9-2
					c0.8-0.9,1.5-1.8,2-2.9c0.5-1.1,0.8-2.3,0.8-3.5c0-2.3-0.9-4.5-2.4-6.2l-36.8-41.5l35.9-23.4
					C1183.2,183.3,1184.4,180.6,1184.2,177.7"/>
				<path class="st108" d="M1035.2,195.5c2.7-2.7,6-5,9.7-6.5c3.8-1.5,7.7-2.4,11.8-2.4c3.6,0,7.1,0.6,10.4,1.8
					c3.3,1.4,6.5,3.2,9.2,5.6c1.7,1.4,3.8,2,5.9,2c2.4,0.2,4.8-0.8,6.5-2.6c1.7-1.7,2.6-4.1,2.6-6.5c0-2.6-1.1-5.1-3.2-6.8
					c-8.6-7.7-19.8-11.9-31.4-11.6c-26.6,0-48.2,21.6-48.2,48.2s21.4,48,47.9,48.2c11.6,0,22.8-4.1,31.6-11.6
					c1.8-1.7,2.9-4.1,2.9-6.6c0.2-4.8-3.6-8.8-8.3-8.9c-0.2,0-0.5,0-0.6,0c-2.1,0-4.1,0.6-5.7,1.8c-2.7,2.4-5.7,4.2-9.1,5.6
					c-3.3,1.2-6.9,1.8-10.4,1.8c-4.1,0-8-0.8-11.8-2.4c-3.6-1.5-6.8-3.8-9.7-6.5c-11.8-11.8-11.8-30.8-0.2-42.6
					C1035.2,195.7,1035.2,195.7,1035.2,195.5"/>
				<path class="st108" d="M1362.6,174.9c-1.8-1.7-3.8-2.9-6-3.6c-2.6-0.9-5.3-1.5-8-1.8s-5.4-0.5-8.2-0.5c-5.4,0-11,0.9-16.2,2.9
					c-5.1,1.8-9.8,4.5-14,7.9v-1.8c-0.2-5-4.4-8.8-9.4-8.6c-4.7,0.2-8.5,3.9-8.6,8.6v78.4c0.2,5,4.4,8.8,9.4,8.6
					c4.7-0.2,8.5-3.9,8.6-8.6v-39.1c0-4.1,0.8-8,2.4-11.8c1.5-3.6,3.6-6.8,6.5-9.5c2.7-2.7,6-5,9.5-6.5c3.8-1.5,7.7-2.4,11.8-2.4
					c4.1,0,8,0.8,11.8,2.1c1.2,0.6,2.4,0.9,3.8,0.9c1.2,0,2.4-0.2,3.5-0.8c1.1-0.5,2-1.1,2.9-2c0.8-0.8,1.5-1.8,2-2.9
					c0.5-1.1,0.8-2.3,0.8-3.5C1365.1,178.6,1364.2,176.5,1362.6,174.9"/>
				<path class="st108" d="M1279.2,198.6c-7.7-17.8-25.2-29.4-44.5-29.6c-26.6,0-48,21.4-48.2,48l0,0c0,26.6,21.6,48.2,48.2,48.2
					c11.5,0,22.6-4.1,31.4-11.6c0.2-0.2,0.3-0.3,0.3-0.3c0.8-0.6,1.5-1.4,2-2.3c2.9-4.2,1.8-9.8-2.3-12.7c-3.5-2.3-8-1.8-11,1.1
					c-0.3,0.3-1.2,1.1-1.2,1.2l-0.2,0.2c-2.6,2.1-5.4,3.9-8.6,5c-3.3,1.2-6.8,1.8-10.4,1.7c-3.3,0-6.5-0.5-9.7-1.5
					c-3-1.1-5.9-2.4-8.5-4.4c-2.6-1.8-4.8-4.1-6.6-6.6c-2-2.6-3.3-5.6-4.2-8.6h67.9c2.4,0,4.7-0.9,6.3-2.6c1.8-1.7,2.7-3.9,2.6-6.3
					C1282.7,210.8,1281.5,204.5,1279.2,198.6 M1205.7,208.2c0.9-3.2,2.3-6,4.2-8.6c1.8-2.6,4.1-4.8,6.6-6.6c2.6-1.8,5.4-3.3,8.5-4.4
					c3-1.1,6.3-1.5,9.5-1.5c3.2,0,6.5,0.5,9.5,1.5c6,2,11.3,5.9,15.1,11c2,2.6,3.3,5.6,4.4,8.6H1205.7z"/>
				<path class="st108" d="M1331.9,252c-3.5,0-6.2,2.9-6.2,6.3c0,3.5,2.9,6.2,6.3,6.2s6.2-2.9,6.2-6.2
					C1338.3,254.7,1335.4,252,1331.9,252L1331.9,252 M1331.9,263.2c-2.7,0.2-5-2-5.1-4.7c-0.2-2.7,2-5,4.7-5.1s5,2,5.1,4.7
					c0,0.2,0,0.2,0,0.3c0.2,2.6-2,4.8-4.5,4.8C1332.1,263.2,1332.1,263.2,1331.9,263.2"/>
				<path class="st108" d="M1333.4,258.4L1333.4,258.4c0.8-0.2,1.2-0.8,1.2-1.5c0-0.6-0.2-1.1-0.6-1.4c-0.6-0.3-1.4-0.5-2.1-0.5
					c-0.8,0-1.7,0-2.4,0.2v6.2h1.4V259h0.6c0.8,0,1.2,0.3,1.4,0.9c0.2,0.5,0.3,1.1,0.5,1.5h1.5c-0.3-0.5-0.5-1.1-0.5-1.5
					C1334.5,259.3,1334,258.7,1333.4,258.4 M1331.6,257.9h-0.8v-1.8c0.3,0,0.6,0,0.8,0c0.9,0,1.4,0.5,1.4,0.9
					C1333.1,257.6,1332.4,258.1,1331.6,257.9"/>
				<path class="st108" d="M781.4,147.8c-0.9-0.8-9.1-6.9-26.6-6.9c-4.5,0-9.2,0.5-13.7,1.2c-3.3-23.1-22.5-34.3-23.3-34.9l-4.7-2.7
					l-3,4.4c-3.8,5.9-6.6,12.5-8.3,19.3c-3.2,13.1-1.2,25.5,5.4,36.1c-8,4.5-21,5.6-23.7,5.7H469.2c-5.6,0-10.1,4.5-10.1,10.1
					c-0.3,18.7,2.9,37.4,9.4,55.1c7.4,19.3,18.4,33.7,32.6,42.4c16,9.8,42.1,15.4,71.6,15.4c13.3,0,26.6-1.2,39.7-3.6
					c18.3-3.3,35.8-9.7,51.9-18.9c13.3-7.7,25.2-17.5,35.3-29c17.1-19.2,27.2-40.6,34.6-59.6c1.1,0,2,0,3,0c18.6,0,30-7.4,36.4-13.7
					c4.2-3.9,7.4-8.8,9.7-14.2l1.4-3.9L781.4,147.8z"/>
				<path class="st108" d="M489.1,163.8h28.7c1.4,0,2.6-1.1,2.6-2.6l0,0v-25.7c0-1.4-1.1-2.6-2.6-2.6l0,0h-28.7
					c-1.4,0-2.6,1.1-2.6,2.6l0,0v25.7C486.7,162.8,487.7,163.8,489.1,163.8L489.1,163.8"/>
				<path class="st108" d="M528.6,163.8h28.7c1.4,0,2.6-1.1,2.6-2.6l0,0v-25.7c0-1.4-1.1-2.6-2.6-2.6l0,0h-28.7
					c-1.4,0-2.6,1.1-2.6,2.6v25.7C526.2,162.8,527.3,163.8,528.6,163.8"/>
				<path class="st108" d="M569,163.8h28.7c1.4,0,2.6-1.1,2.6-2.6l0,0v-25.7c0-1.4-1.1-2.6-2.6-2.6l0,0H569c-1.4,0-2.6,1.1-2.6,2.6
					l0,0v25.7C566.4,162.8,567.5,163.8,569,163.8L569,163.8"/>
				<path class="st108" d="M608.7,163.8h28.7c1.4,0,2.6-1.1,2.6-2.6v-25.7c0-1.4-1.1-2.6-2.6-2.6l0,0h-28.7c-1.4,0-2.6,1.1-2.6,2.6
					l0,0v25.7C606.1,162.8,607.3,163.8,608.7,163.8L608.7,163.8"/>
				<path class="st108" d="M528.6,127.1h28.7c1.4,0,2.6-1.2,2.6-2.6V98.9c0-1.4-1.1-2.6-2.6-2.6l0,0h-28.7c-1.4,0-2.6,1.1-2.6,2.6
					v25.7C526.2,125.9,527.3,127.1,528.6,127.1"/>
				<path class="st108" d="M569,127.1h28.7c1.4,0,2.6-1.2,2.6-2.6V98.9c0-1.4-1.1-2.6-2.6-2.6l0,0H569c-1.4,0-2.6,1.1-2.6,2.6l0,0
					v25.7C566.4,125.9,567.5,127.1,569,127.1"/>
			</g>
		</g>
	</g>
	<g>
		<g>
			<path d="M616,211.6c0,19.3-15.7,35-35,35c-19.3,0-35-15.7-35-35c0-19.3,15.7-35,35-35C600.3,176.6,616,192.2,616,211.6z"/>
			<path class="st109" d="M596.3,189.5c-3.6,0.1-6.7,2.1-9,4.8c-2.6,3-4.3,6.5-5.5,10.1c-2.2-1.8-3.9-4.1-7.4-5.1
				c-2.7-0.8-5.6-0.5-8.2,1.5c-1.2,0.9-2.1,2.3-2.5,3.7c-1.1,3.4,1.1,6.5,2.1,7.6l2.2,2.3c0.4,0.5,1.5,1.6,1,3.3
				c-0.6,1.8-2.8,3-5,2.3c-1-0.3-2.5-1.1-2.1-2.1c0.1-0.4,0.4-0.8,0.6-1.1c0.2-0.3,0.2-0.6,0.3-0.7c0.4-1.4-0.2-3.1-1.6-3.6
				c-1.4-0.4-2.7-0.1-3.3,1.7c-0.6,2,0.3,5.6,5.4,7.1c5.9,1.8,11-1.4,11.7-5.6c0.4-2.6-0.7-4.6-2.9-7.1l-1.8-2
				c-1.1-1.1-1.5-2.9-0.3-4.3c0.9-1.2,2.3-1.7,4.5-1.1c3.2,0.9,4.6,3.1,7,4.9c-1,3.2-1.6,6.5-2.2,9.4l-0.4,2.2
				c-1.7,9-3,13.9-6.4,16.7c-0.7,0.5-1.7,1.2-3.1,1.3c-0.8,0-1-0.5-1-0.7c0-0.5,0.4-0.8,0.7-1c0.5-0.2,1.1-0.7,1.1-2
				c0-1.5-1.3-2.9-3.2-2.8c-1.4,0-3.5,1.4-3.4,3.8c0.1,2.5,2.4,4.3,5.9,4.2c1.9-0.1,6-0.8,10.1-5.7c4.8-5.6,6.1-12,7.1-16.6l1.1-6.2
				c0.6,0.1,1.3,0.1,2,0.1c5.9,0.1,8.9-2.9,8.9-5.2c0-1.4-0.9-2.7-2.2-2.7c-0.9,0-2.1,0.6-2.3,1.9c-0.3,1.2,1.9,2.4,0.2,3.5
				c-1.2,0.8-3.3,1.3-6.4,0.9l0.5-3c1.1-5.8,2.5-12.9,7.8-13c0.4,0,1.8,0,1.8,0.9c0,0.3-0.1,0.4-0.4,1.1c-0.4,0.6-0.5,1-0.5,1.6
				c0,1.5,1.2,2.4,2.8,2.4c2.2-0.1,2.8-2.2,2.8-3.3C602.5,191,599.9,189.4,596.3,189.5z"/>
		</g>
		<g>
			<g>
				<path d="M594,261.1c3.5,0,5.9,2.6,5.9,6.1c0,3.3-2.4,6.1-5.9,6.1c-3.5,0-5.9-2.8-5.9-6.1C588.1,263.7,590.4,261.1,594,261.1z
					 M594,271.6c2.5,0,3.6-2.3,3.6-4.4c0-2.2-1.3-4.4-3.6-4.4c-2.3,0-3.6,2.1-3.6,4.4C590.4,269.3,591.5,271.6,594,271.6z"/>
			</g>
			<path d="M587.8,262.2v-0.8h-3.1v-1.1c0-1.6,0.2-2.8,2.1-2.8c0,0,0.1,0,0.1,0c0,0,0,0,0,0c0.5,0,0.9-0.4,1-0.9l0-0.7
				c-0.4-0.1-0.9-0.1-1.4-0.1c-3.2,0-3.9,1.8-3.9,4.7v0.9h-2.7v0.9c0.1,0.5,0.5,0.8,1,0.8c0,0,0,0,0,0h1.8v9.9h1.2c0,0,0,0,0,0
				c0.5,0,0.9-0.4,1-0.8v-9.1h2.1C587.4,263.1,587.8,262.7,587.8,262.2z"/>
			<path d="M559.2,261.4C559.2,261.4,559.2,261.4,559.2,261.4c-0.5,0-0.9,0.3-1.1,0.7l-3,8.9h0l-2.9-8.9c-0.2-0.4-0.6-0.7-1.1-0.7
				c0,0,0,0,0,0h-1.5l3.9,10.9c0.1,0.4,0.4,1,0.4,1.2c0,0.2-0.6,2.9-2.6,2.9c0,0-0.1,0-0.1,0c-0.5,0-0.9,0.3-0.9,0.8l-0.1,0.7
				c0.4,0.1,0.8,0.2,1.5,0.2c2.8,0,3.7-2.6,4.5-4.8l4.3-11.9L559.2,261.4L559.2,261.4z"/>
			<path d="M545.6,263.8c-1.8-0.9-3.7-1.5-3.7-3.3c0-1.9,1.8-2.4,3.2-2.4c0,0,0,0,0,0c0.6,0,1.1,0.1,1.5,0.2c0,0,0,0,0,0
				c0.5,0,0.9-0.3,1-0.8l0-0.7c-0.9-0.2-1.8-0.3-2.7-0.3c-3,0-5.2,1.5-5.2,4.4c0,2.5,1.7,3.5,3.5,4.3c1.8,0.9,3.7,1.6,3.7,3.6
				c0,2.2-2.1,2.9-3.5,3c-0.8,0-1.7-0.2-2.5-0.5c-0.5-0.1-0.9,0.3-0.9,0.9l-0.1,0.6c1.1,0.3,2.1,0.6,3.2,0.6c0,0,0,0,0,0
				c0,0,0,0,0,0c3.3,0,5.9-1.4,5.9-4.8C549.1,265.8,547.4,264.7,545.6,263.8z"/>
			<path d="M578,273C578,273,578,273,578,273c0.5,0,0.9-0.3,0.9-0.8v-6.7c0-2.5-1.1-4.4-4-4.4c-1,0-2.8,0.6-3.6,2.3
				c-0.6-1.6-2-2.3-3.3-2.3c-1.7,0-2.9,0.6-3.7,2h0v-0.7c0-0.5-0.4-1-1-1c0,0,0,0,0,0h-1V273h1.2c0,0,0,0,0,0c0.5,0,1-0.4,1-1
				c0,0,0,0,0,0v-4.9c0-2.2,0.9-4.3,3.1-4.3c1.7,0,2.1,1.8,2.1,3.2v6.9h1.2c0,0,0,0,0,0c0.5,0,0.9-0.4,1-0.9v-5
				c0-2.2,0.9-4.3,3.1-4.3c1.7,0,2.1,1.8,2.1,3.2v6.9L578,273L578,273z"/>
			<path d="M611.1,273C611.1,273,611.1,273,611.1,273c0.5,0,0.9-0.4,1-0.9v-6c0-3.1-1.3-5-4.4-5c-1.6,0-3.2,0.8-3.8,2.1h0v-0.9
				c0,0,0,0,0,0c0-0.5-0.4-1-1-1c0,0,0,0,0,0h-1.1V273h1.2c0,0,0,0,0,0c0.5,0,0.9-0.4,1-0.9v-4.5c0-2.8,1.1-4.8,3.5-4.8
				c1.9,0.1,2.5,1.4,2.5,4.1v6L611.1,273L611.1,273z"/>
			<path d="M622.7,261.4C622.7,261.4,622.7,261.4,622.7,261.4c-0.5,0-0.9,0.3-1.1,0.7l-2.9,8.9h0l-2.9-8.9c-0.2-0.4-0.6-0.7-1.1-0.7
				c0,0,0,0,0,0h-1.5l3.9,10.9c0.1,0.4,0.4,1,0.4,1.2c0,0.2-0.6,2.9-2.6,2.9c0,0-0.1,0-0.1,0c-0.5,0-0.9,0.3-0.9,0.8l-0.1,0.7
				c0.4,0.1,0.8,0.2,1.5,0.2c2.8,0,3.7-2.6,4.5-4.8l4.3-11.9L622.7,261.4L622.7,261.4z"/>
		</g>
	</g>
</g>
</svg>
