<?xml version="1.0" encoding="utf-8"?>
<!-- Generator: Adobe Illustrator 21.0.0, SVG Export Plug-In . SVG Version: 6.00 Build 0)  -->
<svg version="1.1" id="Calque_1" xmlns="http://www.w3.org/2000/svg" xmlns:xlink="http://www.w3.org/1999/xlink" x="0px" y="0px"
	 viewBox="0 0 700 150" style="enable-background:new 0 0 700 150;" xml:space="preserve">
<style type="text/css">
	.st0{fill:none;stroke:#000000;stroke-miterlimit:10;}
	.st1{fill:none;stroke:#3FA9F5;stroke-width:2;stroke-miterlimit:10;}
	.st2{fill:none;stroke:#7AC943;stroke-width:2;stroke-miterlimit:10;}
	.st3{fill:#3FA9F5;}
	.st4{fill:#FF931E;}
	.st5{font-family:'Comfortaa-Regular';}
	.st6{font-size:12px;}
	.st7{fill:#7AC943;}
</style>
<line class="st0" x1="117.4" y1="14.5" x2="117.4" y2="137.4"/>
<line class="st0" x1="692" y1="136.8" x2="116.8" y2="136.8"/>
<g>
	<path d="M66.1,31.6c-0.1,0-0.3,0-0.4-0.1s-0.2-0.2-0.2-0.3l-2.9-9.9c-0.1-0.2-0.1-0.4,0-0.6s0.2-0.2,0.4-0.2c0.1,0,0.2,0,0.3,0.1
		s0.2,0.2,0.2,0.3l2.6,9.2H66l2.5-9c0-0.1,0.1-0.2,0.2-0.3c0.1-0.1,0.2-0.1,0.3-0.1c0.1,0,0.2,0,0.3,0.1c0.1,0.1,0.2,0.2,0.2,0.3
		l2.5,9h-0.3l2.7-9.3c0.1-0.2,0.2-0.4,0.5-0.4c0.2,0,0.3,0.1,0.4,0.2c0.1,0.2,0.1,0.3,0,0.6l-2.9,9.9c0,0.2-0.1,0.3-0.2,0.4
		s-0.2,0.1-0.4,0.1c-0.1,0-0.3,0-0.4-0.1s-0.2-0.2-0.2-0.3L68.8,22h0.3l-2.5,9.1c0,0.1-0.1,0.3-0.2,0.3
		C66.4,31.5,66.3,31.6,66.1,31.6z"/>
	<path d="M80.6,31.7c-0.6,0-1.2-0.1-1.7-0.3c-0.5-0.2-1-0.4-1.4-0.8c-0.4-0.3-0.7-0.7-0.9-1.1c-0.1-0.2-0.1-0.3,0-0.4
		s0.2-0.2,0.4-0.3c0.1,0,0.3,0,0.4,0c0.1,0.1,0.2,0.2,0.3,0.3c0.1,0.3,0.4,0.5,0.6,0.7c0.3,0.2,0.6,0.4,1,0.5s0.8,0.2,1.3,0.2
		s1-0.1,1.3-0.3c0.4-0.2,0.7-0.4,0.9-0.7s0.3-0.7,0.3-1.2c0-0.6-0.2-1.1-0.6-1.5s-1.1-0.7-2-0.8c-1.1-0.1-2-0.5-2.6-1
		c-0.6-0.6-0.9-1.2-0.9-2.1c0-0.6,0.2-1.1,0.5-1.5s0.7-0.8,1.3-1c0.5-0.2,1.2-0.4,1.9-0.4c0.5,0,1,0.1,1.4,0.3
		c0.4,0.2,0.8,0.4,1.1,0.7c0.3,0.3,0.6,0.6,0.8,0.9c0.1,0.2,0.1,0.3,0.1,0.4s-0.1,0.3-0.3,0.3c-0.1,0.1-0.3,0.1-0.4,0
		s-0.3-0.1-0.3-0.3c-0.1-0.2-0.3-0.4-0.5-0.6s-0.5-0.4-0.8-0.5S81.1,21,80.7,21c-0.8,0-1.4,0.2-1.8,0.5c-0.5,0.3-0.7,0.8-0.7,1.4
		c0,0.3,0.1,0.6,0.3,0.9c0.2,0.3,0.5,0.5,0.9,0.7s0.9,0.3,1.6,0.4c1.2,0.2,2.1,0.5,2.7,1.1s0.9,1.3,0.9,2.2c0,0.5-0.1,1-0.3,1.4
		c-0.2,0.4-0.4,0.7-0.8,1c-0.3,0.3-0.7,0.5-1.2,0.6C81.6,31.6,81.1,31.7,80.6,31.7z"/>
	<path d="M87.2,31.6c-0.2,0-0.3-0.1-0.4-0.2s-0.2-0.2-0.2-0.4V20.9c0-0.2,0.1-0.3,0.2-0.4s0.2-0.2,0.4-0.2c0.2,0,0.3,0.1,0.4,0.2
		s0.2,0.2,0.2,0.4v9.6h5.6c0.2,0,0.3,0,0.4,0.2c0.1,0.1,0.2,0.2,0.2,0.4s-0.1,0.3-0.2,0.4s-0.2,0.2-0.4,0.2h-6.2V31.6z"/>
	<path d="M100,31.6c-0.2,0-0.3-0.1-0.4-0.2s-0.2-0.2-0.2-0.4c0-0.1,0.1-0.3,0.2-0.4l4.3-5.1c0.2-0.3,0.4-0.5,0.6-0.9
		c0.1-0.3,0.2-0.6,0.2-0.9c0-0.4-0.1-0.8-0.3-1.2c-0.2-0.3-0.4-0.6-0.7-0.8c-0.3-0.2-0.7-0.3-1.1-0.3s-0.8,0.1-1.1,0.3
		c-0.3,0.2-0.6,0.5-0.8,0.8s-0.3,0.7-0.3,1.2c0,0.2-0.1,0.3-0.2,0.4s-0.2,0.2-0.4,0.2c-0.2,0-0.3-0.1-0.4-0.2s-0.2-0.2-0.2-0.4
		c0-0.6,0.1-1.2,0.4-1.7s0.7-0.9,1.2-1.2c0.5-0.3,1-0.4,1.7-0.4s1.2,0.1,1.7,0.4s0.9,0.7,1.1,1.2c0.3,0.5,0.4,1.1,0.4,1.7
		c0,0.3,0,0.6-0.2,0.9c-0.1,0.3-0.2,0.6-0.4,0.8c-0.2,0.3-0.4,0.5-0.6,0.7l-3.7,4.3h4.5c0.2,0,0.3,0.1,0.4,0.2s0.2,0.2,0.2,0.4
		c0,0.2-0.1,0.3-0.2,0.4s-0.2,0.2-0.4,0.2C105.3,31.6,100,31.6,100,31.6z"/>
</g>
<g>
	<path d="M52.8,65.4c-0.2,0-0.3-0.1-0.4-0.2c-0.1-0.1-0.2-0.2-0.2-0.4v-10c0-0.2,0.1-0.3,0.2-0.4c0.1-0.1,0.2-0.2,0.4-0.2
		s0.3,0.1,0.4,0.2c0.1,0.1,0.2,0.2,0.2,0.4v4.5h7v-4.5c0-0.2,0.1-0.3,0.2-0.4c0.1-0.1,0.2-0.2,0.4-0.2s0.3,0.1,0.4,0.2
		c0.1,0.1,0.2,0.2,0.2,0.4v10.1c0,0.2-0.1,0.3-0.2,0.4c-0.1,0.1-0.2,0.2-0.4,0.2s-0.3-0.1-0.4-0.2c-0.1-0.1-0.2-0.2-0.2-0.4v-4.6h-7
		v4.6c0,0.2-0.1,0.3-0.2,0.4C53,65.4,52.9,65.4,52.8,65.4z"/>
	<path d="M67.1,65.2c-0.1,0.1-0.3,0.1-0.4,0c-0.1,0-0.2-0.1-0.3-0.3l-3.2-6.6c-0.1-0.1-0.1-0.3,0-0.4s0.1-0.2,0.3-0.3
		c0.1-0.1,0.3-0.1,0.4,0c0.1,0,0.2,0.1,0.3,0.3l3.1,6.6c0.1,0.1,0.1,0.3,0.1,0.4C67.3,65,67.2,65.1,67.1,65.2z M65.5,68.8
		c-0.1,0-0.2,0-0.3-0.1c-0.3-0.1-0.4-0.4-0.3-0.7l4.6-10.2c0.1-0.3,0.4-0.4,0.7-0.3c0.3,0.1,0.4,0.4,0.3,0.7l-4.6,10.2
		C65.8,68.7,65.7,68.8,65.5,68.8z"/>
	<path d="M72.5,68.8c-0.2,0-0.3-0.1-0.4-0.2S72,68.4,72,68.2v-6.8c0-0.7,0.2-1.4,0.5-2s0.8-1.1,1.4-1.4c0.6-0.3,1.3-0.5,2-0.5
		c0.8,0,1.4,0.2,2,0.5s1.1,0.8,1.4,1.4c0.3,0.6,0.5,1.3,0.5,2c0,0.8-0.2,1.4-0.5,2s-0.8,1.1-1.4,1.4s-1.2,0.5-2,0.5
		c-0.6,0-1.2-0.1-1.7-0.4s-0.9-0.6-1.3-1.1V68c0,0.2-0.1,0.3-0.2,0.4C72.6,68.5,72.7,68.8,72.5,68.8z M76,64.5
		c0.6,0,1.1-0.1,1.5-0.4c0.4-0.3,0.8-0.6,1-1.1s0.4-1,0.4-1.5c0-0.6-0.1-1.1-0.4-1.5s-0.6-0.8-1-1.1s-0.9-0.4-1.5-0.4
		c-0.5,0-1,0.1-1.5,0.4c-0.4,0.3-0.8,0.6-1,1.1c-0.2,0.4-0.4,1-0.4,1.5c0,0.6,0.1,1.1,0.4,1.5c0.2,0.5,0.6,0.8,1,1.1
		C74.9,64.4,75.4,64.5,76,64.5z"/>
	<path d="M85.7,65.5c-0.8,0-1.5-0.2-2.1-0.5s-1.1-0.8-1.4-1.4s-0.5-1.3-0.5-2.1s0.2-1.5,0.5-2.1s0.8-1.1,1.3-1.4
		c0.6-0.3,1.2-0.5,1.9-0.5c0.7,0,1.4,0.2,1.9,0.5s1,0.8,1.3,1.4c0.3,0.6,0.4,1.2,0.4,2c0,0.2,0,0.3-0.1,0.4
		c-0.1,0.1-0.2,0.1-0.4,0.1h-6.1V61h6.2L88,61.4c0-0.6-0.1-1.1-0.3-1.5c-0.2-0.4-0.5-0.8-0.9-1s-0.8-0.4-1.4-0.4
		c-0.5,0-1,0.1-1.4,0.4s-0.7,0.6-1,1.1c-0.2,0.5-0.3,1-0.3,1.6s0.1,1.1,0.4,1.5s0.6,0.8,1,1.1c0.4,0.3,0.9,0.4,1.5,0.4
		c0.3,0,0.7-0.1,1-0.2c0.3-0.1,0.6-0.3,0.8-0.5c0.1-0.1,0.2-0.1,0.4-0.1s0.2,0,0.3,0.1c0.1,0.1,0.2,0.2,0.2,0.4
		c0,0.1-0.1,0.2-0.2,0.3c-0.3,0.3-0.7,0.5-1.2,0.7C86.6,65.4,86.1,65.5,85.7,65.5z"/>
	<path d="M91.4,65.4c-0.2,0-0.3,0-0.4-0.1s-0.1-0.2-0.1-0.4v-6.7c0-0.2,0-0.3,0.1-0.4c0.1-0.1,0.2-0.1,0.4-0.1s0.3,0,0.4,0.1
		s0.1,0.2,0.1,0.4v6.7c0,0.2,0,0.3-0.1,0.4S91.6,65.4,91.4,65.4z M91.4,60.6c0-0.6,0.2-1.1,0.5-1.6s0.6-0.8,1.1-1.1s1-0.4,1.5-0.4
		c0.4,0,0.8,0.1,1,0.2c0.2,0.1,0.3,0.3,0.3,0.5c0,0.1-0.1,0.2-0.2,0.3s-0.2,0.1-0.3,0.1c-0.1,0-0.3,0-0.4,0c-0.5,0-1,0-1.4,0.2
		s-0.7,0.4-1,0.7c-0.2,0.3-0.4,0.7-0.4,1.2h-0.7V60.6z"/>
	<path d="M97.3,62.1c-0.2,0-0.3-0.1-0.4-0.2c-0.1-0.1-0.2-0.2-0.2-0.4s0.1-0.3,0.2-0.4C97,61,97.1,61,97.3,61h3.4
		c0.2,0,0.3,0.1,0.4,0.2c0.1,0.1,0.2,0.2,0.2,0.4s-0.1,0.3-0.2,0.4c-0.1,0.1-0.2,0.2-0.4,0.2h-3.4V62.1z"/>
	<path d="M105.6,65.4c-0.2,0-0.4-0.1-0.5-0.4l-4.3-10c-0.1-0.3-0.1-0.5,0-0.6c0.1-0.2,0.3-0.2,0.5-0.2s0.4,0.1,0.5,0.4l4,9.5h-0.3
		l3.9-9.4c0.1-0.1,0.1-0.2,0.2-0.3s0.2-0.1,0.3-0.1c0.2,0,0.4,0.1,0.4,0.3c0.1,0.2,0.1,0.4,0,0.6l-4.3,10c-0.1,0.1-0.1,0.2-0.2,0.3
		C105.8,65.4,105.7,65.4,105.6,65.4z"/>
</g>
<g>
	<path d="M19.9,60.6c0,0.2-0.1,0.4-0.3,0.5L10.4,65c-0.2,0.1-0.4,0.1-0.6,0c-0.1-0.1-0.2-0.2-0.2-0.4c0-0.2,0.1-0.4,0.3-0.5l8.7-3.6
		v0.3L10,57.2c-0.1-0.1-0.2-0.1-0.3-0.2c-0.1-0.1-0.1-0.2-0.1-0.3c0-0.2,0.1-0.3,0.2-0.4c0.2-0.1,0.3-0.1,0.5,0l9.2,3.9
		c0.1,0.1,0.2,0.1,0.3,0.2C19.8,60.5,19.9,60.5,19.9,60.6z"/>
	<path d="M19.9,53c0,0.7-0.2,1.3-0.5,1.9c-0.3,0.6-0.7,1-1.3,1.3s-1.2,0.5-1.9,0.5c-0.7,0-1.3-0.2-1.9-0.5s-1-0.7-1.3-1.3
		s-0.5-1.2-0.5-1.9s0.2-1.3,0.5-1.9c0.3-0.5,0.7-1,1.3-1.3s1.2-0.5,1.9-0.5c0.7,0,1.3,0.2,1.9,0.5s1,0.8,1.3,1.3
		C19.8,51.6,19.9,52.3,19.9,53z M19,53c0-0.5-0.1-1-0.4-1.4c-0.2-0.4-0.6-0.7-1-0.9s-0.9-0.3-1.4-0.3s-1,0.1-1.4,0.3s-0.7,0.5-1,0.9
		c-0.2,0.4-0.4,0.9-0.4,1.4s0.1,1,0.4,1.4c0.2,0.4,0.6,0.7,1,1c0.4,0.2,0.9,0.3,1.4,0.3s1-0.1,1.4-0.3s0.7-0.5,1-1S19,53.5,19,53z"
		/>
	<path d="M19.9,45.8c0,0.4-0.1,0.7-0.3,0.9c-0.2,0.3-0.5,0.5-0.8,0.6c-0.3,0.2-0.7,0.2-1.2,0.2h-7.5c-0.1,0-0.3,0-0.4-0.1
		c-0.1-0.1-0.1-0.2-0.1-0.4c0-0.1,0-0.3,0.1-0.4c0.1-0.1,0.2-0.1,0.4-0.1h7.5c0.4,0,0.7-0.1,0.9-0.2c0.2-0.2,0.4-0.3,0.4-0.6v-0.3
		c0-0.1,0-0.2,0.1-0.3s0.2-0.1,0.4-0.1c0.1,0,0.3,0.1,0.4,0.2s0.1,0.3,0.1,0.4V45.8z"/>
	<path d="M19.9,37.6c0,0.1,0,0.3-0.1,0.4s-0.2,0.1-0.4,0.1h-6.2c-0.1,0-0.3,0-0.4-0.1c-0.1-0.1-0.1-0.2-0.1-0.4c0-0.1,0-0.3,0.1-0.4
		c0.1-0.1,0.2-0.1,0.4-0.1h6.2c0.2,0,0.3,0,0.4,0.1S19.9,37.5,19.9,37.6z M19.9,40.5c0,0.6-0.1,1.2-0.4,1.7s-0.6,0.9-1.1,1.2
		s-1.1,0.4-1.8,0.4h-3.4c-0.1,0-0.3,0-0.4-0.1s-0.1-0.2-0.1-0.4c0-0.1,0-0.3,0.1-0.4s0.2-0.1,0.4-0.1h3.4c0.5,0,1-0.1,1.3-0.3
		c0.4-0.2,0.6-0.5,0.8-0.8c0.2-0.4,0.3-0.8,0.3-1.2s-0.1-0.8-0.2-1.2c-0.2-0.3-0.4-0.6-0.7-0.8c-0.3-0.2-0.6-0.3-1-0.3v-0.7
		c0.6,0,1,0.2,1.5,0.5c0.4,0.3,0.8,0.6,1,1.1S19.9,39.9,19.9,40.5z"/>
	<path d="M19.9,25c0,0.1,0,0.3-0.1,0.4s-0.2,0.1-0.4,0.1h-3.8c-0.6,0-1.1,0.2-1.5,0.5s-0.5,0.7-0.5,1.2s0.2,1,0.5,1.3
		c0.4,0.3,0.8,0.5,1.5,0.5v1c-0.6,0-1.1-0.1-1.5-0.4c-0.4-0.2-0.8-0.6-1-1s-0.4-0.9-0.4-1.5c0-0.5,0.1-1,0.4-1.4
		c0.2-0.4,0.6-0.7,1-0.9s1-0.3,1.6-0.3h3.8c0.1,0,0.3,0,0.4,0.1C19.8,24.8,19.9,24.9,19.9,25z M19.9,29.6c0,0.1,0,0.3-0.1,0.4
		s-0.2,0.1-0.4,0.1h-3.8c-0.6,0-1.1,0.2-1.5,0.5s-0.5,0.7-0.5,1.2c0,0.5,0.2,1,0.5,1.3s0.8,0.5,1.4,0.5v0.7c-0.6,0-1.1-0.1-1.5-0.4
		s-0.8-0.5-1-1c-0.2-0.4-0.4-0.9-0.4-1.4c0-0.5,0.1-1,0.4-1.4c0.2-0.4,0.6-0.7,1-0.9c0.4-0.2,1-0.3,1.6-0.3h3.8c0.1,0,0.3,0,0.4,0.1
		S19.9,29.5,19.9,29.6z M19.9,34.2c0,0.2,0,0.3-0.1,0.4s-0.2,0.1-0.4,0.1h-6.2c-0.1,0-0.3,0-0.4-0.1s-0.1-0.2-0.1-0.4
		c0-0.1,0-0.3,0.1-0.4c0.1-0.1,0.2-0.1,0.4-0.1h6.2c0.1,0,0.3,0,0.4,0.1C19.8,34,19.9,34.1,19.9,34.2z"/>
	<path d="M19.9,19.1c0,0.7-0.2,1.3-0.5,1.9s-0.7,1-1.3,1.3s-1.2,0.5-1.9,0.5c-0.7,0-1.4-0.1-1.9-0.4s-1-0.7-1.3-1.2
		s-0.5-1.1-0.5-1.8c0-0.7,0.2-1.2,0.5-1.7s0.7-0.9,1.3-1.1s1.1-0.4,1.8-0.4c0.1,0,0.3,0,0.3,0.1c0.1,0.1,0.1,0.2,0.1,0.3V22h-0.8
		v-5.7l0.4,0.6c-0.5,0-1,0.1-1.4,0.3c-0.4,0.2-0.7,0.5-0.9,0.8s-0.3,0.8-0.3,1.3s0.1,0.9,0.4,1.3s0.6,0.7,1,0.9s0.9,0.3,1.4,0.3
		c0.5,0,1-0.1,1.4-0.3c0.4-0.2,0.7-0.5,1-1c0.2-0.4,0.4-0.9,0.4-1.4c0-0.3-0.1-0.6-0.2-1c-0.1-0.3-0.2-0.6-0.4-0.8
		c-0.1-0.1-0.1-0.2-0.1-0.3s0-0.2,0.1-0.3c0.1-0.1,0.2-0.2,0.3-0.2s0.2,0,0.3,0.2c0.2,0.3,0.4,0.7,0.6,1.1
		C19.8,18.2,19.9,18.6,19.9,19.1z"/>
	<path d="M35.6,60.6c0,0.1-0.1,0.3-0.2,0.4c-0.1,0.1-0.2,0.2-0.4,0.2h-9.2c-0.1,0-0.3-0.1-0.4-0.2c-0.1-0.1-0.1-0.2-0.1-0.4
		s0.1-0.4,0.3-0.5l8.8-4.4v0.4l-8.8-4.3c-0.2-0.1-0.3-0.3-0.3-0.5c0-0.1,0-0.3,0.1-0.4c0.1-0.1,0.2-0.1,0.4-0.1H35
		c0.1,0,0.3,0,0.4,0.1s0.2,0.2,0.2,0.4c0,0.1-0.1,0.3-0.2,0.4s-0.2,0.2-0.4,0.2h-7.9v-0.2l7.9,3.9c0.2,0.1,0.2,0.2,0.2,0.4
		s-0.1,0.4-0.3,0.5l-7.8,3.9L27,60.1h7.9c0.1,0,0.3,0.1,0.4,0.2S35.6,60.4,35.6,60.6z"/>
	<path d="M35.7,45.1c0,0.7-0.2,1.3-0.5,1.9c-0.3,0.6-0.7,1-1.3,1.3s-1.2,0.5-1.9,0.5s-1.3-0.2-1.9-0.5s-1-0.7-1.3-1.3
		s-0.5-1.2-0.5-1.9s0.2-1.3,0.5-1.9c0.3-0.5,0.7-1,1.3-1.3s1.2-0.5,1.9-0.5c0.7,0,1.3,0.2,1.9,0.5s1,0.8,1.3,1.3
		C35.5,43.7,35.7,44.4,35.7,45.1z M34.8,45.1c0-0.5-0.1-1-0.4-1.4c-0.2-0.4-0.6-0.7-1-0.9s-0.9-0.3-1.4-0.3c-0.5,0-1,0.1-1.4,0.3
		s-0.7,0.5-1,0.9c-0.2,0.4-0.4,0.9-0.4,1.4s0.1,1,0.4,1.4c0.2,0.4,0.6,0.7,1,1c0.4,0.2,0.9,0.3,1.4,0.3c0.5,0,1-0.1,1.4-0.3
		c0.4-0.2,0.7-0.5,1-1C34.6,46,34.8,45.6,34.8,45.1z"/>
	<path d="M35.6,33.3c0,0.1,0,0.3-0.1,0.4c-0.1,0.1-0.2,0.1-0.4,0.1h-3.4c-0.5,0-1,0.1-1.3,0.3s-0.6,0.5-0.8,0.8
		c-0.2,0.4-0.3,0.8-0.3,1.2s0.1,0.8,0.2,1.2c0.2,0.3,0.4,0.6,0.7,0.8c0.3,0.2,0.6,0.3,1,0.3v0.7c-0.6,0-1-0.2-1.5-0.4
		c-0.4-0.3-0.8-0.7-1-1.1s-0.4-1-0.4-1.5c0-0.6,0.1-1.2,0.4-1.7s0.6-0.9,1.1-1.2s1.1-0.4,1.8-0.4H35c0.1,0,0.3,0,0.4,0.1
		C35.6,33,35.6,33.1,35.6,33.3z M35.6,38.9c0,0.2,0,0.3-0.1,0.4s-0.2,0.1-0.4,0.1h-6.2c-0.2,0-0.3,0-0.4-0.1s-0.1-0.2-0.1-0.4
		c0-0.1,0-0.3,0.1-0.4c0.1-0.1,0.2-0.1,0.4-0.1h6.2c0.1,0,0.3,0,0.4,0.1C35.6,38.7,35.6,38.8,35.6,38.9z"/>
	<path d="M35.6,27.7c0,0.5-0.1,0.9-0.3,1.2s-0.5,0.6-0.9,0.9c-0.4,0.2-0.8,0.3-1.3,0.3h-6.4c-0.1,0-0.3,0-0.4-0.1s-0.1-0.2-0.1-0.4
		c0-0.1,0-0.3,0.1-0.4s0.2-0.1,0.4-0.1h6.4c0.4,0,0.8-0.1,1.1-0.4s0.4-0.6,0.4-1v-0.4c0-0.1,0-0.3,0.1-0.3c0.1-0.1,0.2-0.1,0.4-0.1
		c0.1,0,0.3,0.1,0.4,0.2s0.1,0.2,0.1,0.4V27.7z M29.6,31c0,0.1,0,0.2-0.1,0.3c-0.1,0.1-0.2,0.1-0.3,0.1c-0.1,0-0.2,0-0.3-0.1
		c-0.1-0.1-0.1-0.2-0.1-0.3v-3.3c0-0.1,0-0.2,0.1-0.3c0.1-0.1,0.2-0.1,0.3-0.1c0.1,0,0.2,0,0.3,0.1s0.1,0.2,0.1,0.3V31z"/>
	<path d="M27.3,22.4c0,0.1-0.1,0.3-0.2,0.4S26.9,23,26.7,23c-0.1,0-0.3,0-0.3-0.1L25,21.3c-0.1-0.1-0.1-0.2-0.1-0.4
		c0-0.1,0.1-0.3,0.2-0.4s0.2-0.1,0.4-0.1c0.1,0,0.1,0,0.2,0s0.1,0.1,0.2,0.1l1.5,1.5C27.3,22.1,27.3,22.2,27.3,22.4z M35.7,22
		c0,0.7-0.2,1.3-0.5,1.9s-0.7,1-1.3,1.3s-1.2,0.5-1.9,0.5s-1.4-0.1-1.9-0.4s-1-0.7-1.3-1.2s-0.5-1.1-0.5-1.8c0-0.7,0.2-1.2,0.5-1.7
		s0.7-0.9,1.3-1.1s1.1-0.4,1.8-0.4c0.1,0,0.3,0,0.3,0.1c0.1,0.1,0.1,0.2,0.1,0.3V25h-0.8v-5.7l0.4,0.6c-0.5,0-1,0.1-1.4,0.3
		c-0.4,0.2-0.7,0.5-0.9,0.8s-0.3,0.8-0.3,1.3s0.1,0.9,0.4,1.3s0.6,0.7,1,0.9s0.9,0.3,1.4,0.3c0.5,0,1-0.1,1.4-0.3
		c0.4-0.2,0.7-0.5,1-1c0.2-0.4,0.4-0.9,0.4-1.4c0-0.3-0.1-0.6-0.2-1c-0.1-0.3-0.2-0.6-0.4-0.8c-0.1-0.1-0.1-0.2-0.1-0.3
		s0-0.2,0.1-0.3c0.1-0.1,0.2-0.2,0.3-0.2s0.2,0,0.3,0.2c0.2,0.3,0.4,0.7,0.6,1.1C35.6,21.2,35.7,21.6,35.7,22z"/>
</g>
<g>
	<path d="M18.7,132.4c0,0.2-0.1,0.4-0.3,0.5l-9.1,3.9c-0.2,0.1-0.4,0.1-0.6,0s-0.2-0.2-0.2-0.4s0.1-0.4,0.3-0.5l8.7-3.6v0.3L8.9,129
		c-0.1-0.1-0.2-0.1-0.3-0.2c-0.1-0.1-0.1-0.2-0.1-0.3c0-0.2,0.1-0.3,0.2-0.4c0.2-0.1,0.3-0.1,0.5,0l9.2,3.9c0.1,0.1,0.2,0.1,0.3,0.2
		C18.6,132.2,18.7,132.3,18.7,132.4z"/>
	<path d="M18.7,124.7c0,0.7-0.2,1.3-0.5,1.9s-0.7,1-1.3,1.3c-0.6,0.3-1.2,0.5-1.9,0.5s-1.3-0.2-1.9-0.5c-0.6-0.3-1-0.7-1.3-1.3
		c-0.3-0.6-0.5-1.2-0.5-1.9s0.2-1.3,0.5-1.9c0.3-0.5,0.7-1,1.3-1.3s1.2-0.5,1.9-0.5s1.3,0.2,1.9,0.5s1,0.8,1.3,1.3
		C18.6,123.4,18.7,124,18.7,124.7z M17.8,124.7c0-0.5-0.1-1-0.4-1.4s-0.6-0.7-1-0.9c-0.4-0.2-0.9-0.3-1.4-0.3s-1,0.1-1.4,0.3
		c-0.4,0.2-0.7,0.5-1,0.9s-0.4,0.9-0.4,1.4s0.1,1,0.4,1.4s0.6,0.7,1,1c0.4,0.2,0.9,0.3,1.4,0.3s1-0.1,1.4-0.3c0.4-0.2,0.7-0.5,1-1
		S17.8,125.2,17.8,124.7z"/>
	<path d="M18.7,117.5c0,0.4-0.1,0.7-0.3,0.9s-0.5,0.5-0.8,0.6s-0.7,0.2-1.2,0.2H8.9c-0.1,0-0.3,0-0.4-0.1c-0.1-0.1-0.1-0.2-0.1-0.4
		c0-0.1,0-0.3,0.1-0.4s0.2-0.1,0.4-0.1h7.5c0.4,0,0.7-0.1,0.9-0.2c0.2-0.2,0.4-0.3,0.4-0.6v-0.3c0-0.1,0-0.2,0.1-0.3
		c0.1-0.1,0.2-0.1,0.4-0.1c0.1,0,0.3,0.1,0.4,0.2s0.1,0.3,0.1,0.4C18.7,117.3,18.7,117.5,18.7,117.5z"/>
	<path d="M18.7,109.4c0,0.1,0,0.3-0.1,0.4s-0.2,0.1-0.4,0.1H12c-0.1,0-0.3,0-0.4-0.1c-0.1-0.1-0.1-0.2-0.1-0.4c0-0.1,0-0.3,0.1-0.4
		s0.2-0.1,0.4-0.1h6.2c0.2,0,0.3,0,0.4,0.1C18.6,109.1,18.7,109.2,18.7,109.4z M18.7,112.3c0,0.6-0.1,1.2-0.4,1.7s-0.6,0.9-1.1,1.2
		c-0.5,0.3-1.1,0.4-1.8,0.4H12c-0.1,0-0.3,0-0.4-0.1c-0.1-0.1-0.1-0.2-0.1-0.4c0-0.1,0-0.3,0.1-0.4s0.2-0.1,0.4-0.1h3.4
		c0.5,0,1-0.1,1.3-0.3c0.4-0.2,0.6-0.5,0.8-0.8c0.2-0.4,0.3-0.8,0.3-1.2c0-0.4-0.1-0.8-0.2-1.2c-0.2-0.3-0.4-0.6-0.7-0.8
		s-0.6-0.3-1-0.3v-0.7c0.6,0,1,0.2,1.5,0.5s0.8,0.6,1,1.1S18.7,111.7,18.7,112.3z"/>
	<path d="M18.7,96.8c0,0.1,0,0.3-0.1,0.4s-0.2,0.1-0.4,0.1h-3.8c-0.6,0-1.1,0.2-1.5,0.5s-0.5,0.7-0.5,1.2s0.2,1,0.5,1.3
		c0.4,0.3,0.8,0.5,1.5,0.5v0.9c-0.6,0-1.1-0.1-1.5-0.4s-0.8-0.6-1-1s-0.4-0.9-0.4-1.5c0-0.5,0.1-1,0.4-1.4s0.6-0.7,1-0.9
		c0.4-0.2,1-0.3,1.6-0.3h3.8c0.1,0,0.3,0,0.4,0.1S18.7,96.6,18.7,96.8z M18.7,101.4c0,0.1,0,0.3-0.1,0.4s-0.2,0.1-0.4,0.1h-3.8
		c-0.6,0-1.1,0.2-1.5,0.5s-0.5,0.7-0.5,1.2s0.2,1,0.5,1.3c0.4,0.4,0.8,0.5,1.4,0.5v0.7c-0.6,0-1.1-0.1-1.5-0.4c-0.4-0.2-0.8-0.5-1-1
		s-0.4-0.9-0.4-1.4s0.1-1,0.4-1.4s0.6-0.7,1-0.9c0.4-0.2,1-0.3,1.6-0.3h3.8c0.1,0,0.3,0,0.4,0.1S18.7,101.2,18.7,101.4z M18.7,106
		c0,0.2,0,0.3-0.1,0.4s-0.2,0.1-0.4,0.1H12c-0.1,0-0.3,0-0.4-0.1s-0.1-0.2-0.1-0.4c0-0.1,0-0.3,0.1-0.4s0.2-0.1,0.4-0.1h6.2
		c0.1,0,0.3,0,0.4,0.1S18.7,105.8,18.7,106z"/>
	<path d="M18.7,90.8c0,0.7-0.2,1.3-0.5,1.9s-0.7,1-1.3,1.3s-1.2,0.5-1.9,0.5s-1.4-0.1-1.9-0.4s-1-0.7-1.3-1.2s-0.5-1.1-0.5-1.8
		c0-0.7,0.2-1.2,0.5-1.7s0.7-0.9,1.3-1.1s1.1-0.4,1.8-0.4c0.1,0,0.3,0,0.3,0.1c0.1,0.1,0.1,0.2,0.1,0.3v5.6h-0.8v-5.7l0.4,0.6
		c-0.5,0-1,0.1-1.4,0.3c-0.4,0.2-0.7,0.5-0.9,0.8s-0.3,0.8-0.3,1.3s0.1,0.9,0.4,1.3c0.2,0.4,0.6,0.7,1,0.9c0.4,0.2,0.9,0.3,1.4,0.3
		s1-0.1,1.4-0.3c0.4-0.2,0.7-0.5,1-1c0.2-0.4,0.4-0.9,0.4-1.4c0-0.3-0.1-0.6-0.2-1c-0.1-0.3-0.2-0.6-0.4-0.8
		c-0.1-0.1-0.1-0.2-0.1-0.3c0-0.1,0-0.2,0.1-0.3c0.1-0.1,0.2-0.2,0.3-0.2c0.1,0,0.2,0,0.3,0.2c0.2,0.3,0.4,0.7,0.6,1.1
		C18.7,90,18.7,90.4,18.7,90.8z"/>
	<path d="M34.4,140.1c0,0.1,0,0.3-0.1,0.4c-0.1,0.1-0.2,0.1-0.4,0.1h-3.4c-0.5,0-1,0.1-1.3,0.3s-0.6,0.5-0.8,0.8
		c-0.2,0.4-0.3,0.8-0.3,1.2s0.1,0.8,0.2,1.2c0.2,0.3,0.4,0.6,0.7,0.8c0.3,0.2,0.6,0.3,1,0.3v0.7c-0.6,0-1-0.2-1.5-0.4
		c-0.4-0.3-0.8-0.7-1-1.1s-0.4-1-0.4-1.5c0-0.6,0.1-1.2,0.4-1.7s0.6-0.9,1.1-1.2s1.1-0.4,1.8-0.4h3.4c0.1,0,0.3,0,0.4,0.1
		C34.4,139.9,34.4,140,34.4,140.1z M34.4,145.8c0,0.2,0,0.3-0.1,0.4s-0.2,0.1-0.4,0.1h-6.2c-0.2,0-0.3,0-0.4-0.1s-0.1-0.2-0.1-0.4
		c0-0.1,0-0.3,0.1-0.4c0.1-0.1,0.2-0.1,0.4-0.1h6.2c0.1,0,0.3,0,0.4,0.1S34.4,145.6,34.4,145.8z"/>
	<path d="M34.5,134.1c0,0.7-0.2,1.3-0.5,1.9c-0.3,0.6-0.7,1-1.3,1.3s-1.2,0.5-1.9,0.5c-0.7,0-1.3-0.2-1.9-0.5s-1-0.7-1.3-1.3
		s-0.5-1.2-0.5-1.9s0.2-1.3,0.5-1.9c0.3-0.5,0.7-1,1.3-1.3c0.6-0.3,1.2-0.5,1.9-0.5c0.7,0,1.3,0.2,1.9,0.5s1,0.8,1.3,1.3
		C34.3,132.8,34.5,133.4,34.5,134.1z M33.6,134.1c0-0.5-0.1-1-0.4-1.4s-0.6-0.7-1-0.9c-0.4-0.2-0.9-0.3-1.4-0.3s-1,0.1-1.4,0.3
		s-0.7,0.5-1,0.9s-0.4,0.9-0.4,1.4s0.1,1,0.4,1.4s0.6,0.7,1,1c0.4,0.2,0.9,0.3,1.4,0.3s1-0.1,1.4-0.3c0.4-0.2,0.7-0.5,1-1
		S33.6,134.6,33.6,134.1z"/>
	<path d="M34.4,122.4c0,0.1,0,0.3-0.1,0.4s-0.2,0.1-0.4,0.1h-3.4c-0.5,0-1,0.1-1.3,0.3c-0.3,0.2-0.6,0.5-0.8,0.8
		c-0.2,0.4-0.3,0.8-0.3,1.2c0,0.4,0.1,0.8,0.2,1.2c0.2,0.3,0.4,0.6,0.7,0.8c0.3,0.2,0.6,0.3,1,0.3v0.7c-0.6,0-1-0.2-1.5-0.4
		c-0.4-0.3-0.8-0.7-1-1.1s-0.4-1-0.4-1.5c0-0.6,0.1-1.2,0.4-1.7s0.6-0.9,1.1-1.2c0.5-0.3,1.1-0.4,1.8-0.4h3.4c0.1,0,0.3,0,0.4,0.1
		C34.4,122.1,34.4,122.2,34.4,122.4z M34.4,128c0,0.2,0,0.3-0.1,0.4c-0.1,0.1-0.2,0.1-0.4,0.1h-6.2c-0.2,0-0.3,0-0.4-0.1
		c-0.1-0.1-0.1-0.2-0.1-0.4c0-0.1,0-0.3,0.1-0.4s0.2-0.1,0.4-0.1h6.2c0.1,0,0.3,0,0.4,0.1S34.4,127.9,34.4,128z"/>
	<path d="M34.4,115.1c0,0.1-0.1,0.3-0.2,0.4s-0.2,0.2-0.4,0.2h-9.2c-0.1,0-0.3-0.1-0.4-0.2s-0.1-0.2-0.1-0.4c0-0.2,0.1-0.4,0.3-0.5
		l8.8-4.4v0.4l-8.8-4.3c-0.2-0.1-0.3-0.3-0.3-0.5c0-0.1,0-0.3,0.1-0.4s0.2-0.1,0.4-0.1h9.2c0.1,0,0.3,0,0.4,0.1
		c0.1,0.1,0.2,0.2,0.2,0.4c0,0.1-0.1,0.3-0.2,0.4s-0.2,0.2-0.4,0.2H26v-0.2l7.9,3.9c0.2,0.1,0.2,0.2,0.2,0.4c0,0.2-0.1,0.4-0.3,0.5
		l-7.8,3.9l-0.1-0.3h7.9c0.1,0,0.3,0.1,0.4,0.2S34.4,115,34.4,115.1z"/>
	<path d="M34.5,99.6c0,0.7-0.2,1.3-0.5,1.9s-0.7,1-1.3,1.3s-1.2,0.5-1.9,0.5c-0.7,0-1.3-0.2-1.9-0.5s-1-0.7-1.3-1.3
		c-0.3-0.6-0.5-1.2-0.5-1.9s0.2-1.3,0.5-1.9c0.3-0.5,0.7-1,1.3-1.3c0.6-0.3,1.2-0.5,1.9-0.5c0.7,0,1.3,0.2,1.9,0.5s1,0.8,1.3,1.3
		C34.3,98.3,34.5,98.9,34.5,99.6z M33.6,99.6c0-0.5-0.1-1-0.4-1.4s-0.6-0.7-1-0.9c-0.4-0.2-0.9-0.3-1.4-0.3s-1,0.1-1.4,0.3
		c-0.4,0.2-0.7,0.5-1,0.9S28,99.1,28,99.6s0.1,1,0.4,1.4s0.6,0.7,1,1c0.4,0.2,0.9,0.3,1.4,0.3s1-0.1,1.4-0.3c0.4-0.2,0.7-0.5,1-1
		S33.6,100.1,33.6,99.6z"/>
	<path d="M34.4,87.9c0,0.1,0,0.3-0.1,0.4s-0.2,0.1-0.4,0.1h-3.4c-0.5,0-1,0.1-1.3,0.3c-0.3,0.2-0.6,0.5-0.8,0.8
		c-0.2,0.4-0.3,0.8-0.3,1.2c0,0.4,0.1,0.8,0.2,1.2c0.2,0.3,0.4,0.6,0.7,0.8c0.3,0.2,0.6,0.3,1,0.3v0.7c-0.6,0-1-0.2-1.5-0.4
		c-0.4-0.3-0.8-0.7-1-1.1s-0.4-1-0.4-1.5c0-0.6,0.1-1.2,0.4-1.7s0.6-0.9,1.1-1.2c0.5-0.3,1.1-0.4,1.8-0.4h3.4c0.1,0,0.3,0,0.4,0.1
		C34.4,87.6,34.4,87.7,34.4,87.9z M34.4,93.5c0,0.2,0,0.3-0.1,0.4S34.1,94,33.9,94h-6.2c-0.2,0-0.3,0-0.4-0.1s-0.1-0.2-0.1-0.4
		c0-0.1,0-0.3,0.1-0.4s0.2-0.1,0.4-0.1h6.2c0.1,0,0.3,0,0.4,0.1S34.4,93.4,34.4,93.5z"/>
	<path d="M34.4,82.3c0,0.5-0.1,0.9-0.3,1.2s-0.5,0.6-0.9,0.9c-0.4,0.2-0.8,0.3-1.3,0.3h-6.4c-0.1,0-0.3,0-0.4-0.1
		C25,84.5,25,84.4,25,84.2c0-0.1,0-0.3,0.1-0.4s0.2-0.1,0.4-0.1h6.4c0.4,0,0.8-0.1,1.1-0.4s0.4-0.6,0.4-1V82c0-0.1,0-0.3,0.1-0.3
		c0.1-0.1,0.2-0.1,0.4-0.1c0.1,0,0.3,0.1,0.4,0.2s0.1,0.2,0.1,0.4V82.3z M28.4,85.6c0,0.1,0,0.2-0.1,0.3C28.2,86,28.1,86,28,86
		c-0.1,0-0.2,0-0.3-0.1c-0.1-0.1-0.1-0.2-0.1-0.3v-3.3c0-0.1,0-0.2,0.1-0.3c0.1-0.1,0.2-0.1,0.3-0.1c0.1,0,0.2,0,0.3,0.1
		s0.1,0.2,0.1,0.3V85.6z"/>
	<path d="M26.2,77c0,0.1-0.1,0.3-0.2,0.4s-0.2,0.2-0.4,0.2c-0.1,0-0.3,0-0.3-0.1L23.8,76c-0.1-0.1-0.1-0.2-0.1-0.4
		c0-0.1,0.1-0.3,0.2-0.4c0-0.2,0.1-0.2,0.3-0.2c0.1,0,0.1,0,0.2,0s0.1,0.1,0.2,0.1l1.5,1.5C26.1,76.7,26.2,76.8,26.2,77z M34.5,76.6
		c0,0.7-0.2,1.3-0.5,1.9s-0.7,1-1.3,1.3s-1.2,0.5-1.9,0.5c-0.7,0-1.4-0.1-1.9-0.4s-1-0.7-1.3-1.2s-0.5-1.1-0.5-1.8
		c0-0.7,0.2-1.2,0.5-1.7s0.7-0.9,1.3-1.1s1.1-0.4,1.8-0.4c0.1,0,0.3,0,0.3,0.1c0.1,0.1,0.1,0.2,0.1,0.3v5.6h-0.8V74l0.4,0.6
		c-0.5,0-1,0.1-1.4,0.3c-0.4,0.2-0.7,0.5-0.9,0.8s-0.3,0.8-0.3,1.3s0.1,0.9,0.4,1.3c0.2,0.4,0.6,0.7,1,0.9c0.4,0.2,0.9,0.3,1.4,0.3
		s1-0.1,1.4-0.3c0.4-0.2,0.7-0.5,1-1c0.2-0.4,0.4-0.9,0.4-1.4c0-0.3-0.1-0.6-0.2-1c-0.1-0.3-0.2-0.6-0.4-0.8
		C33,74.9,33,74.8,33,74.7s0-0.2,0.1-0.3c0.1-0.1,0.2-0.2,0.3-0.2s0.2,0,0.3,0.2c0.2,0.3,0.4,0.7,0.6,1.1
		C34.4,75.8,34.5,76.2,34.5,76.6z"/>
</g>
<g>
	<path d="M66.1,111.3c-0.1,0-0.3,0-0.4-0.1s-0.2-0.2-0.2-0.3l-2.9-9.9c-0.1-0.2-0.1-0.4,0-0.6s0.2-0.2,0.4-0.2c0.1,0,0.2,0,0.3,0.1
		s0.2,0.2,0.2,0.3l2.6,9.2H66l2.5-9c0-0.1,0.1-0.2,0.2-0.3c0.1-0.1,0.2-0.1,0.3-0.1c0.1,0,0.2,0,0.3,0.1c0.1,0.1,0.2,0.2,0.2,0.3
		l2.5,9h-0.3l2.7-9.3c0.1-0.2,0.2-0.4,0.5-0.4c0.2,0,0.3,0.1,0.4,0.2c0.1,0.2,0.1,0.3,0,0.6l-2.9,9.9c0,0.2-0.1,0.3-0.2,0.4
		s-0.2,0.1-0.4,0.1c-0.1,0-0.3,0-0.4-0.1s-0.2-0.2-0.2-0.3l-2.5-9.1H69l-2.5,9.1c0,0.1-0.1,0.3-0.2,0.3
		C66.4,111.3,66.3,111.3,66.1,111.3z"/>
	<path d="M80.6,111.5c-0.6,0-1.2-0.1-1.7-0.3c-0.5-0.2-1-0.4-1.4-0.8c-0.4-0.3-0.7-0.7-0.9-1.1c-0.1-0.2-0.1-0.3,0-0.4
		s0.2-0.2,0.4-0.3c0.1,0,0.3,0,0.4,0c0.1,0.1,0.2,0.2,0.3,0.3c0.1,0.3,0.4,0.5,0.6,0.7s0.6,0.4,1,0.5s0.8,0.2,1.3,0.2s1-0.1,1.3-0.3
		c0.4-0.2,0.7-0.4,0.9-0.7c0.2-0.3,0.3-0.7,0.3-1.2c0-0.6-0.2-1.1-0.6-1.5s-1.1-0.7-2-0.8c-1.1-0.1-2-0.5-2.6-1
		c-0.6-0.6-0.9-1.2-0.9-2.1c0-0.6,0.2-1.1,0.5-1.5s0.7-0.8,1.3-1c0.5-0.2,1.2-0.4,1.9-0.4c0.5,0,1,0.1,1.4,0.3
		c0.4,0.2,0.8,0.4,1.1,0.7c0.3,0.3,0.6,0.6,0.8,0.9c0.1,0.2,0.1,0.3,0.1,0.4s-0.1,0.3-0.3,0.3c-0.1,0.1-0.3,0.1-0.4,0
		s-0.3-0.1-0.3-0.3c-0.1-0.2-0.3-0.4-0.5-0.6s-0.5-0.4-0.8-0.5s-0.7-0.2-1.1-0.2c-0.8,0-1.4,0.2-1.8,0.5c-0.5,0.3-0.7,0.8-0.7,1.4
		c0,0.3,0.1,0.6,0.3,0.9c0.2,0.3,0.5,0.5,0.9,0.7s0.9,0.3,1.6,0.4c1.2,0.2,2.1,0.5,2.7,1.1s0.9,1.3,0.9,2.2c0,0.5-0.1,1-0.3,1.4
		c-0.2,0.4-0.4,0.7-0.8,1c-0.3,0.3-0.7,0.5-1.2,0.6C81.6,111.4,81.1,111.5,80.6,111.5z"/>
	<path d="M87.2,111.3c-0.2,0-0.3-0.1-0.4-0.2s-0.2-0.2-0.2-0.4v-10c0-0.2,0.1-0.3,0.2-0.4s0.2-0.2,0.4-0.2c0.2,0,0.3,0.1,0.4,0.2
		s0.2,0.2,0.2,0.4v9.6h5.6c0.2,0,0.3,0,0.4,0.2c0.1,0.1,0.2,0.2,0.2,0.4c0,0.2-0.1,0.3-0.2,0.4s-0.2,0.2-0.4,0.2h-6.2V111.3z"/>
	<path d="M100,111.3c-0.2,0-0.3-0.1-0.4-0.2s-0.2-0.2-0.2-0.4c0-0.1,0.1-0.3,0.2-0.4l4.3-5.1c0.2-0.3,0.4-0.5,0.6-0.9
		c0.1-0.3,0.2-0.6,0.2-0.9c0-0.4-0.1-0.8-0.3-1.2c-0.2-0.3-0.4-0.6-0.7-0.8c-0.3-0.2-0.7-0.3-1.1-0.3s-0.8,0.1-1.1,0.3
		c-0.3,0.2-0.6,0.5-0.8,0.8s-0.3,0.7-0.3,1.2c0,0.2-0.1,0.3-0.2,0.4s-0.2,0.2-0.4,0.2c-0.2,0-0.3-0.1-0.4-0.2s-0.2-0.2-0.2-0.4
		c0-0.6,0.1-1.2,0.4-1.7s0.7-0.9,1.2-1.2s1-0.4,1.7-0.4s1.2,0.1,1.7,0.4s0.9,0.7,1.1,1.2c0.3,0.5,0.4,1.1,0.4,1.7
		c0,0.3,0,0.6-0.2,0.9c-0.1,0.3-0.2,0.6-0.4,0.8s-0.4,0.5-0.6,0.7l-3.7,4.3h4.5c0.2,0,0.3,0.1,0.4,0.2s0.2,0.2,0.2,0.4
		c0,0.2-0.1,0.3-0.2,0.4s-0.2,0.2-0.4,0.2H100z"/>
</g>
<line class="st1" x1="45.8" y1="14.5" x2="45.8" y2="65.8"/>
<line class="st2" x1="45.8" y1="74.7" x2="45.8" y2="146.4"/>
<rect x="122" y="14.5" class="st3" width="550" height="26.2"/>
<rect x="121.9" y="24.9" class="st4" width="436" height="15.8"/>
<text transform="matrix(1 0 0 1 612.2333 31.6001)" class="st5 st6">24 875ms</text>
<text transform="matrix(1 0 0 1 128.5 36)" class="st5 st6">19 743ms</text>
<rect x="122.2" y="50" class="st3" width="209" height="26.2"/>
<rect x="121.9" y="60.4" class="st4" width="146" height="15.8"/>
<text transform="matrix(1 0 0 1 279.2333 67.1313)" class="st5 st6">9 436ms</text>
<text transform="matrix(1 0 0 1 128.5 71.5313)" class="st5 st6">6 619ms</text>
<rect x="122" y="93.4" class="st7" width="40" height="26.2"/>
<rect x="122.3" y="103.8" class="st4" width="36" height="15.8"/>
<text transform="matrix(1 0 0 1 167.5833 112.2501)" class="st5 st6">1 789ms</text>
<text transform="matrix(1 0 0 1 124.4249 132.4496)" class="st5 st6">1 649ms</text>
</svg>
